<svg xmlns="http://www.w3.org/2000/svg" viewBox="0 0 68.12 68.12"><defs><style>.cls-1{fill:none;stroke:#ebdbb2;stroke-miterlimit:10;stroke-width:3px;}</style></defs><title>69</title><g id="Layer_2" data-name="Layer 2"><g id="Layer_1-2" data-name="Layer 1"><path class="cls-1" d="M66.62,34.06a3.12,3.12,0,0,1-3.12,3.12H41.58l15.5,15.5a3.11,3.11,0,1,1-4.41,4.4L37.18,41.59V63.5a3.13,3.13,0,0,1-6.25,0V41.59L15.44,57.08A3.11,3.11,0,0,1,11,52.68l15.5-15.5H4.61a3.12,3.12,0,0,1,0-6.24H26.53L11,15.45A3.12,3.12,0,0,1,15.44,11L30.93,26.53V4.62a3.13,3.13,0,0,1,6.25,0V26.53L52.67,11a3.12,3.12,0,0,1,4.41,4.41L41.58,30.94H63.5A3.12,3.12,0,0,1,66.62,34.06Z"/></g></g></svg>
