<svg xmlns="http://www.w3.org/2000/svg" viewBox="0 0 303.74 104.68"><defs><style>.cls-1{fill:none;stroke:#ebdbb2;stroke-miterlimit:10;}</style></defs><title>Asset 1001</title><g id="Layer_2" data-name="Layer 2"><g id="Layer_1-2" data-name="Layer 1"><polygon class="cls-1" points="1.59 27 118.5 27 185.19 73.37 68.28 73.37 1.59 27"/><line class="cls-1" x1="60.87" y1="68.22" x2="177.78" y2="68.22"/><line class="cls-1" x1="53.46" y1="63.07" x2="170.37" y2="63.07"/><line class="cls-1" x1="46.05" y1="57.92" x2="162.96" y2="57.92"/><line class="cls-1" x1="38.64" y1="52.76" x2="155.55" y2="52.76"/><line class="cls-1" x1="31.23" y1="47.61" x2="148.14" y2="47.61"/><line class="cls-1" x1="23.82" y1="42.46" x2="140.73" y2="42.46"/><line class="cls-1" x1="16.41" y1="37.31" x2="133.32" y2="37.31"/><line class="cls-1" x1="9" y1="32.15" x2="125.91" y2="32.15"/><line class="cls-1" x1="99.02" y1="27" x2="165.7" y2="73.37"/><line class="cls-1" x1="79.53" y1="27" x2="146.22" y2="73.37"/><line class="cls-1" x1="60.05" y1="27" x2="126.73" y2="73.37"/><line class="cls-1" x1="40.56" y1="27" x2="107.25" y2="73.37"/><line class="cls-1" x1="21.08" y1="27" x2="87.76" y2="73.37"/><polygon class="cls-1" points="118.56 27 235.46 27 302.15 73.37 185.24 73.37 118.56 27"/><line class="cls-1" x1="177.83" y1="68.22" x2="294.74" y2="68.22"/><line class="cls-1" x1="170.42" y1="63.07" x2="287.33" y2="63.07"/><line class="cls-1" x1="163.01" y1="57.92" x2="279.92" y2="57.92"/><line class="cls-1" x1="155.6" y1="52.76" x2="272.51" y2="52.76"/><line class="cls-1" x1="148.19" y1="47.61" x2="265.1" y2="47.61"/><line class="cls-1" x1="140.78" y1="42.46" x2="257.69" y2="42.46"/><line class="cls-1" x1="133.37" y1="37.31" x2="250.28" y2="37.31"/><line class="cls-1" x1="125.97" y1="32.15" x2="242.87" y2="32.15"/><line class="cls-1" x1="215.98" y1="27" x2="282.66" y2="73.37"/><line class="cls-1" x1="196.5" y1="27" x2="263.18" y2="73.37"/><line class="cls-1" x1="177.01" y1="27" x2="243.69" y2="73.37"/><line class="cls-1" x1="157.53" y1="27" x2="224.21" y2="73.37"/><line class="cls-1" x1="138.04" y1="27" x2="204.72" y2="73.37"/><path class="cls-1" d="M72.49,27H1.6L9,32.15l7.41,5.15h0l7.4,5.16h0l7.4,5.15h0l7.41,5.15,7.4,5.16h0l7.4,5.15h0l7.4,5.15,7.41,5.15a40,40,0,0,1,6.63.91,27.7,27.7,0,0,1,5.54,2c10.1,5.21,13.17,16.71,20.83,24.38,3.07,2.3,6.91,4.6,10.74,3.07,8.79-3.6,14.87-12,21.65-19,1.36-1.42,2.75-2.78,4.19-4,1.77-1.48,3.3-3,5.6-3.78,8.18-2.27,17.62-2.44,26.67-3.48A70.78,70.78,0,0,0,182,71.15h0A39.42,39.42,0,0,0,187.72,69c-.34-.27-.7-.54-1.06-.81-2.16-1.61-4.64-3.35-7.32-5.15s-5.26-3.44-8.05-5.15-5.88-3.53-8.81-5.16c-3.49-1.94-6.92-3.7-10.07-5.15a54.75,54.75,0,0,0-9.18-3.47l-.35-.23-.64-.4-1.64-1c-3-1.93-5.66-3.71-7.76-5.16-2.27-1.55-3.87-2.71-4.55-3.25l-2.43-1.9-.49-.38-.52-.39c-2-1.54-4-3-6.13-4.38"/><path class="cls-1" d="M60.87,68.22h6.48a23.7,23.7,0,0,1,7.92,1,27.72,27.72,0,0,1,6.9,3.3C94.38,79.15,99,103.69,116.62,96c5.47-2.59,9.64-7.34,13.69-12.22,1.35-1.63,2.69-3.27,4.05-4.85,3.74-4.41,7.57-7.47,12.94-9,10-3.06,21.47-2.3,30.78-7.31"/><path class="cls-1" d="M53.46,63.07h6.48c2,0,4.51,0,7.33,0a25.84,25.84,0,0,1,9.18,1.65,32.22,32.22,0,0,1,7.82,4.36c11.65,6.21,16.25,28.45,30.82,20.78,6.07-3.19,10.54-8.39,15-13.39,1.12-1.25,2.24-2.49,3.39-3.68,8.43-12.07,25.3-8.24,36.92-16.73"/><path class="cls-1" d="M46.05,57.92h13.8c2.82,0,6,0,9.4.17a27,27,0,0,1,5.17.62,29.4,29.4,0,0,1,4.77,1.5c9.06,3.6,16,11.27,22.09,19.7,5.37,6.14,13,4.6,18.41,0,3.58-3.83,7.16-7.58,10.95-11q1.89-1.69,3.87-3.26c8.19-7.24,19.69-8.77,28.67-13.45"/><path class="cls-1" d="M38.64,52.76H61.82a33.39,33.39,0,0,1,17.29,1.92A46,46,0,0,1,84.49,57c9.89,7.53,20.63,22.87,35.2,12.14,4.31-3.45,8.41-6.69,12.62-9.51,1.41-.93,2.83-1.83,4.27-2.66A78.32,78.32,0,0,1,155.89,50"/><path class="cls-1" d="M31.23,47.61H59.7l5.62,0a42.12,42.12,0,0,1,11,1c1.78.39,3.53.86,5.27,1.41,11.26,1.53,18.16,13.8,29.66,11.5,9.21-1.54,16-7.5,23.92-11.26a33.78,33.78,0,0,1,6.19-2.31,25,25,0,0,1,6.93-.78"/><path class="cls-1" d="M23.82,42.46h40c2,0,4,.07,6,.11,2.45.59,4.89,1.15,7.3,1.66s4.81,1,7.19,1.39c18.5,5.15,39.2,6.68,56.44-2.95"/><path class="cls-1" d="M16.41,37.31h46c7.05.12,14.13.83,21.22,1.58l7.1.74c13.6,1.94,28.94,3.47,42.6-1.91"/><path class="cls-1" d="M9,32.15H67.46l6.25.06a169.85,169.85,0,0,1,19.58.8l6.48.53c8.42-.41,17.62,1.89,26.16-.87"/><path class="cls-1" d="M99,27c1.26,1.2,2.55,3,3.83,4.21,8.4,8.06,16.84,15.73,26.81,21.86,1.66.9,3.34,1.73,5,2.52s3.4,1.56,5.11,2.35c9.79,4.33,18.22,10.47,27.05,16.3"/><path class="cls-1" d="M79.53,27a77.82,77.82,0,0,1,8.16,6.67c1.26,1.17,2.48,2.38,3.68,3.6,11,15.7,22,32.09,40,36.57A51.49,51.49,0,0,0,138.43,75a79.28,79.28,0,0,0,9.44.8"/><path class="cls-1" d="M60.05,27,67,31.82A52,52,0,0,1,81.1,42.67c1.35,1.43,2.64,2.91,3.89,4.46C99,60,106.1,97.28,129.56,89.1"/><path class="cls-1" d="M109,104.16a102.46,102.46,0,0,1-5.66-8.83c-2.79-4.81-5.31-9.79-7.89-14.72a151.86,151.86,0,0,0-10-17.08,73.69,73.69,0,0,0-5.93-7.48c-.54-.61-1.09-1.21-1.66-1.8S76.71,53,76.1,52.45a59.35,59.35,0,0,0-5.41-4.7A55.68,55.68,0,0,0,64,43.32l-1.25-.86-3.44-2.39-4-2.77L48,32.15,40.56,27"/><path class="cls-1" d="M21.08,27,59.41,53.65l4.88,3.4A75,75,0,0,1,77.86,68.8q2,2.19,3.9,4.51C84.41,76.85,87,80.57,89.26,84"/><path class="cls-1" d="M118.54,27.38c2.49-.19,4.89-.29,7.19-.33s4.51,0,6.63,0c2.81,0,6,0,9.42-.06a18.77,18.77,0,0,0,4.73-.54c2.32-1,5.39-1.72,7.69-3.26,10.74-8.43,17.64-27.61,33-21.47,14.57,6.13,19.17,29.91,38.91,25.4a33.52,33.52,0,0,1,9.4.67c8.44,3.07,15.34,10.74,23.45,15.56l4.88,3.4,38.33,26.65H270.91c-3,0-6.05,0-9.21,0a18.77,18.77,0,0,0-10.1,1.91A59.33,59.33,0,0,1,222.25,82a56.75,56.75,0,0,1-7.35-.69A53.31,53.31,0,0,1,208,79.39c-4.7-1-7.77-3.31-11.6-4.85-17.64-10.73-33-23.77-52.57-30.25-1.61-.86-3.19-1.74-4.75-2.66A117.59,117.59,0,0,1,125.5,32.3C121.22,29.3,118.54,27.38,118.54,27.38Z"/><path class="cls-1" d="M178.13,62.61C192.54,60,202.51,73,214.5,77.43a28.22,28.22,0,0,0,6.38,1.76,23.1,23.1,0,0,0,6.94,0c11.51-2.3,19.94-10,31.62-10.83,3.35-.1,6.52-.1,9.52-.1h25.78"/><path class="cls-1" d="M170.47,56.05c15.17-9.88,28.21,5.46,39.43,14.11a33.18,33.18,0,0,0,4.47,2.7,22.47,22.47,0,0,0,5,1.78,14.28,14.28,0,0,0,5.36-.1c13-.76,23-11.5,37.12-11.42,1.66,0,3.25,0,4.79,0h20.67"/><path class="cls-1" d="M163.23,52.2c14.74-17.53,35.45.87,47.35,11.58,2,1.69,3.92,3.27,5.74,4.61a20.63,20.63,0,0,0,6.9.79,44.52,44.52,0,0,0,13.44-3.32c8.81-3.39,17.52-8.11,27.28-7.94h16"/><path class="cls-1" d="M156,49.92c8.22-22.16,35.83-12.19,48.82,0,2,1.55,3.94,3.14,5.75,4.7s3.5,3.11,5,4.56c1.53.79,3.84.79,6.47,1.83a31.57,31.57,0,0,0,13.48,0,42.35,42.35,0,0,0,14.56-6.42,18.5,18.5,0,0,1,10.68-1.78c2.43-.07,4.54-.07,6.28-.07h5.49"/><path class="cls-1" d="M148.35,47.15c9.68-1.75,14.29-12.48,21.19-18.62a20.72,20.72,0,0,1,6.81-4,12.48,12.48,0,0,1,6.15-.47,15.55,15.55,0,0,1,5.61,2.3c12.1,7.55,16.71,23.65,30.53,28.43a20.51,20.51,0,0,0,6.88.59c3.84-1,7.58-2.21,11.32-3.35,7.46-2.28,14.87-4.34,22.76-4.39l5.5,0"/><path class="cls-1" d="M140.82,42.67a55.9,55.9,0,0,0,6.63-.91c5.22-1.73,9.82-4,12.76-8.44a45.92,45.92,0,0,0,3.12-3.9c1.49-1.77,3-3.56,4.54-5.28a35,35,0,0,1,10.87-8.65,4.93,4.93,0,0,1,4.6,0,43.29,43.29,0,0,1,9.58,8.79c1.43,1.69,2.81,3.44,4.18,5.19,3.88,5.2,7.72,10.56,13.5,13.68a22.52,22.52,0,0,0,5.74,2.55,23.06,23.06,0,0,0,6.82.85,48.68,48.68,0,0,0,6.84.21c9.19-.33,18.81-2.51,27.68-4.29"/><path class="cls-1" d="M133.4,37.72s2.38-.22,6.46-.36a21.78,21.78,0,0,0,8-.59c15.58-6.71,24.79-38.91,42.42-22,11.51,10,18.41,26.07,36.31,25.16a68.26,68.26,0,0,0,7.82-.15,132.86,132.86,0,0,0,15.81-2.27"/><path class="cls-1" d="M126,32.66c4.45-.29,9-.29,13.79-.51a20.47,20.47,0,0,0,7.7-.58c11.33-3.81,15.93-15.31,25.14-23,4.6-3.07,10-6.13,15.33-2.3,13.81,10,19.94,31.44,39.6,27.62,2.52,0,5.08-.2,7.63-.47s5.09-.61,7.58-1"/><path class="cls-1" d="M215.79,27.34c2.83,3.49,7.43,6.56,10.91,9.76,1.91,1.52,3.86,3,5.84,4.38,9.94,7,20.78,12.87,31.34,18.83l7.41,5.16,11.37,7.9"/><path class="cls-1" d="M196.79,10.09c5,13.84,11.86,27.64,22.61,37.47,1.77,1.79,3.6,3.47,5.47,5.06s3.81,3.07,5.8,4.47a84.66,84.66,0,0,0,26.46,12.48c3.8,2.26,6.05,3.8,6.05,3.8"/><path class="cls-1" d="M178.68.56c5.43,1.9,8.5,5.73,10.8,9.57A101.28,101.28,0,0,1,198.31,28c.81,2,1.6,4,2.39,6a73.73,73.73,0,0,0,16,27.8,55.11,55.11,0,0,0,5.66,5.92,41.48,41.48,0,0,0,6.29,4.67c4.44,2.67,12.66,4.45,18.4,5"/><path class="cls-1" d="M223.85,82a35.26,35.26,0,0,1-4.46-2.74l-.69-.51a39.63,39.63,0,0,1-5.16-4.65,44.59,44.59,0,0,1-3.31-3.73,0,0,0,0,0,0,0,68.69,68.69,0,0,1-8.23-14c-1.91-4.13-3.62-8.39-5.44-12.62-.64-1.49-1.29-3-2-4.45-.91-2-1.86-4.06-2.87-6s-2.11-3.88-3.3-5.73c-.33-.55-.67-1.1-1-1.65-.82-1.28-1.71-2.55-2.66-3.78A49.13,49.13,0,0,0,180.27,17a12.1,12.1,0,0,0-1.84-1.38,11.64,11.64,0,0,0-7-1.77,17.13,17.13,0,0,0-5.22,1.21,34.37,34.37,0,0,0-7.85,4.5"/><path class="cls-1" d="M138,27s2.69,1.84,7.11,4.61a8.14,8.14,0,0,0,6,2.29,27.54,27.54,0,0,1,8.21-1.48c21.7.71,32.44,22.19,40.87,39.06,1.54,3.06,4.61,5.37,6.8,7.46"/></g></g></svg>
