<svg xmlns="http://www.w3.org/2000/svg" viewBox="0 0 77.49 77.49"><title>64</title><g id="Layer_2" data-name="Layer 2"><g id="Layer_1-2" data-name="Layer 1"><path d="M39.59,0H37.9a38.74,38.74,0,0,0,0,77.47h1.69A38.74,38.74,0,0,0,39.59,0Zm.24,73.06c-.37,0-.72,0-1.08,0s-.71,0-1.08,0A20.88,20.88,0,0,1,17.9,52.24a20.61,20.61,0,0,1,2.44-9.76,25.18,25.18,0,0,0,36.82,0,20.61,20.61,0,0,1,2.44,9.76A20.88,20.88,0,0,1,39.83,73.07ZM31.35,44.72a20.65,20.65,0,0,1-8.47-6,21,21,0,0,1,8.61-6.05,9.54,9.54,0,0,0-2.23,6.11A9.38,9.38,0,0,0,31.35,44.72ZM46,32.69a21,21,0,0,1,8.61,6.05,20.65,20.65,0,0,1-8.47,6,9.38,9.38,0,0,0,2.09-5.92A9.54,9.54,0,0,0,46,32.69ZM57.16,35a25.16,25.16,0,0,0-36.82,0,20.63,20.63,0,0,1-2.44-9.78A20.88,20.88,0,0,1,37.67,4.41l1.08,0,1.08,0A20.88,20.88,0,0,1,59.6,25.23,20.63,20.63,0,0,1,57.16,35Z"/></g></g></svg>