<svg xmlns="http://www.w3.org/2000/svg" viewBox="0 0 26.36 17.9"><defs><style>.cls-1,.cls-2{stroke:#000;stroke-miterlimit:10;}.cls-2{fill:none;}</style></defs><title>Asset 1019</title><g id="Layer_2" data-name="Layer 2"><g id="Layer_1-2" data-name="Layer 1"><path class="cls-1" d="M13.18,16.26A8.31,8.31,0,0,1,9,17.4,8.45,8.45,0,1,1,9,.5a8.31,8.31,0,0,1,4.22,1.14,8.44,8.44,0,0,0,0,14.62Z"/><path class="cls-2" d="M25.86,8.94A8.46,8.46,0,0,1,17.4,17.4a8.25,8.25,0,0,1-4.22-1.14,8.44,8.44,0,0,0,0-14.62A8.25,8.25,0,0,1,17.4.5,8.46,8.46,0,0,1,25.86,8.94Z"/></g></g></svg>