<svg xmlns="http://www.w3.org/2000/svg" viewBox="0 0 91.71 86.12"><title>Asset 1106</title><g id="Layer_2" data-name="Layer 2"><g id="Layer_1-2" data-name="Layer 1"><path d="M62.05,57.8V79.74h0v6.38l-6.61-8.68-6.62-8.67,6.62-8.68L62,51.41V57.8Z"/><path d="M60.29,58.55H74.13L64.36,40.48l18.32-9.37s4.78,8.74,6.83,12.53,3.28,6.45.91,10.46-7.23,12.27-9.47,16-4.27,9-11.47,9.12-9.62,0-9.62,0Z"/><path d="M51.6,22.56,70.45,11.34h0l5.48-3.26L71.86,18.2,67.79,28.32,57,27.07,46.11,25.83l5.49-3.26Z"/><path d="M53.15,23.68,46.06,11.79,35.53,29.44l-17.42-11s5.06-8.57,7.27-12.27S29.25.09,33.9.07,48.14,0,52.48,0s9.94-.95,13.71,5.18,4.92,8.27,4.92,8.27Z"/><path d="M25.13,48.35,5.66,38.22h0L0,35.27l10.75-1.86L21.5,31.54l4.64,9.88,4.65,9.87-5.66-2.95Z"/><path d="M25.26,46.44,18.88,58.72l20.54-.33L39.28,79s-10,.21-14.27.27-7.24-.06-9.7-4S7.76,63.15,5.51,59.45s-6-8-2.81-14.39,4.44-8.53,4.44-8.53Z"/></g></g></svg>