<svg xmlns="http://www.w3.org/2000/svg" viewBox="0 0 112.29 65.12"><defs><style>.cls-1{fill:none;stroke:#ebdbb2;stroke-miterlimit:10;stroke-width:2px;}</style></defs><title>75</title><g id="Layer_2" data-name="Layer 2"><g id="Layer_1-2" data-name="Layer 1"><path class="cls-1" d="M85.52,46.61a32.56,32.56,0,0,1-61.8-11.14,310.21,310.21,0,0,0,30.64,7A312.74,312.74,0,0,0,85.52,46.61Zm26.75-3.93c-.38,2-5.87,3.15-15,3.15-3.3,0-7.07-.14-11.25-.44H86a312.77,312.77,0,0,1-31.4-4.12,305.88,305.88,0,0,1-30.85-7.11l-.11,0C8.55,29.71-.49,25.24,0,22.44c.37-2.06,5.85-3.16,14.91-3.16,3.31,0,7.09.15,11.28.45l.12-.29c0-.1.09-.19.13-.29a.08.08,0,0,0,0,0c.09-.2.19-.41.29-.61a32.56,32.56,0,0,1,61.8,11.15c0,.23,0,.45.05.68a0,0,0,0,1,0,0c0,.1,0,.21,0,.32s0,.21,0,.32C103.73,35.4,112.78,39.87,112.27,42.68ZM88.79,31.11l-.06,0-.06,0v.19a.61.61,0,0,1,0,.14v.35c0,.23,0,.46,0,.69v.12a32.73,32.73,0,0,1-.29,4.34H87.11c-7.5,0-19.14-1.28-31.14-3.44-12.58-2.26-24.3-5.26-31.36-8l-.08,0-.14-.05a29.61,29.61,0,0,1,1.28-4.3c.08-.21.16-.42.25-.63v0l.12-.31a2.55,2.55,0,0,1,.13-.29h-.13c-5.48,0-8.38.73-8.63,2.08s1.94,2.85,6.65,4.71l.06,0c7.1,2.78,18.92,5.81,31.62,8.09,12.14,2.18,23.73,3.46,31.36,3.46h1.18c5.06-.08,7.63-.77,7.87-2.07C96.25,35.58,96.52,34,88.79,31.11ZM99,3c-2,8.59-2.76,9.54-8.3,10.71,5.19,1.16,5.63,2.11,5.07,10.7,2-8.59,2.76-9.54,8.3-10.7C98.92,12.54,98.47,11.59,99,3Zm5.1,2.44c-.9,3.82-1.22,4.24-3.69,4.76,2.31.52,2.51.94,2.26,4.76.9-3.82,1.22-4.24,3.69-4.76C104.09,9.68,103.89,9.26,104.14,5.44Zm-3,10.88c-.55,2.36-.76,2.62-2.28,2.94,1.43.32,1.55.58,1.4,2.94.55-2.36.75-2.62,2.28-2.94C101.1,18.94,101,18.68,101.13,16.32Z"/></g></g></svg>
