<svg xmlns="http://www.w3.org/2000/svg" viewBox="0 0 45.13 45.13">
    <title>Asset 1076</title>
    <g id="Layer_2" data-name="Layer 2">
        <g id="Layer_1-2" data-name="Layer 1" fill="#fbf1c7">
            <rect x="16.81" y="0.04" width="4.19" height="20.97" transform="translate(37.81 21.04) rotate(180)"/>
            <rect x="8.42" y="8.42" width="4.19" height="20.97" transform="translate(-8.39 29.43) rotate(-90)"/>
            <rect x="8.4" y="-2.25" width="4.19" height="25.51" transform="translate(-4.35 10.5) rotate(-45)"/>
            <rect x="32.51" y="8.42" width="4.19" height="20.97" transform="translate(15.7 53.51) rotate(-90)"/>
            <rect x="24.12" y="0.04" width="4.19" height="20.97"/>
            <rect x="32.53" y="-2.25" width="4.19" height="25.51" transform="translate(17.57 -21.41) rotate(45)"/>
            <rect x="24.12" y="24.13" width="4.19" height="20.97"/>
            <rect x="32.51" y="15.74" width="4.19" height="20.97" transform="translate(60.83 -8.38) rotate(90)"/>
            <rect x="32.53" y="21.87" width="4.19" height="25.51" transform="translate(83.6 34.63) rotate(135)"/>
            <rect x="8.42" y="15.74" width="4.19" height="20.97" transform="translate(36.74 15.7) rotate(90)"/>
            <rect x="16.81" y="24.13" width="4.19" height="20.97" transform="translate(37.81 69.22) rotate(180)"/>
            <rect x="8.4" y="21.87" width="4.19" height="25.51" transform="translate(-6.56 66.54) rotate(-135)"/>
        </g>
    </g>
</svg>