<?xml version="1.0" encoding="iso-8859-1"?>
<!-- Generator: Adobe Illustrator 26.2.1, SVG Export Plug-In . SVG Version: 6.00 Build 0)  -->
<svg version="1.1" id="Layer_1" xmlns="http://www.w3.org/2000/svg" xmlns:xlink="http://www.w3.org/1999/xlink" x="0px" y="0px"
	 width="800px" height="800px" viewBox="0 0 800 800" enable-background="new 0 0 800 800" xml:space="preserve">
<g fill="#fbf1c7">
	<rect x="557.306" y="585.421" width="8.485" height="4.242"/>
	<polygon points="167.003,224.815 167.003,237.542 162.76,237.542 162.76,241.784 167.003,241.784 167.003,246.027 171.245,246.027 
		171.245,224.815 	"/>
	<polygon points="247.609,432.693 247.609,436.936 251.851,436.936 251.851,432.693 256.093,432.693 256.093,428.451 
		234.881,428.451 234.881,432.693 	"/>
	<rect x="171.245" y="271.481" width="4.242" height="4.242"/>
	<polygon points="430.033,721.178 425.79,721.178 425.79,725.421 421.548,725.421 421.548,716.936 413.063,716.936 413.063,725.421 
		400.336,725.421 400.336,729.663 387.609,729.663 387.609,733.906 400.336,733.906 400.336,746.633 413.063,746.633 
		413.063,742.39 421.548,742.39 421.548,738.148 430.033,738.148 430.033,733.906 434.275,733.906 434.275,725.421 430.033,725.421 
			"/>
	<rect x="536.094" y="296.936" width="8.485" height="4.242"/>
	<polygon points="404.578,606.633 404.578,602.39 413.063,602.39 413.063,606.633 417.306,606.633 417.306,602.39 425.79,602.39 
		425.79,593.906 400.336,593.906 400.336,598.148 396.093,598.148 396.093,602.39 400.336,602.39 400.336,606.633 	"/>
	<rect x="578.518" y="309.663" width="4.242" height="4.242"/>
	<polygon points="171.245,377.542 171.245,386.027 175.487,386.027 175.487,390.269 179.73,390.269 179.73,377.542 	"/>
	<polygon points="222.154,148.451 222.154,152.693 217.912,152.693 217.912,156.936 230.639,156.936 230.639,152.693 
		234.881,152.693 234.881,139.966 239.124,139.966 239.124,135.724 230.639,135.724 230.639,139.966 226.397,139.966 
		226.397,144.209 217.912,144.209 217.912,148.451 	"/>
	<polygon points="209.427,152.693 213.669,152.693 213.669,144.209 217.912,144.209 217.912,139.966 222.154,139.966 
		222.154,135.724 226.397,135.724 226.397,127.239 234.881,127.239 234.881,118.754 230.639,118.754 230.639,122.996 
		222.154,122.996 222.154,127.239 217.912,127.239 217.912,131.481 213.669,131.481 213.669,135.724 209.427,135.724 
		209.427,148.451 205.184,148.451 205.184,165.421 200.942,165.421 200.942,169.663 209.427,169.663 	"/>
	<rect x="171.245" y="296.936" width="4.242" height="4.242"/>
	<polygon points="234.881,152.693 234.881,156.936 230.639,156.936 230.639,161.178 222.154,161.178 222.154,165.421 
		217.912,165.421 217.912,169.663 226.397,169.663 226.397,165.421 234.881,165.421 234.881,161.178 239.124,161.178 
		239.124,156.936 243.366,156.936 243.366,148.451 247.609,148.451 247.609,144.209 243.366,144.209 243.366,139.966 
		239.124,139.966 239.124,152.693 	"/>
	<polygon points="222.154,424.209 226.397,424.209 226.397,428.451 234.881,428.451 234.881,424.209 230.639,424.209 
		230.639,419.966 222.154,419.966 	"/>
	<polygon points="493.669,708.451 489.427,708.451 489.427,716.936 493.669,716.936 493.669,712.693 497.912,712.693 
		497.912,708.451 502.154,708.451 502.154,704.209 493.669,704.209 	"/>
	<polygon points="315.487,80.572 323.972,80.572 323.972,76.33 328.215,76.33 328.215,63.603 323.972,63.603 323.972,59.36 
		319.73,59.36 319.73,63.603 311.245,63.603 311.245,76.33 315.487,76.33 	"/>
	<polygon points="247.609,131.481 251.851,131.481 251.851,127.239 243.366,127.239 243.366,139.966 247.609,139.966 	"/>
	<polygon points="357.912,67.845 366.397,67.845 366.397,72.087 374.881,72.087 374.881,67.845 379.124,67.845 379.124,72.087 
		383.366,72.087 383.366,67.845 396.093,67.845 396.093,63.603 400.336,63.603 400.336,59.36 396.093,59.36 396.093,55.118 
		391.851,55.118 391.851,50.875 383.366,50.875 383.366,55.118 379.124,55.118 379.124,59.36 387.609,59.36 387.609,63.603 
		366.397,63.603 366.397,59.36 374.881,59.36 374.881,55.118 379.124,55.118 379.124,50.875 370.639,50.875 370.639,55.118 
		366.397,55.118 366.397,50.875 362.154,50.875 362.154,55.118 357.912,55.118 357.912,59.36 353.669,59.36 353.669,63.603 
		357.912,63.603 	"/>
	<rect x="226.397" y="233.3" width="4.242" height="4.242"/>
	<polygon points="239.124,114.512 247.609,114.512 247.609,110.269 251.851,110.269 251.851,106.027 256.093,106.027 
		256.093,101.784 260.336,101.784 260.336,93.3 256.093,93.3 256.093,97.542 251.851,97.542 251.851,101.784 243.366,101.784 
		243.366,106.027 239.124,106.027 239.124,110.269 234.881,110.269 234.881,118.754 239.124,118.754 	"/>
	<polygon points="217.912,207.845 217.912,212.087 226.397,212.087 226.397,190.875 222.154,190.875 222.154,207.845 	"/>
	<rect x="336.7" y="296.936" width="16.97" height="4.242"/>
	<path d="M430.033,76.33h8.485v4.242h4.242V76.33h8.485v4.242h4.242V76.33h4.242V63.603h-12.727V59.36h-4.242v4.242h-4.242V59.36
		h-4.242v4.242h-8.485v8.485h4.242V76.33z M438.518,67.845h4.242v4.242h-4.242V67.845z"/>
	<rect x="294.275" y="80.572" width="4.242" height="16.97"/>
	<polygon points="514.881,122.996 523.366,122.996 523.366,127.239 531.851,127.239 531.851,122.996 536.094,122.996 
		536.094,118.754 531.851,118.754 531.851,110.269 523.366,110.269 523.366,106.027 514.881,106.027 514.881,110.269 
		510.639,110.269 510.639,118.754 514.881,118.754 	"/>
	<polygon points="502.154,292.693 497.912,292.693 497.912,296.936 502.154,296.936 502.154,301.178 531.851,301.178 
		531.851,296.936 523.366,296.936 523.366,292.693 519.124,292.693 519.124,296.936 514.881,296.936 514.881,292.693 
		506.397,292.693 506.397,288.451 502.154,288.451 	"/>
	<polygon points="476.7,275.724 506.397,275.724 506.397,279.966 510.639,279.966 510.639,284.209 506.397,284.209 506.397,288.451 
		514.881,288.451 514.881,275.724 510.639,275.724 510.639,271.481 472.457,271.481 472.457,279.966 476.7,279.966 	"/>
	<polygon points="519.124,93.3 523.366,93.3 523.366,97.542 527.609,97.542 527.609,93.3 531.851,93.3 531.851,84.815 
		527.609,84.815 527.609,80.572 514.881,80.572 514.881,89.057 519.124,89.057 	"/>
	<polygon points="408.821,712.693 408.821,708.451 400.336,708.451 400.336,704.209 396.093,704.209 396.093,712.693 
		404.578,712.693 404.578,716.936 413.063,716.936 413.063,712.693 	"/>
	<polygon points="264.578,97.542 268.821,97.542 268.821,106.027 290.033,106.027 290.033,101.784 294.275,101.784 294.275,97.542 
		285.79,97.542 285.79,101.784 281.548,101.784 281.548,97.542 277.306,97.542 277.306,80.572 281.548,80.572 281.548,76.33 
		285.79,76.33 285.79,80.572 294.275,80.572 294.275,72.087 277.306,72.087 277.306,76.33 273.063,76.33 273.063,80.572 
		268.821,80.572 268.821,84.815 264.578,84.815 264.578,89.057 260.336,89.057 260.336,93.3 264.578,93.3 	"/>
	<polygon points="391.851,716.936 391.851,721.178 396.093,721.178 396.093,725.421 400.336,725.421 400.336,716.936 	"/>
	<rect x="217.912" y="262.996" width="4.242" height="4.242"/>
	<polygon points="561.548,568.451 557.306,568.451 557.306,581.178 565.79,581.178 565.79,576.936 561.548,576.936 561.548,572.693 
		565.79,572.693 565.79,555.724 561.548,555.724 	"/>
	<polygon points="553.063,492.087 553.063,496.33 561.548,496.33 561.548,492.087 557.306,492.087 557.306,487.845 548.821,487.845 
		548.821,492.087 	"/>
	<polygon points="565.79,555.724 570.033,555.724 570.033,551.481 574.275,551.481 574.275,547.239 565.79,547.239 	"/>
	<polygon points="527.609,500.572 531.851,500.572 531.851,487.845 527.609,487.845 527.609,496.33 523.366,496.33 523.366,504.815 
		527.609,504.815 	"/>
	<rect x="574.275" y="542.997" width="4.242" height="4.242"/>
	<rect x="587.003" y="246.027" width="4.242" height="4.242"/>
	<rect x="497.912" y="568.451" width="4.242" height="4.242"/>
	<rect x="497.912" y="559.966" width="4.242" height="4.242"/>
	<rect x="285.79" y="424.209" width="4.242" height="8.485"/>
	<rect x="531.851" y="483.603" width="16.97" height="4.242"/>
	<polygon points="587.003,534.512 582.76,534.512 582.76,538.754 578.518,538.754 578.518,542.997 587.003,542.997 587.003,538.754 
		591.245,538.754 591.245,530.269 587.003,530.269 	"/>
	<polygon points="502.154,526.027 502.154,517.542 497.912,517.542 497.912,521.784 493.669,521.784 493.669,534.512 
		489.427,534.512 489.427,538.754 493.669,538.754 493.669,547.239 497.912,547.239 497.912,526.027 	"/>
	<rect x="502.154" y="564.209" width="4.242" height="4.242"/>
	<rect x="497.912" y="576.936" width="4.242" height="4.242"/>
	<rect x="502.154" y="572.693" width="4.242" height="4.242"/>
	<rect x="502.154" y="555.724" width="4.242" height="4.242"/>
	<polygon points="519.124,657.542 519.124,661.784 523.366,661.784 523.366,653.299 514.881,653.299 514.881,657.542 	"/>
	<rect x="497.912" y="547.239" width="4.242" height="8.485"/>
	<rect x="502.154" y="513.299" width="8.485" height="4.242"/>
	<polygon points="502.154,674.512 502.154,682.997 506.397,682.997 506.397,678.754 510.639,678.754 510.639,674.512 	"/>
	<polygon points="514.881,678.754 510.639,678.754 510.639,682.997 523.366,682.997 523.366,674.512 527.609,674.512 
		527.609,670.269 523.366,670.269 523.366,666.027 519.124,666.027 519.124,661.784 514.881,661.784 	"/>
	<polygon points="523.366,504.815 519.124,504.815 519.124,509.057 510.639,509.057 510.639,513.299 523.366,513.299 	"/>
	<polygon points="548.821,610.875 548.821,623.603 540.336,623.603 540.336,644.815 544.578,644.815 544.578,627.845 
		553.063,627.845 553.063,615.118 557.306,615.118 557.306,598.148 553.063,598.148 553.063,610.875 	"/>
	<rect x="523.366" y="649.057" width="4.242" height="4.242"/>
	<polygon points="383.366,627.845 379.124,627.845 379.124,623.603 374.881,623.603 374.881,632.087 383.366,632.087 	"/>
	<polygon points="531.851,653.299 536.094,653.299 536.094,649.057 540.336,649.057 540.336,644.815 531.851,644.815 	"/>
	<polygon points="323.972,589.663 323.972,585.421 328.215,585.421 328.215,581.178 323.972,581.178 323.972,576.936 
		319.73,576.936 319.73,581.178 311.245,581.178 311.245,589.663 	"/>
	<rect x="332.457" y="598.148" width="4.242" height="4.242"/>
	<rect x="281.548" y="479.36" width="4.242" height="4.242"/>
	<rect x="557.306" y="593.906" width="4.242" height="4.242"/>
	<rect x="243.366" y="610.875" width="4.242" height="4.242"/>
	<polygon points="349.427,585.421 349.427,598.148 340.942,598.148 340.942,606.633 345.184,606.633 345.184,602.39 353.669,602.39 
		353.669,593.906 362.154,593.906 362.154,598.148 374.881,598.148 374.881,589.663 379.124,589.663 379.124,585.421 
		366.397,585.421 366.397,581.178 362.154,581.178 362.154,589.663 357.912,589.663 357.912,585.421 353.669,585.421 
		353.669,581.178 340.942,581.178 340.942,585.421 	"/>
	<polygon points="247.609,615.118 247.609,619.36 243.366,619.36 243.366,623.603 247.609,623.603 247.609,632.087 251.851,632.087 
		251.851,615.118 	"/>
	<rect x="391.851" y="483.603" width="8.485" height="4.242"/>
	<polygon points="497.912,632.087 502.154,632.087 502.154,627.845 510.639,627.845 510.639,623.603 514.881,623.603 
		514.881,615.118 519.124,615.118 519.124,598.148 506.397,598.148 506.397,589.663 497.912,589.663 497.912,593.906 
		502.154,593.906 502.154,602.39 506.397,602.39 506.397,606.633 514.881,606.633 514.881,610.875 510.639,610.875 510.639,619.36 
		506.397,619.36 506.397,623.603 497.912,623.603 497.912,627.845 493.669,627.845 493.669,640.572 497.912,640.572 	"/>
	<rect x="493.669" y="644.815" width="4.242" height="4.242"/>
	<polygon points="553.063,521.784 557.306,521.784 557.306,517.542 540.336,517.542 540.336,521.784 544.578,521.784 
		544.578,530.269 553.063,530.269 	"/>
	<rect x="489.427" y="640.572" width="4.242" height="4.242"/>
	<path d="M578.518,500.572v4.242h-4.242v4.242h-8.485v-4.242h-8.485v-4.242h-4.242v-4.242h-8.485v-4.242h-4.242v4.242h-4.242v4.242
		h-4.242v4.242h-4.242v8.485h-4.242v4.242h-8.485v4.242h-8.485v4.242h-4.242v21.212h4.242v4.242h4.242v8.485h-4.242v4.242h4.242
		v4.242h-4.242v4.242h4.242v4.242h-4.242v4.242h4.242v12.727h12.727v4.242h4.242v8.485h-4.242v12.727h-4.242v8.485h-4.242v4.242
		h-8.485v4.242h-4.242v12.727h-4.242v8.485h4.242v12.727h8.485v-16.97h4.242v-4.242h4.242v-4.242h12.727v-4.242h4.242v-12.727
		h-4.242v-8.485h-4.242v-4.242h4.242v-8.485h12.727v-4.242h4.242v-4.242h4.242v-12.727h4.242v-4.242h-4.242v-12.727h4.242v-12.727
		h4.242v-4.242h-4.242v-4.242h8.485v-4.242h4.242v-4.242h4.242v-4.242h8.485v-4.242h4.242v-8.485h8.485v4.242h-4.242v4.242h8.485
		v-12.727h4.242v-4.242h-8.485v4.242h-4.242v-16.97h-4.242v-4.242h-4.242v4.242H578.518z M561.548,530.269h-4.242v4.242h-12.727
		v-4.242h-4.242v-8.485h-4.242v-4.242h4.242v-4.242h4.242v-4.242h8.485v4.242h4.242v4.242h4.242V530.269z"/>
	<rect x="502.154" y="581.178" width="4.242" height="4.242"/>
	<polygon points="497.912,670.269 497.912,666.027 489.427,666.027 489.427,670.269 493.669,670.269 493.669,674.512 
		502.154,674.512 502.154,670.269 	"/>
	<polygon points="599.73,492.087 595.487,492.087 595.487,487.845 599.73,487.845 599.73,483.603 595.487,483.603 595.487,479.36 
		599.73,479.36 599.73,470.875 595.487,470.875 595.487,458.148 591.245,458.148 591.245,462.39 582.76,462.39 582.76,466.633 
		591.245,466.633 591.245,479.36 582.76,479.36 582.76,466.633 578.518,466.633 578.518,470.875 574.275,470.875 574.275,479.36 
		578.518,479.36 578.518,483.603 582.76,483.603 582.76,487.845 578.518,487.845 578.518,492.087 574.275,492.087 574.275,496.33 
		561.548,496.33 561.548,500.572 570.033,500.572 570.033,504.815 574.275,504.815 574.275,500.572 578.518,500.572 578.518,496.33 
		582.76,496.33 582.76,492.087 591.245,492.087 591.245,496.33 595.487,496.33 595.487,509.057 603.972,509.057 603.972,504.815 
		599.73,504.815 	"/>
	<rect x="489.427" y="649.057" width="4.242" height="8.485"/>
	<rect x="493.669" y="657.542" width="4.242" height="4.242"/>
	<polygon points="179.73,356.33 179.73,352.087 175.487,352.087 175.487,326.633 171.245,326.633 171.245,360.572 175.487,360.572 
		175.487,356.33 	"/>
	<polygon points="366.397,632.087 370.639,632.087 370.639,623.603 362.154,623.603 362.154,627.845 366.397,627.845 	"/>
	<rect x="357.912" y="627.845" width="4.242" height="4.242"/>
	<rect x="332.457" y="619.36" width="4.242" height="4.242"/>
	<rect x="336.7" y="623.603" width="21.212" height="4.242"/>
	<polygon points="396.093,657.542 396.093,649.057 391.851,649.057 391.851,644.815 387.609,644.815 387.609,657.542 	"/>
	<rect x="383.366" y="632.087" width="4.242" height="12.727"/>
	<polygon points="345.184,509.057 340.942,509.057 340.942,530.269 345.184,530.269 345.184,513.299 349.427,513.299 
		349.427,504.815 345.184,504.815 	"/>
	<polygon points="315.487,695.724 323.972,695.724 323.972,691.481 328.215,691.481 328.215,670.269 319.73,670.269 319.73,666.027 
		311.245,666.027 311.245,657.542 315.487,657.542 315.487,649.057 311.245,649.057 311.245,644.815 307.003,644.815 
		307.003,670.269 315.487,670.269 315.487,674.512 323.972,674.512 323.972,687.239 311.245,687.239 311.245,682.997 
		307.003,682.997 307.003,678.754 302.76,678.754 302.76,687.239 307.003,687.239 307.003,691.481 315.487,691.481 	"/>
	<rect x="290.033" y="555.724" width="16.97" height="4.242"/>
	<polygon points="391.851,678.754 391.851,687.239 396.093,687.239 396.093,682.997 400.336,682.997 400.336,670.269 
		404.578,670.269 404.578,666.027 400.336,666.027 400.336,657.542 396.093,657.542 396.093,678.754 	"/>
	<rect x="298.518" y="674.512" width="4.242" height="4.242"/>
	<rect x="294.275" y="661.784" width="4.242" height="12.727"/>
	<polygon points="298.518,564.209 285.79,564.209 285.79,568.451 290.033,568.451 290.033,572.693 298.518,572.693 	"/>
	<polygon points="311.245,564.209 311.245,572.693 298.518,572.693 298.518,589.663 294.275,589.663 294.275,602.39 290.033,602.39 
		290.033,606.633 281.548,606.633 281.548,615.118 285.79,615.118 285.79,627.845 290.033,627.845 290.033,632.087 285.79,632.087 
		285.79,636.33 290.033,636.33 290.033,657.542 298.518,657.542 298.518,653.299 294.275,653.299 294.275,636.33 298.518,636.33 
		298.518,644.815 307.003,644.815 307.003,636.33 302.76,636.33 302.76,632.087 298.518,632.087 298.518,610.875 294.275,610.875 
		294.275,606.633 298.518,606.633 298.518,602.39 307.003,602.39 307.003,606.633 315.487,606.633 315.487,610.875 319.73,610.875 
		319.73,615.118 328.215,615.118 328.215,619.36 332.457,619.36 332.457,610.875 323.972,610.875 323.972,606.633 319.73,606.633 
		319.73,598.148 323.972,598.148 323.972,602.39 328.215,602.39 328.215,598.148 332.457,598.148 332.457,593.906 315.487,593.906 
		315.487,598.148 311.245,598.148 311.245,593.906 307.003,593.906 307.003,589.663 302.76,589.663 302.76,581.178 311.245,581.178 
		311.245,576.936 315.487,576.936 315.487,568.451 319.73,568.451 319.73,559.966 323.972,559.966 323.972,564.209 328.215,564.209 
		328.215,572.693 332.457,572.693 332.457,581.178 340.942,581.178 340.942,576.936 336.7,576.936 336.7,572.693 340.942,572.693 
		340.942,568.451 349.427,568.451 349.427,555.724 336.7,555.724 336.7,559.966 332.457,559.966 332.457,555.724 315.487,555.724 
		315.487,564.209 	"/>
	<polygon points="222.154,466.633 222.154,470.875 226.397,470.875 226.397,462.39 217.912,462.39 217.912,466.633 	"/>
	<polygon points="205.184,479.36 200.942,479.36 200.942,475.118 205.184,475.118 205.184,462.39 217.912,462.39 217.912,458.148 
		200.942,458.148 200.942,466.633 183.972,466.633 183.972,470.875 179.73,470.875 179.73,483.603 183.972,483.603 183.972,479.36 
		188.215,479.36 188.215,483.603 192.457,483.603 192.457,479.36 196.7,479.36 196.7,487.845 200.942,487.845 200.942,492.087 
		205.184,492.087 	"/>
	<polygon points="230.639,475.118 230.639,479.36 239.124,479.36 239.124,475.118 234.881,475.118 234.881,470.875 226.397,470.875 
		226.397,475.118 	"/>
	<polygon points="200.942,496.33 200.942,492.087 196.7,492.087 196.7,504.815 200.942,504.815 200.942,513.299 205.184,513.299 
		205.184,496.33 	"/>
	<polygon points="243.366,483.603 243.366,487.845 251.851,487.845 251.851,483.603 247.609,483.603 247.609,479.36 239.124,479.36 
		239.124,483.603 	"/>
	<polygon points="256.093,492.087 256.093,496.33 260.336,496.33 260.336,492.087 273.063,492.087 273.063,487.845 281.548,487.845 
		281.548,483.603 268.821,483.603 268.821,487.845 251.851,487.845 251.851,492.087 	"/>
	<polygon points="387.609,691.481 383.366,691.481 383.366,712.693 391.851,712.693 391.851,704.209 387.609,704.209 
		387.609,695.724 391.851,695.724 391.851,687.239 387.609,687.239 	"/>
	<polygon points="311.245,716.936 311.245,712.693 307.003,712.693 307.003,708.451 294.275,708.451 294.275,704.209 
		285.79,704.209 285.79,695.724 281.548,695.724 281.548,687.239 277.306,687.239 277.306,682.997 273.063,682.997 273.063,691.481 
		277.306,691.481 277.306,699.966 281.548,699.966 281.548,708.451 290.033,708.451 290.033,712.693 294.275,712.693 
		294.275,716.936 307.003,716.936 307.003,721.178 315.487,721.178 315.487,716.936 	"/>
	<rect x="315.487" y="721.178" width="8.485" height="4.242"/>
	<polygon points="362.154,729.663 362.154,733.906 357.912,733.906 357.912,742.39 345.184,742.39 345.184,738.148 349.427,738.148 
		349.427,733.906 345.184,733.906 345.184,729.663 340.942,729.663 340.942,725.421 332.457,725.421 332.457,721.178 
		328.215,721.178 328.215,725.421 323.972,725.421 323.972,729.663 336.7,729.663 336.7,742.39 340.942,742.39 340.942,746.633 
		349.427,746.633 349.427,750.875 353.669,750.875 353.669,746.633 362.154,746.633 362.154,742.39 366.397,742.39 366.397,733.906 
		383.366,733.906 383.366,725.421 379.124,725.421 379.124,729.663 	"/>
	<rect x="251.851" y="632.087" width="4.242" height="8.485"/>
	<rect x="268.821" y="674.512" width="4.242" height="8.485"/>
	<rect x="587.003" y="229.057" width="4.242" height="4.242"/>
	<rect x="633.669" y="432.693" width="4.242" height="8.485"/>
	<polygon points="633.669,445.421 633.669,449.663 629.427,449.663 629.427,453.906 616.7,453.906 616.7,449.663 608.215,449.663 
		608.215,453.906 612.457,453.906 612.457,458.148 633.669,458.148 633.669,453.906 637.912,453.906 637.912,449.663 
		642.154,449.663 642.154,441.178 637.912,441.178 637.912,445.421 	"/>
	<polygon points="595.487,441.178 595.487,445.421 603.972,445.421 603.972,449.663 608.215,449.663 608.215,441.178 	"/>
	<rect x="629.427" y="428.451" width="4.242" height="4.242"/>
	<rect x="285.79" y="483.603" width="12.727" height="4.242"/>
	<polygon points="570.033,436.936 570.033,445.421 574.275,445.421 574.275,441.178 582.76,441.178 582.76,445.421 587.003,445.421 
		587.003,441.178 595.487,441.178 595.487,436.936 	"/>
	<polygon points="565.79,432.693 565.79,424.209 557.306,424.209 557.306,432.693 548.821,432.693 548.821,441.178 553.063,441.178 
		553.063,436.936 570.033,436.936 570.033,432.693 	"/>
	<polygon points="646.396,233.3 646.396,229.057 642.154,229.057 642.154,237.542 646.396,237.542 646.396,288.451 642.154,288.451 
		642.154,296.936 637.912,296.936 637.912,356.33 633.669,356.33 633.669,360.572 629.427,360.572 629.427,411.481 633.669,411.481 
		633.669,369.057 637.912,369.057 637.912,360.572 642.154,360.572 642.154,318.148 646.396,318.148 646.396,313.906 
		642.154,313.906 642.154,301.178 646.396,301.178 646.396,292.693 650.639,292.693 650.639,233.3 	"/>
	<polygon points="260.336,122.996 256.093,122.996 256.093,127.239 264.578,127.239 264.578,118.754 260.336,118.754 	"/>
	<polygon points="625.184,424.209 620.942,424.209 620.942,428.451 629.427,428.451 629.427,411.481 625.184,411.481 	"/>
	<polygon points="264.578,118.754 268.821,118.754 268.821,114.512 273.063,114.512 273.063,110.269 264.578,110.269 	"/>
	<rect x="260.336" y="428.451" width="21.212" height="4.242"/>
	<path d="M553.063,428.451v-4.242h4.242v-12.727h12.727v16.97h4.242v4.242h25.455v4.242h8.485v4.242h4.242v4.242h8.485v4.242h8.485
		v-12.727h-4.242v-4.242h-4.242v-4.242H616.7v-8.485h4.242v-8.485h4.242v-29.697h-4.242v-4.242h4.242V373.3h-4.242v-8.485H616.7
		v-8.485h-4.242v-4.242h-4.242v-16.97h-4.242v-16.97h4.242v-4.242h12.727v4.242h12.727v-8.485h-4.242v-8.485h4.242v-8.485h4.242
		v-4.242h4.242v-8.485h-4.242v-4.242h-8.485v-4.242h-4.242v-4.242h-4.242v-8.485h4.242v-4.242h-4.242v-16.97H616.7v-12.727h4.242
		v-21.212H616.7v-4.242h-4.242v-8.485H599.73v-4.242h-4.242v-4.242h-4.242v-4.242h-4.242v-4.242h4.242v-4.242h-4.242v-4.242h-4.242
		v-4.242h-4.242v-8.485h-8.485v-8.485h-4.242v-4.242h-8.485v-4.242h-8.485v4.242h4.242v4.242h4.242v4.242h4.242v8.485h4.242v8.485
		h4.242v4.242h4.242v4.242h8.485v8.485h4.242v8.485h4.242v4.242h4.242v12.727h4.242v12.727h-4.242v4.242h4.242v4.242h-4.242v4.242
		h4.242v21.212h-4.242v4.242h4.242v4.242h-4.242v8.485h-4.242v8.485h-4.242v12.727h-4.242v12.727h4.242v8.485h4.242v4.242h-12.727
		v12.727h4.242v-8.485h4.242v16.97h-16.97v-4.242h-8.485v-8.485h-4.242v-8.485h-4.242v-4.242h-4.242v-4.242h-12.727v-4.242h-42.424
		v-16.97h4.242v-4.242h-4.242v-4.242h-8.485v4.242H476.7v4.242h-4.242v4.242h4.242v4.242h-4.242v8.485h-16.97v4.242h-8.485v4.242
		h-8.485v8.485h-4.242v8.485h-4.242v16.97h-4.242v-16.97h-4.242v12.727h-4.242v8.485h12.727v16.97h-4.242v4.242h4.242v4.242h4.242
		v8.485h4.242v4.242h-8.485v4.242h-4.242v-4.242h-8.485v-8.485h-4.242V373.3h-4.242v-4.242h-16.97v-4.242h-4.242v-4.242h-8.485
		v4.242h-4.242v-4.242h-4.242v-12.727h-4.242v-12.727h-8.485v-8.485h-4.242v-8.485h4.242v-12.727h-8.485v4.242h-4.242v-4.242h-4.242
		v4.242h-8.485v-12.727h-4.242v-4.242h-12.727v4.242h8.485v4.242h4.242v4.242h-4.242v-4.242h-12.727v-4.242h-4.242v4.242h-4.242
		v-4.242h-4.242v4.242h-4.242v-8.485h21.212v-4.242h-46.667v4.242h21.212v8.485h-4.242v-4.242h-8.485v4.242h-4.242v-4.242h-4.242
		v4.242h-4.242v4.242h-12.727v4.242h-8.485v4.242h-4.242v8.485h-8.485v4.242h-12.727v-4.242h-4.242v-12.727h-4.242v-8.485h4.242
		v-4.242h-4.242v-4.242h4.242v-4.242h-4.242v-16.97h4.242v12.727h4.242v-8.485h4.242v-4.242h-4.242v-4.242h-8.485v-8.485h4.242
		v-4.242h4.242v4.242h4.242v-8.485h-4.242v-8.485h8.485v-4.242h-8.485V233.3h-4.242v-4.242h-4.242v-4.242h-4.242v-8.485h4.242
		v-4.242h4.242v-8.485h4.242v-8.485h-4.242v-8.485h4.242v4.242h4.242v-16.97h-4.242v8.485h-8.485v-8.485h-4.242v8.485h-4.242v4.242
		H196.7v12.727h-4.242v8.485h-4.242v8.485h-4.242v8.485h-8.485v21.212h4.242v12.727h4.242v12.727h-4.242v4.242h4.242v33.939h-4.242
		v4.242h4.242v16.97h-4.242v21.212h4.242v4.242h-4.242v4.242h4.242v4.242h-4.242v-4.242h-4.242v4.242h-4.242v4.242h12.727v21.212
		h-4.242v4.242h4.242v4.242h-4.242v21.212h4.242v4.242h-4.242v4.242h4.242v12.727h4.242v4.242h4.242v-4.242h8.485v-8.485H196.7
		v-4.242h4.242v-29.697h4.242v-4.242h8.485v4.242h4.242v4.242h8.485v12.727h4.242v4.242h8.485v4.242h33.939v-4.242h4.242v4.242
		h8.485v-4.242h4.242v4.242h12.727v4.242h8.485v8.485h8.485v4.242h4.242v4.242h4.242v8.485h4.242v33.939h-4.242v4.242h4.242v4.242
		h-4.242v8.485h4.242v4.242h-4.242v4.242h-4.242v-4.242h-12.727v-4.242h-4.242v-4.242h-4.242v-4.242h-4.242v-4.242h-4.242v4.242
		h-4.242v-4.242h-16.97v4.242h-4.242v4.242h4.242v4.242h4.242v8.485h4.242v4.242h-4.242v8.485h-12.727v-12.727h-4.242v-4.242h4.242
		v-8.485h-8.485v-4.242h-8.485v-4.242h-4.242v4.242h-4.242v4.242h4.242v8.485h-4.242v4.242h-8.485v-8.485h-4.242v-4.242h4.242
		v-4.242h4.242v-4.242h4.242v-4.242h-4.242v-4.242h-4.242v-4.242h-8.485v-8.485h-12.727v38.182h4.242v4.242h8.485v4.242h8.485v4.242
		h4.242v4.242h4.242v8.485h4.242v21.212h4.242v8.485h4.242v4.242h-4.242v16.97h-4.242v-21.212h-4.242v-25.455h-4.242v-8.485h-4.242
		v-4.242h-4.242v-4.242h-4.242v-4.242h-8.485v-4.242h-8.485v4.242h4.242v4.242h8.485v4.242h4.242v4.242h4.242v4.242h4.242v8.485
		h4.242v4.242h-4.242v4.242h4.242v4.242h-4.242v8.485h4.242v4.242h4.242v16.97h-4.242v4.242h4.242v8.485h4.242v-8.485h4.242v4.242
		h4.242v8.485h-4.242v-4.242h-4.242v8.485h12.727v4.242h-4.242v4.242h4.242v12.727h4.242v12.727h4.242v12.727h4.242v8.485h4.242
		v4.242h4.242v12.727h4.242v4.242h8.485v8.485h4.242v4.242h-4.242v4.242h12.727v4.242h8.485v8.485h8.485v4.242h25.455v4.242h4.242
		v4.242h29.697v-4.242h4.242v-4.242h-4.242v-8.485h-4.242v-4.242h4.242v-4.242h-4.242v-4.242h4.242v-4.242h4.242v-8.485h4.242
		v-4.242h4.242v-16.97h-4.242v-4.242h-4.242v-8.485h-4.242V636.33h-4.242v-4.242h-4.242v4.242h-4.242v-4.242h-4.242v4.242h-4.242
		v-4.242h-25.455v-8.485h-8.485v-4.242h-4.242v-4.242h-8.485v-4.242h-8.485v12.727h4.242v12.727h4.242v4.242h4.242v4.242h8.485
		v4.242h4.242v4.242h-4.242v4.242h-4.242v4.242h4.242v4.242h4.242v-4.242h4.242v4.242h4.242v8.485h-4.242v21.212h-4.242v4.242
		h-16.97v-4.242h-4.242v-4.242h-4.242v-4.242h-4.242v-4.242h-4.242v-4.242h-4.242v-21.212h-4.242v-12.727h-4.242v-4.242h4.242
		v-4.242h-4.242v-21.212h-4.242V602.39h4.242v-4.242h8.485v-16.97h4.242v-4.242h-4.242v-4.242h-8.485v-4.242h-4.242v-4.242h-8.485
		v-4.242h8.485v4.242h8.485v-4.242h-4.242v-4.242h8.485v-4.242h-4.242v-4.242h-8.485v8.485h-8.485v-4.242h4.242v-8.485h4.242v-4.242
		h8.485v8.485h12.727v4.242h4.242v-4.242h4.242v-4.242h4.242v8.485h-4.242v4.242h8.485v-8.485h16.97v-4.242h8.485v-12.727H336.7
		v8.485h-12.727v4.242h-8.485v-4.242h4.242v-4.242h12.727v-8.485h4.242v-4.242h-4.242v-4.242h4.242v-8.485h4.242v-4.242h4.242
		v-8.485h8.485v-4.242h4.242v-4.242h25.455v-4.242h8.485v-4.242h4.242v-4.242h4.242v4.242h4.242v-4.242h4.242v4.242h8.485v4.242
		h4.242v4.242h4.242v-4.242h4.242v-4.242h8.485v-16.97h4.242v-4.242h-4.242v-4.242h4.242v-29.697h4.242v-4.242h12.727v4.242h8.485
		v4.242h12.727v4.242h8.485v4.242h4.242v4.242h12.727v4.242h4.242v4.242h8.485v-4.242h12.727v-4.242h4.242v-4.242h8.485v-4.242
		h4.242v-4.242H553.063z M595.487,419.966h-4.242v4.242h-4.242v-4.242h-4.242v-8.485h4.242v-4.242h4.242v4.242h4.242V419.966z
		 M570.033,386.027h4.242v-4.242h4.242v-12.727h8.485v-4.242h4.242v4.242h4.242v8.485h4.242v4.242h-4.242v12.727h-4.242v4.242
		h-4.242v4.242h-16.97V386.027z M268.821,364.815h-4.242v8.485h-8.485v-4.242h-8.485v-25.455h12.727v8.485h4.242v8.485h4.242
		V364.815z M340.942,682.997h4.242v-4.242h4.242v-4.242h4.242v-12.727h-4.242v-4.242h4.242v-4.242h8.485v4.242h8.485v12.727h-4.242
		v12.727h-4.242v8.485h-4.242v4.242h-4.242v-4.242h-4.242v4.242h-4.242v-4.242h-4.242V682.997z M506.397,402.996h-4.242v4.242
		h-4.242v-4.242h-4.242v-4.242h4.242v-4.242h8.485V402.996z"/>
	<rect x="357.912" y="551.481" width="4.242" height="8.485"/>
	<polygon points="434.275,487.845 430.033,487.845 430.033,492.087 438.518,492.087 438.518,483.603 434.275,483.603 	"/>
	<polygon points="408.821,483.603 408.821,479.36 404.578,479.36 404.578,487.845 413.063,487.845 413.063,483.603 	"/>
	<polygon points="421.548,487.845 413.063,487.845 413.063,492.087 417.306,492.087 417.306,496.33 430.033,496.33 430.033,492.087 
		421.548,492.087 	"/>
	<rect x="349.427" y="500.572" width="4.242" height="4.242"/>
	<rect x="353.669" y="496.33" width="8.485" height="4.242"/>
	<polygon points="383.366,492.087 362.154,492.087 362.154,496.33 387.609,496.33 387.609,492.087 391.851,492.087 391.851,487.845 
		383.366,487.845 	"/>
	<polygon points="442.76,479.36 438.518,479.36 438.518,483.603 447.003,483.603 447.003,462.39 442.76,462.39 	"/>
	<polygon points="455.487,428.451 455.487,424.209 451.245,424.209 451.245,432.693 468.215,432.693 468.215,428.451 	"/>
	<polygon points="523.366,449.663 523.366,453.906 506.397,453.906 506.397,449.663 502.154,449.663 502.154,445.421 
		489.427,445.421 489.427,449.663 497.912,449.663 497.912,453.906 502.154,453.906 502.154,458.148 527.609,458.148 
		527.609,453.906 536.094,453.906 536.094,449.663 544.578,449.663 544.578,441.178 540.336,441.178 540.336,445.421 
		531.851,445.421 531.851,449.663 	"/>
	<polygon points="587.003,394.512 587.003,390.269 591.245,390.269 591.245,377.542 587.003,377.542 587.003,373.3 582.76,373.3 
		582.76,381.784 578.518,381.784 578.518,394.512 	"/>
	<polygon points="447.003,453.906 442.76,453.906 442.76,458.148 447.003,458.148 447.003,462.39 451.245,462.39 451.245,432.693 
		447.003,432.693 	"/>
	<rect x="256.093" y="356.33" width="4.242" height="8.485"/>
	<polygon points="485.184,441.178 485.184,436.936 476.7,436.936 476.7,432.693 468.215,432.693 468.215,441.178 480.942,441.178 
		480.942,445.421 489.427,445.421 489.427,441.178 	"/>
	<polygon points="264.578,661.784 264.578,653.299 260.336,653.299 260.336,640.572 256.093,640.572 256.093,644.815 
		251.851,644.815 251.851,649.057 256.093,649.057 256.093,657.542 260.336,657.542 260.336,666.027 264.578,666.027 
		264.578,674.512 268.821,674.512 268.821,661.784 	"/>
	<rect x="578.518" y="190.875" width="4.242" height="4.242"/>
	<polygon points="595.487,233.3 591.245,233.3 591.245,237.542 587.003,237.542 587.003,241.784 591.245,241.784 591.245,246.027 
		595.487,246.027 	"/>
	<rect x="591.245" y="216.33" width="4.242" height="4.242"/>
	<polygon points="595.487,212.087 595.487,207.845 591.245,207.845 591.245,199.36 587.003,199.36 587.003,216.33 591.245,216.33 
		591.245,212.087 	"/>
	<rect x="582.76" y="195.118" width="4.242" height="4.242"/>
	<rect x="268.821" y="513.299" width="4.242" height="4.242"/>
	<rect x="425.79" y="322.39" width="4.242" height="8.485"/>
	<polygon points="442.76,305.421 447.003,305.421 447.003,301.178 438.518,301.178 438.518,309.663 442.76,309.663 	"/>
	<polygon points="434.275,313.906 438.518,313.906 438.518,309.663 430.033,309.663 430.033,322.39 434.275,322.39 	"/>
	<polygon points="468.215,288.451 472.457,288.451 472.457,279.966 468.215,279.966 468.215,284.209 463.972,284.209 
		463.972,296.936 447.003,296.936 447.003,301.178 468.215,301.178 	"/>
	<polygon points="570.033,330.875 570.033,335.118 578.518,335.118 578.518,330.875 574.275,330.875 574.275,326.633 
		570.033,326.633 570.033,322.39 565.79,322.39 565.79,330.875 	"/>
	<polygon points="557.306,318.148 561.548,318.148 561.548,322.39 565.79,322.39 565.79,313.906 561.548,313.906 561.548,305.421 
		553.063,305.421 553.063,301.178 544.578,301.178 544.578,305.421 548.821,305.421 548.821,309.663 557.306,309.663 	"/>
	<polygon points="595.487,262.996 595.487,258.754 591.245,258.754 591.245,254.512 587.003,254.512 587.003,267.239 
		582.76,267.239 582.76,271.481 578.518,271.481 578.518,284.209 574.275,284.209 574.275,309.663 578.518,309.663 578.518,288.451 
		582.76,288.451 582.76,275.724 587.003,275.724 587.003,271.481 591.245,271.481 591.245,262.996 	"/>
	<rect x="591.245" y="224.815" width="4.242" height="4.242"/>
	<rect x="603.972" y="182.39" width="4.242" height="4.242"/>
	<polygon points="591.245,161.178 591.245,165.421 595.487,165.421 595.487,182.39 603.972,182.39 603.972,178.148 599.73,178.148 
		599.73,165.421 603.972,165.421 603.972,161.178 599.73,161.178 599.73,156.936 595.487,156.936 595.487,152.693 587.003,152.693 
		587.003,161.178 	"/>
	<polygon points="629.427,267.239 637.912,267.239 637.912,258.754 633.669,258.754 633.669,254.512 637.912,254.512 
		637.912,250.269 633.669,250.269 633.669,241.784 625.184,241.784 625.184,246.027 629.427,246.027 	"/>
	<polygon points="612.457,186.633 616.7,186.633 616.7,190.875 620.942,190.875 620.942,199.36 625.184,199.36 625.184,207.845 
		629.427,207.845 629.427,216.33 633.669,216.33 633.669,224.815 637.912,224.815 637.912,229.057 642.154,229.057 642.154,220.572 
		637.912,220.572 637.912,212.087 633.669,212.087 633.669,203.603 629.427,203.603 629.427,195.118 625.184,195.118 
		625.184,186.633 620.942,186.633 620.942,182.39 616.7,182.39 616.7,178.148 608.215,178.148 608.215,182.39 612.457,182.39 	"/>
	<rect x="587.003" y="220.572" width="4.242" height="4.242"/>
	<polygon points="612.457,322.39 608.215,322.39 608.215,326.633 612.457,326.633 612.457,343.603 616.7,343.603 616.7,356.33 
		620.942,356.33 620.942,360.572 625.184,360.572 625.184,356.33 629.427,356.33 629.427,343.603 625.184,343.603 625.184,339.36 
		620.942,339.36 620.942,330.875 625.184,330.875 625.184,326.633 620.942,326.633 620.942,318.148 612.457,318.148 	"/>
	<polygon points="548.821,144.209 548.821,139.966 544.578,139.966 544.578,148.451 548.821,148.451 548.821,156.936 
		553.063,156.936 553.063,144.209 	"/>
	<rect x="578.518" y="148.451" width="8.485" height="4.242"/>
	<polygon points="574.275,182.39 574.275,178.148 570.033,178.148 570.033,173.906 565.79,173.906 565.79,182.39 570.033,182.39 
		570.033,186.633 574.275,186.633 574.275,190.875 578.518,190.875 578.518,182.39 	"/>
	<rect x="561.548" y="165.421" width="4.242" height="8.485"/>
	<rect x="553.063" y="156.936" width="8.485" height="8.485"/>
	<polygon points="574.275,144.209 574.275,148.451 578.518,148.451 578.518,139.966 574.275,139.966 574.275,135.724 
		570.033,135.724 570.033,144.209 	"/>
	<polygon points="540.336,135.724 540.336,131.481 544.578,131.481 544.578,127.239 553.063,127.239 553.063,131.481 
		561.548,131.481 561.548,135.724 570.033,135.724 570.033,131.481 565.79,131.481 565.79,127.239 561.548,127.239 561.548,122.996 
		540.336,122.996 540.336,127.239 536.094,127.239 536.094,139.966 544.578,139.966 544.578,135.724 	"/>
	<rect x="591.245" y="250.269" width="4.242" height="4.242"/>
	<polygon points="179.73,318.148 175.487,318.148 175.487,309.663 179.73,309.663 179.73,301.178 175.487,301.178 175.487,305.421 
		171.245,305.421 171.245,322.39 175.487,322.39 175.487,326.633 179.73,326.633 	"/>
	<polygon points="179.73,275.724 175.487,275.724 175.487,284.209 171.245,284.209 171.245,292.693 175.487,292.693 
		175.487,296.936 179.73,296.936 	"/>
	<polygon points="188.215,445.421 179.73,445.421 179.73,441.178 175.487,441.178 175.487,436.936 179.73,436.936 179.73,428.451 
		175.487,428.451 175.487,398.754 179.73,398.754 179.73,394.512 171.245,394.512 171.245,402.996 167.003,402.996 167.003,407.239 
		171.245,407.239 171.245,411.481 167.003,411.481 167.003,415.724 171.245,415.724 171.245,436.936 158.518,436.936 
		158.518,449.663 162.76,449.663 162.76,453.906 167.003,453.906 167.003,458.148 175.487,458.148 175.487,462.39 179.73,462.39 
		179.73,453.906 196.7,453.906 196.7,449.663 188.215,449.663 	"/>
	<rect x="171.245" y="246.027" width="4.242" height="12.727"/>
	<polygon points="205.184,445.421 196.7,445.421 196.7,449.663 209.427,449.663 209.427,428.451 213.669,428.451 213.669,424.209 
		209.427,424.209 209.427,411.481 217.912,411.481 217.912,415.724 222.154,415.724 222.154,407.239 217.912,407.239 
		217.912,402.996 205.184,402.996 	"/>
	<rect x="175.487" y="258.754" width="4.242" height="12.727"/>
	<polygon points="175.487,220.572 179.73,220.572 179.73,212.087 175.487,212.087 175.487,216.33 171.245,216.33 171.245,224.815 
		175.487,224.815 	"/>
	<polygon points="311.245,496.33 311.245,500.572 315.487,500.572 315.487,504.815 323.972,504.815 323.972,487.845 319.73,487.845 
		319.73,496.33 315.487,496.33 315.487,492.087 307.003,492.087 307.003,496.33 	"/>
	<rect x="298.518" y="487.845" width="8.485" height="4.242"/>
	<polygon points="328.215,453.906 323.972,453.906 323.972,458.148 319.73,458.148 319.73,462.39 323.972,462.39 323.972,487.845 
		328.215,487.845 	"/>
	<rect x="319.73" y="449.663" width="4.242" height="4.242"/>
	<polygon points="315.487,445.421 315.487,441.178 311.245,441.178 311.245,436.936 307.003,436.936 307.003,445.421 
		311.245,445.421 311.245,449.663 319.73,449.663 319.73,445.421 	"/>
	<polygon points="302.76,432.693 302.76,428.451 294.275,428.451 294.275,432.693 298.518,432.693 298.518,436.936 307.003,436.936 
		307.003,432.693 	"/>
	<polygon points="417.306,369.057 417.306,373.3 421.548,373.3 421.548,369.057 425.79,369.057 425.79,356.33 417.306,356.33 
		417.306,360.572 421.548,360.572 421.548,364.815 408.821,364.815 408.821,369.057 	"/>
	<rect x="366.397" y="330.875" width="4.242" height="4.242"/>
	<polygon points="379.124,343.603 379.124,339.36 383.366,339.36 383.366,335.118 391.851,335.118 391.851,326.633 383.366,326.633 
		383.366,330.875 374.881,330.875 374.881,335.118 370.639,335.118 370.639,343.603 	"/>
	<polygon points="362.154,322.39 357.912,322.39 357.912,326.633 362.154,326.633 362.154,330.875 366.397,330.875 366.397,301.178 
		362.154,301.178 362.154,296.936 357.912,296.936 357.912,305.421 362.154,305.421 	"/>
	<polygon points="400.336,360.572 400.336,356.33 396.093,356.33 396.093,335.118 391.851,335.118 391.851,360.572 	"/>
	<polygon points="183.972,207.845 188.215,207.845 188.215,195.118 183.972,195.118 183.972,203.603 179.73,203.603 179.73,212.087 
		183.972,212.087 	"/>
	<rect x="400.336" y="360.572" width="8.485" height="4.242"/>
	<polygon points="268.821,296.936 268.821,292.693 260.336,292.693 260.336,296.936 256.093,296.936 256.093,301.178 
		264.578,301.178 264.578,296.936 	"/>
	<polygon points="213.669,220.572 213.669,224.815 217.912,224.815 217.912,229.057 222.154,229.057 222.154,233.3 226.397,233.3 
		226.397,224.815 222.154,224.815 222.154,220.572 217.912,220.572 217.912,216.33 209.427,216.33 209.427,220.572 	"/>
	<polygon points="192.457,182.39 200.942,182.39 200.942,169.663 196.7,169.663 196.7,173.906 188.215,173.906 188.215,195.118 
		192.457,195.118 	"/>
	<polygon points="222.154,246.027 222.154,250.269 230.639,250.269 230.639,241.784 226.397,241.784 226.397,246.027 	"/>
	<polygon points="230.639,309.663 230.639,313.906 226.397,313.906 226.397,318.148 222.154,318.148 222.154,322.39 230.639,322.39 
		230.639,318.148 234.881,318.148 234.881,313.906 239.124,313.906 239.124,305.421 247.609,305.421 247.609,301.178 
		251.851,301.178 251.851,296.936 243.366,296.936 243.366,301.178 234.881,301.178 234.881,309.663 	"/>
	<polygon points="213.669,292.693 213.669,296.936 217.912,296.936 217.912,305.421 213.669,305.421 213.669,309.663 
		217.912,309.663 217.912,318.148 222.154,318.148 222.154,305.421 230.639,305.421 230.639,301.178 234.881,301.178 
		234.881,292.693 222.154,292.693 222.154,284.209 217.912,284.209 217.912,292.693 	"/>
</g>
</svg>
