<svg xmlns="http://www.w3.org/2000/svg" viewBox="0 0 322.65 143.17"><title>45</title><g id="Layer_2" data-name="Layer 2"><g id="Layer_1-2" data-name="Layer 1"><path d="M272.74,48.39c-3.43.19-6.72.37-9.87.56l-3.1.19-3,.19-2.56.17-4.9.35L247,50q-4.63.38-8.76.78l-1.17.12-2.29.25q-1.68.18-3.27.39l-3.11.42c-1,.14-2,.29-2.95.45l-1.87.32-1.36.25c-.67.12-1.33.25-2,.39l-1.89.41-1.61.39-.78.2c-.78.2-1.52.41-2.25.63l-.72.22-1.4.46c-.45.15-.9.31-1.34.48-16,6-19.57,17.12-23.62,40.59-.27-1.55-.53-3-.8-4.52C180.38,62.55,174.5,51,136.37,51S92.36,62.55,87,92.26c-.27,1.47-.53,3-.8,4.52C82.1,73.31,78.48,62.17,62.53,56.19c-.44-.17-.89-.33-1.34-.48l-1.4-.46L59.07,55c-.73-.22-1.47-.43-2.25-.63L56,54.2l-1.61-.39-1.89-.41c-.64-.14-1.3-.27-2-.39l-1.36-.25-1.87-.32c-1-.16-1.94-.31-3-.45l-3.11-.42q-1.59-.21-3.27-.39l-2.29-.25-1.17-.12q-4.12-.41-8.76-.78l-2.36-.18-4.9-.35L16,49.33l-3-.19L9.87,49c-3.15-.19-6.44-.37-9.87-.56,3.43-.19,6.72-.37,9.87-.56l3.1-.19,3-.19,2.56-.17,4.9-.35,2.36-.18q4.63-.36,8.76-.78l1.17-.12L38,45.6q1.68-.18,3.27-.39c1.07-.13,2.11-.27,3.11-.42s2-.29,3-.45L49.21,44l1.36-.25,1.32-.26.65-.13c.65-.13,1.27-.26,1.89-.41L56,42.58l.78-.2c.78-.2,1.52-.41,2.25-.63l.72-.22,1.4-.46,1.34-.48c16-6,19.57-17.12,23.62-40.59.27,1.56.54,3.07.8,4.52,5.41,29.71,11.29,41.31,49.42,41.31s44-11.6,49.42-41.31c.26-1.45.53-3,.8-4.52,4,23.47,7.67,34.61,23.62,40.59l1.34.48,1.4.46.72.22c.73.22,1.47.43,2.25.63l.78.2,1.61.39c.62.15,1.24.28,1.89.41l.65.13,1.32.26,1.36.25,1.87.32c1,.16,1.94.31,2.95.45s2,.29,3.11.42,2.15.27,3.27.39l2.29.25,1.17.12q4.13.42,8.76.78l2.36.18,4.9.35,2.56.17,3,.19,3.1.19C266,48,269.31,48.2,272.74,48.39Z"/><path d="M322.65,94.78c-3.43.19-6.72.37-9.87.56l-3.1.19-3,.19-2.56.17-4.9.35-2.36.18q-4.64.38-8.76.78l-1.17.12-2.29.25q-1.68.18-3.27.39l-3.11.42c-1,.14-2,.29-2.95.45l-1.87.32-1.36.25c-.67.12-1.33.25-2,.39l-1.89.41-1.61.39-.78.2c-.78.2-1.52.41-2.25.63l-.72.22-1.4.46c-.45.15-.9.31-1.34.48-16,6-19.57,17.12-23.62,40.59-.27-1.55-.53-3-.8-4.52-5.41-29.71-11.29-41.31-49.42-41.31s-44,11.6-49.42,41.31c-.27,1.47-.53,3-.8,4.52-4.05-23.47-7.67-34.61-23.62-40.59-.44-.17-.89-.33-1.34-.48l-1.4-.46-.72-.22c-.73-.22-1.47-.43-2.25-.63l-.78-.2-1.61-.39-1.89-.41c-.64-.14-1.3-.27-2-.39l-1.36-.25-1.87-.32c-1-.16-1.94-.31-3-.45L91.19,98q-1.59-.21-3.27-.39l-2.29-.25-1.17-.12q-4.12-.4-8.76-.78l-2.36-.18-4.9-.35-2.56-.17-3-.19-3.1-.19c-3.15-.19-6.44-.37-9.87-.56,3.43-.19,6.72-.37,9.87-.56l3.1-.19,3-.19,2.56-.17c1.68-.11,3.31-.23,4.9-.35l2.36-.18q4.64-.36,8.76-.78l1.17-.12L87.92,92q1.68-.18,3.27-.39c1.07-.13,2.11-.27,3.11-.42s2-.29,3-.45l1.87-.32,1.36-.25,1.32-.26.65-.13c.65-.13,1.27-.26,1.89-.41L106,89l.78-.2c.78-.2,1.52-.41,2.25-.63l.72-.22,1.4-.46,1.34-.48c15.95-6,19.57-17.12,23.62-40.59.27,1.56.54,3.07.8,4.52,5.41,29.71,11.29,41.31,49.42,41.31s44-11.6,49.42-41.31c.26-1.45.53-3,.8-4.52C240.55,69.86,244.17,81,260.12,87l1.34.48,1.4.46.72.22c.73.22,1.47.43,2.25.63l.78.2,1.61.39c.62.15,1.24.28,1.89.41l.65.13,1.32.26,1.36.25,1.87.32c1,.16,1.94.31,2.95.45s2,.29,3.11.42,2.15.27,3.27.39l2.29.25,1.17.12q4.13.42,8.76.78l2.36.18c1.59.12,3.22.24,4.9.35l2.56.17,3,.19,3.1.19C315.93,94.41,319.22,94.59,322.65,94.78Z"/></g></g></svg>