<svg xmlns="http://www.w3.org/2000/svg" viewBox="0 0 219.3 122.19"><defs><style>.cls-1,.cls-2{fill:none;stroke:#ebdbb2;stroke-miterlimit:10;}.cls-1{stroke-width:0.5px;}</style></defs><title>27</title><g id="Layer_2" data-name="Layer 2"><g id="Layer_1-2" data-name="Layer 1"><rect class="cls-1" x="0.5" y="0.38" width="72.79" height="72.79"/><line class="cls-1" x1="0.5" y1="61.05" x2="73.29" y2="61.05"/><line class="cls-1" x1="0.5" y1="48.91" x2="73.29" y2="48.91"/><line class="cls-1" x1="0.5" y1="36.78" x2="73.29" y2="36.78"/><line class="cls-1" x1="0.5" y1="24.65" x2="73.29" y2="24.65"/><line class="cls-1" x1="0.5" y1="12.52" x2="73.29" y2="12.52"/><line class="cls-1" x1="61.16" y1="0.38" x2="61.16" y2="73.18"/><line class="cls-1" x1="49.03" y1="0.38" x2="49.03" y2="73.18"/><line class="cls-1" x1="36.9" y1="0.38" x2="36.9" y2="73.18"/><line class="cls-1" x1="24.76" y1="0.38" x2="24.76" y2="73.18"/><line class="cls-1" x1="12.63" y1="0.38" x2="12.63" y2="73.18"/><rect class="cls-1" x="73.21" y="0.38" width="72.79" height="72.79"/><line class="cls-1" x1="73.21" y1="61.05" x2="146.01" y2="61.05"/><line class="cls-1" x1="73.21" y1="48.91" x2="146.01" y2="48.91"/><line class="cls-1" x1="73.21" y1="36.78" x2="146.01" y2="36.78"/><line class="cls-1" x1="73.21" y1="24.65" x2="146.01" y2="24.65"/><line class="cls-1" x1="73.21" y1="12.52" x2="146.01" y2="12.52"/><line class="cls-1" x1="133.87" y1="0.38" x2="133.87" y2="73.18"/><line class="cls-1" x1="121.74" y1="0.38" x2="121.74" y2="73.18"/><line class="cls-1" x1="109.61" y1="0.38" x2="109.61" y2="73.18"/><line class="cls-1" x1="97.48" y1="0.38" x2="97.48" y2="73.18"/><line class="cls-1" x1="85.35" y1="0.38" x2="85.35" y2="73.18"/><rect class="cls-1" x="146.01" y="0.38" width="72.79" height="72.79"/><line class="cls-1" x1="146.01" y1="61.05" x2="218.8" y2="61.05"/><line class="cls-1" x1="146.01" y1="48.91" x2="218.8" y2="48.91"/><line class="cls-1" x1="146.01" y1="36.78" x2="218.8" y2="36.78"/><line class="cls-1" x1="146.01" y1="24.65" x2="218.8" y2="24.65"/><line class="cls-1" x1="146.01" y1="12.52" x2="218.8" y2="12.52"/><line class="cls-1" x1="206.67" y1="0.38" x2="206.67" y2="73.18"/><line class="cls-1" x1="194.54" y1="0.38" x2="194.54" y2="73.18"/><line class="cls-1" x1="182.4" y1="0.38" x2="182.4" y2="73.18"/><line class="cls-1" x1="170.27" y1="0.38" x2="170.27" y2="73.18"/><line class="cls-1" x1="158.14" y1="0.38" x2="158.14" y2="73.18"/><rect class="cls-1" x="0.5" y="73.16" width="72.79" height="48.53"/><polyline class="cls-1" points="0.5 121.69 12.63 121.69 24.77 121.69 36.89 121.69 49.03 121.69 61.16 121.69 73.21 121.69 73.29 121.69"/><line class="cls-1" x1="0.5" y1="109.56" x2="73.29" y2="109.56"/><line class="cls-1" x1="0.5" y1="97.43" x2="73.29" y2="97.43"/><line class="cls-1" x1="0.5" y1="85.29" x2="73.29" y2="85.29"/><polyline class="cls-1" points="61.16 73.16 61.16 73.18 61.16 85.3 61.16 97.42 61.16 109.56 61.16 121.69"/><polyline class="cls-1" points="49.03 121.69 49.03 109.56 49.03 97.42 49.03 85.3 49.03 73.18 49.03 73.16"/><polyline class="cls-1" points="36.89 73.16 36.89 73.18 36.89 85.3 36.89 97.42 36.89 109.56 36.89 121.69"/><polyline class="cls-1" points="24.77 121.69 24.77 109.56 24.77 97.42 24.77 85.3 24.77 73.18 24.77 73.16"/><polyline class="cls-1" points="12.63 73.16 12.63 73.18 12.63 85.3 12.63 97.42 12.63 109.56 12.63 121.69"/><polyline class="cls-1" points="146.01 121.69 146.01 109.56 146.01 97.42 146.01 85.3 146.01 73.18 146.01 73.16 133.87 73.16 121.74 73.16 109.61 73.16 97.48 73.16 85.35 73.16 73.29 73.16 73.21 73.16 73.21 73.18 73.21 85.3 73.21 97.42 73.21 109.56 73.21 121.69"/><polyline class="cls-1" points="73.21 121.69 73.29 121.69 85.35 121.69 97.48 121.69 109.61 121.69 121.74 121.69 133.87 121.69 146.01 121.69"/><line class="cls-1" x1="73.21" y1="109.56" x2="146.01" y2="109.56"/><line class="cls-1" x1="73.21" y1="97.43" x2="146.01" y2="97.43"/><line class="cls-1" x1="73.21" y1="85.29" x2="146.01" y2="85.29"/><polyline class="cls-1" points="133.87 73.16 133.87 73.18 133.87 85.3 133.87 97.42 133.87 109.56 133.87 121.69"/><polyline class="cls-1" points="121.74 73.16 121.74 73.18 121.74 85.3 121.74 97.42 121.74 109.56 121.74 121.69"/><polyline class="cls-1" points="109.61 73.16 109.61 73.18 109.61 85.3 109.61 97.42 109.61 109.56 109.61 121.69"/><polyline class="cls-1" points="97.48 73.16 97.48 73.18 97.48 85.3 97.48 97.42 97.48 109.56 97.48 121.69"/><polyline class="cls-1" points="85.35 121.69 85.35 109.56 85.35 97.42 85.35 85.3 85.35 73.18 85.35 73.16"/><rect class="cls-1" x="146.01" y="73.16" width="72.79" height="48.53"/><polyline class="cls-1" points="146.01 121.69 158.14 121.69 170.28 121.69 182.4 121.69 194.53 121.69 206.67 121.69 218.8 121.69"/><line class="cls-1" x1="146.01" y1="109.56" x2="218.8" y2="109.56"/><line class="cls-1" x1="146.01" y1="97.43" x2="218.8" y2="97.43"/><line class="cls-1" x1="146.01" y1="85.29" x2="218.8" y2="85.29"/><polyline class="cls-1" points="206.67 73.16 206.67 73.18 206.67 85.3 206.67 97.42 206.67 109.56 206.67 121.69"/><polyline class="cls-1" points="194.53 73.16 194.53 73.18 194.53 85.3 194.53 97.42 194.53 109.56 194.53 121.69"/><polyline class="cls-1" points="182.4 73.16 182.4 73.18 182.4 85.3 182.4 97.42 182.4 109.56 182.4 121.69"/><polyline class="cls-1" points="170.28 73.16 170.28 73.18 170.28 85.3 170.28 97.42 170.28 109.56 170.28 121.69"/><polyline class="cls-1" points="158.14 121.69 158.14 109.56 158.14 97.42 158.14 85.3 158.14 73.18 158.14 73.16"/><polyline class="cls-2" points="218.8 121.69 218.8 109.56 218.8 97.42 218.8 85.3 218.8 73.18 218.8 73.16 218.8 61.05 218.8 48.91 218.8 36.78 218.8 24.65 218.8 12.52 218.8 0.5 206.67 0.5 194.53 0.5 182.4 0.5 170.28 0.5 158.14 0.5 146.01 0.5 133.87 0.5 121.74 0.5 109.61 0.5 97.48 0.5 85.35 0.5 73.29 0.5 73.21 0.5 61.16 0.5 49.03 0.5 36.89 0.5 24.77 0.5 12.63 0.5 0.5 0.5 0.5 12.52 0.5 24.65 0.5 36.78 0.5 48.91 0.5 61.05 0.5 73.16 0.5 73.18 0.5 85.3 0.5 97.42 0.5 109.56 0.5 121.69 12.63 121.69 24.77 121.69 36.89 121.69 49.03 121.69 61.16 121.69 73.21 121.69"/><polyline class="cls-2" points="218.8 121.69 218.8 109.56 218.8 97.42 218.8 85.3 218.8 73.18 218.8 73.16 218.8 61.05 218.8 48.91 218.8 36.78 218.8 24.65 218.8 12.52 218.8 0.5 206.67 0.5 194.53 0.5 182.4 0.5 170.28 0.5 158.14 0.5 146.01 0.5 133.87 0.5 121.74 0.5 109.61 0.5 97.48 0.5 85.35 0.5 73.29 0.5 73.21 0.5 61.16 0.5 49.03 0.5 36.89 0.5 24.77 0.5 12.63 0.5 0.5 0.5 0.5 12.52 0.5 24.65 0.5 36.78 0.5 48.91 0.5 61.05 0.5 73.16 0.5 73.18 0.5 85.3 0.5 97.42 0.5 109.56 0.5 121.69 12.63 121.69 24.77 121.69 36.89 121.69 49.03 121.69 61.16 121.69 73.21 121.69"/><polyline class="cls-2" points="0.5 0.5 0.5 12.63 0.5 24.77 0.5 36.89 0.5 49.01 0.5 49.03 0.5 61.15 0.5 73.28 0.5 85.41 0.5 97.54 0.5 109.67 0.5 121.69 12.63 121.69 24.77 121.69 36.9 121.69 49.03 121.69 61.16 121.69 73.29 121.69 85.43 121.69 97.56 121.69 109.69 121.69 121.82 121.69 133.95 121.69 146.01 121.69 146.09 121.69 158.14 121.69 170.28 121.69 182.41 121.69 194.53 121.69 206.67 121.69 218.8 121.69 218.8 109.67 218.8 97.54 218.8 85.41 218.8 73.28 218.8 61.15 218.8 49.03 218.8 49.01 218.8 36.89 218.8 24.77 218.8 12.63 218.8 0.5 206.67 0.5 194.53 0.5 182.41 0.5 170.28 0.5 158.14 0.5 146.09 0.5"/><path class="cls-2" d="M.5,65.65A54,54,0,0,1,7,61.25l.38-.2a38.18,38.18,0,0,1,5.26-2.46,36.23,36.23,0,0,1,12.14-2.45,26.77,26.77,0,0,1,12.12,2.41,23.84,23.84,0,0,1,2.17,1.16c.69.41,1.35.86,2,1.34,2.65,1.88,5.13,4.07,8,5.46a13.9,13.9,0,0,0,3.22,1.16,14.07,14.07,0,0,0,8.91-1.24,18.46,18.46,0,0,0,3.72-2.3,27,27,0,0,0,3.24-3.08A50.89,50.89,0,0,0,73.21,54l.08-.12c0-.05.07-.1.1-.16,1-1.6,2-3.24,3.09-4.77a18.53,18.53,0,0,1,4.08-4.21,11,11,0,0,1,4.79-1.94,7.54,7.54,0,0,1,6,1.47c1.34,1.12,2.18,2.73,3.26,4.11.16.19.32.39.49.57A12.39,12.39,0,0,0,97.48,51a13.49,13.49,0,0,0,10.64,2c.51-.13,1-.28,1.49-.45a16.19,16.19,0,0,0,5.53-3.59,39,39,0,0,0,6.6-9.11c.57-1,1.13-2,1.68-3l.46-.86c2.43-4.45,5.54-9.11,10-11.12l.34-.15a11.46,11.46,0,0,1,2.27-.68,12.14,12.14,0,0,1,6.55.68,15,15,0,0,1,3,1.54,16.77,16.77,0,0,1,3.16,2.65,27.61,27.61,0,0,1,5,7.94c.64,1.45,1.21,2.94,1.75,4.42.78,2.2,1.51,4.42,2.23,6.64.12.36.23.72.35,1.07,1.29,4.08,2.57,8.16,4.07,12.14a78.18,78.18,0,0,0,3.53,8,45.37,45.37,0,0,0,2.37,4.1s0,0,0,0c.56.89,1.17,1.75,1.8,2.6a35.86,35.86,0,0,0,10.26,9.52c.61.36,1.23.7,1.87,1a25.43,25.43,0,0,0,5.2,1.89,7.59,7.59,0,0,0,5.32-.23,5,5,0,0,0,1.61-1.41,6.87,6.87,0,0,0,.78-1.27,15.94,15.94,0,0,0,1-2.61c.95-3.14,1.69-6.36,2.6-9.51v0a46.49,46.49,0,0,1,2.76-7.5,29.55,29.55,0,0,1,2.81-4.61,30.38,30.38,0,0,1,2.19-2.62,32.42,32.42,0,0,1,12.13-8.15"/></g></g></svg>
