<svg xmlns="http://www.w3.org/2000/svg" viewBox="0 0 128.71 78.12"><defs><style>path{fill:none;stroke:#ebdbb2;}</style></defs><title>91</title><g id="Layer_2" data-name="Layer 2"><g id="Layer_1-2" data-name="Layer 1"><path d="M57,1.67C63.71.86,69.71-1.14,76.71.86c-5-1-9,2-14.45,1A48.09,48.09,0,0,1,57,1.67Z"/><path d="M39.5,4.76c17.21-.9,35.21-2.9,52.21-1.9-15,1-30,2-44.83,2.43C44.37,5.21,41.9,5,39.5,4.76Z"/><path d="M30.11,7.39c23.6,1.47,46.6-4.53,70.6-1.53-20-2-41,4-60.7,2.36C36.64,8,33.36,7.67,30.11,7.39Z"/><path d="M23.22,10.18c28.49,1.68,55.49-5.32,83.49-1.32-24-2-48,4-71.76,2.23C31,10.72,27.06,10.41,23.22,10.18Z"/><path d="M17.82,13.07c30.89,2.79,62.89-6.21,93.89-1.21-29-4-58,6-87.44,1.5C22.09,13.22,19.94,13.13,17.82,13.07Z"/><path d="M13.49,16c28.22,2.85,56.22-5.15,85.22-3.15,6,1,11,1,17,3-24-5-48,0-72,2-8,0-15,0-23.3-1.65C18.05,16.11,15.75,16.05,13.49,16Z"/><path d="M10,19c25.74.89,50.74-1.11,76.74-4.11,11-1,22,2,33,4-27-5-55,1-82,1-7,1-13,0-20.44-.76C14.77,19,12.35,19,10,19Z"/><path d="M7.13,21.92c30.58,2.94,61.58-5.06,92.58-3.06a83.29,83.29,0,0,1,22,3c-27-6-53-1-80,2-9,0-18-1-27-1.85Z"/><path d="M4.84,24.85c31.87,3,63.87-5,95.87-4a200.24,200.24,0,0,1,24,4c-28-5-56-1-84,1-9,1-19-1-28.09-.93C10,24.91,7.37,24.9,4.84,24.85Z"/><path d="M3,27.78c30.67,2.08,61.67-3.92,92.67-3.92,10-1,20,2,30,4-29-6-58,0-87,1-9,1-19-1-27.73-1C8.26,27.85,5.62,27.84,3,27.78Z"/><path d="M1.68,30.7c26,.16,51,.16,78-3.84,16-3,32,1,48,4-29-6-58-1-88,1-10,1-20,0-30-1.08C7,30.78,4.32,30.77,1.68,30.7Z"/><path d="M.74,33.63c34,2.23,67-5.77,101-3.77,9,0,18,2,27,4-27-5-53-4-80,1-14,2-27-1-39.82-1.15C6.1,33.71,3.4,33.7.74,33.63Z"/><path d="M.18,36.54c14.53-1.68,29.53,1.32,44.53.32,28-4,56-8,84,0-27-5-53-4-81,1-13,2-26-1-39.34-1.23C5.58,36.64,2.86,36.62.18,36.54Z"/><path d="M0,39.46c25.71-1.6,49.71,1.4,76.71-3.6,18-4,35,0,52,4-15-2-30-6-45-4-26,4-51,6-75.52,3.7C5.41,39.57,2.69,39.54,0,39.46Z"/><path d="M.19,42.38c25.52-1.52,49.52,1.48,76.52-3.52,18-4,35,1,52,3a314.33,314.33,0,0,0-81,1c-13,3-26,0-39.37-.37C5.57,42.49,2.86,42.46.19,42.38Z"/><path d="M.75,45.3c35,3.56,68-5.44,103-4.44,8,1,16,5,24,4-15,1-30-5-45-3-25,4-49,6-73.89,3.55C6.08,45.41,3.4,45.38.75,45.3Z"/><path d="M1.69,48.22c26,.64,51,.64,77-4.36,17-3,32,3,49,4-14,1-28-5-43-3-25,3-50,7-75.06,3.46C7,48.32,4.31,48.3,1.69,48.22Z"/><path d="M3.05,51.14c32.66,2.72,64.66-4.28,97.66-4.28,8,1,16,4,25,4-31-6-62,2-93,1-7,0-15,0-21.88-.62Q6.88,51.24,3.05,51.14Z"/><path d="M4.83,54.06c31.88,2.8,62.88-4.2,94.88-3.2,8,0,16,2,24,3-16-1-31-4-47-2-22,3-43,5-64.31,2.3C9.84,54.15,7.33,54.13,4.83,54.06Z"/><path d="M7.11,57c28.6.89,56.6-2.11,85.6-4.11,10,0,19,3,29,4a110.19,110.19,0,0,1-18-2c-30-2-59,6-89.31,2.21C11.93,57.06,9.51,57,7.11,57Z"/><path d="M9.91,59.89c35.8,3,72.8-8,108.8,0-6,0-11-1-17-2-29-2-57,6-84.83,2.16C14.51,60,12.2,60,9.91,59.89Z"/><path d="M13.34,62.79c34.37,3.07,68.37-7.93,102.37.07a87.52,87.52,0,0,0-16-2c-27,0-53,5-79.78,2.09C17.67,62.87,15.49,62.84,13.34,62.79Z"/><path d="M17.53,65.69c31.18,3.17,63.18-6.83,94.18.17-29-5-59,4-88,.07Q20.54,65.76,17.53,65.69Z"/><path d="M22.75,68.61c28,2.25,56-4.75,84-.75-24-2-48,4-72.47,1.41C30.25,69,26.42,68.8,22.75,68.61Z"/><path d="M29.52,71.61c24.19,1.25,47.19-4.75,71.19-.75-20-2-41,4-61.39,1.36C36,72.05,32.71,71.84,29.52,71.61Z"/><path d="M39,74.7c17.7.16,35.7-3.84,53.7-.84-15,0-31,2-46.41,1.26Q42.64,75,39,74.7Z"/><path d="M57,77.54c5.75-1.68,12.75-.68,18.75-.68-5,2-9,1-13.91,1.1A41.41,41.41,0,0,1,57,77.54Z"/></g></g></svg>
