<svg xmlns="http://www.w3.org/2000/svg" viewBox="0 0 195.87 114.13"><defs><style>.cls-1,.cls-2,.cls-3,.cls-4{fill:none;stroke:#000;}.cls-1,.cls-2,.cls-3{stroke-miterlimit:10;}.cls-1{stroke-width:2px;}.cls-3{stroke-width:0.75px;}.cls-4{stroke-linecap:round;stroke-linejoin:round;}</style></defs><title>Asset 1043</title><g id="Layer_2" data-name="Layer 2"><g id="Layer_1-2" data-name="Layer 1"><path class="cls-1" d="M194.87,8.39v97.35a7.39,7.39,0,0,1-7.39,7.39H8.4A7.39,7.39,0,0,1,1,105.74V8.39A7.39,7.39,0,0,1,8.4,1H187.48a7.38,7.38,0,0,1,7.26,6A6.82,6.82,0,0,1,194.87,8.39Z"/><path class="cls-2" d="M194.87,97.29V18.17H1V97.29"/><circle class="cls-2" cx="13.67" cy="9.58" r="2.29"/><circle class="cls-2" cx="22.58" cy="9.58" r="2.29"/><circle class="cls-2" cx="31.5" cy="9.58" r="2.29"/><rect class="cls-2" x="42.04" y="7.01" width="118.66" height="5.13" rx="1.8"/><rect class="cls-3" x="172.83" y="5.02" width="9.11" height="9.11" rx="4.56" transform="translate(186.9 -167.81) rotate(89.98)"/><line class="cls-3" x1="172.83" y1="9.58" x2="181.95" y2="9.58"/><path class="cls-3" d="M174.08,6.45a.36.36,0,0,0,.08.09,4.55,4.55,0,0,0,6.45,0l.09-.09"/><path class="cls-3" d="M174.08,12.72l.08-.1a4.58,4.58,0,0,1,6.45,0,.43.43,0,0,1,.09.1"/><line class="cls-3" x1="177.39" y1="5.02" x2="177.39" y2="14.14"/><ellipse class="cls-3" cx="177.39" cy="9.58" rx="4.56" ry="2.34" transform="translate(165.38 186.82) rotate(-89.22)"/><path d="M75,82.73a1.81,1.81,0,0,0-.78-.84,5.39,5.39,0,0,0-2-1c-.67-.11-1.37,0-2,0a.55.55,0,0,1-.29-.09c-.09-.06-.14-.19-.23-.27a.83.83,0,0,0-.42-.23c-.35-.13-.71-.25-1.06-.36a1,1,0,0,1-.48-.29c-.09-.1-.13-.26-.21-.37-.23-.3-.71-.23-1.07-.1a.56.56,0,0,0-.36.25.66.66,0,0,0,.15.6c.24.31,1,1,.51,1.44a.37.37,0,0,1-.17,0c-.4,0-.65-.45-1-.59a1.55,1.55,0,0,1-.49-.14c-.61-.41.14-1.69.48-2,.19-.22.45-.39.63-.62a.78.78,0,0,0,.12-.83c-.11-.19-.33-.27-.51-.4a1.24,1.24,0,0,1-.55-1,3.87,3.87,0,0,0-3-1.49,5.25,5.25,0,0,1-1.25,0,.56.56,0,0,1-.38-.25c-.06-.09-.06-.22-.12-.31s-.31-.13-.48-.13A2.38,2.38,0,0,1,58.48,73a4.15,4.15,0,0,1-.95-1.38.9.9,0,0,0-.25-.36.7.7,0,0,0-.43-.12,3.17,3.17,0,0,0-1.18.18,6.1,6.1,0,0,1-.91.31,3.56,3.56,0,0,1-.73,0,3.74,3.74,0,0,1-2-.53c-.19-.13-.34-.28-.53-.4s-.31-.18-.53-.11c-.57.16-1.22.42-1.37,1,0,.15,0,.31-.09.46s-.17.3-.32.29-.34-.39-.31-.66l.09-.83a.76.76,0,0,0,0-.4.53.53,0,0,0-.66-.15c-.23.08-.44.24-.67.32a6.38,6.38,0,0,0-.63.12c-.75.27-.79,1.44-1.5,1.82a1.44,1.44,0,0,1-1.33-.12c-.4-.23-.76-.55-1.18-.76a1.32,1.32,0,0,0-1.33,0,3,3,0,0,1-.38.31.69.69,0,0,1-.47.06c-.76-.1-1.19-.9-1.75-1.4a.91.91,0,0,1-.3-.35.73.73,0,0,1,0-.36,9.22,9.22,0,0,0-.13-2.57.92.92,0,0,0-.54-1.14,2.76,2.76,0,0,0-1.4,0l-1.2.2a1,1,0,0,1-.89-.14.87.87,0,0,1-.21-.43c-.19-1,.57-2,.83-3a3.24,3.24,0,0,0,.05-1.24.7.7,0,0,0-.2-.46.71.71,0,0,0-.3-.15,1.24,1.24,0,0,0-1.2.11,1.41,1.41,0,0,0-.35.62c-.16.42-.31.85-.45,1.28a2,2,0,0,1-.42.71,1.64,1.64,0,0,1-1.08.27c-.53,0-1.07,0-1.6-.07a3.39,3.39,0,0,1-2.05-.68c-.56-.49-.76-1.28-1.32-1.78-.14-.15-.32-.26-.4-.43a1.16,1.16,0,0,1-.09-.41,3.14,3.14,0,0,1,.35-2.17,2,2,0,0,0,.39-.53c.25-.66-.61-1.29-.55-2a1.19,1.19,0,0,1,.65-.85c.31-.19.67-.3,1-.48s.78-.31.87-.67.51-.41.85-.42a5.64,5.64,0,0,1,2,.12,2.32,2.32,0,0,0,1.11.24c.62-.13,1-1,1.62-.95.23,0,.44.15.67.17s.48-.05.71,0a2.3,2.3,0,0,1,.42.2,3.21,3.21,0,0,0,1.71,0c.58-.06,1.28.05,1.5.58s-.11,1,.09,1.5a3.58,3.58,0,0,0,.36.59c.18.35.17.79.36,1.14a1,1,0,0,0,1.13.46.27.27,0,0,0,.19-.1l0-.14A4,4,0,0,0,41.34,56a9.81,9.81,0,0,0-1-1.91,2.8,2.8,0,0,1-.26-1.63.8.8,0,0,1,.33-.61,2.54,2.54,0,0,0,.47-.14c.19-.12.24-.36.37-.54a1.71,1.71,0,0,1,1.06-.5,5.33,5.33,0,0,0,2.18-1.18.85.85,0,0,0,.26-.31,1.17,1.17,0,0,0,.1-.41A4.52,4.52,0,0,1,45.08,47c.34-.58.53-1.24.89-1.81a1.89,1.89,0,0,1,1.62-1c.22,0,.44.07.65.1a.77.77,0,0,0,.61-.19c.2-.22.13-.57.26-.84a.67.67,0,0,1,.5-.33.64.64,0,0,0,.33,0,.47.47,0,0,0,.14-.14,4.17,4.17,0,0,1,2.1-1.34,1.08,1.08,0,0,1,1.34.53,1.17,1.17,0,0,0,.2.36.56.56,0,0,0,.53.1c.19,0,.36-.13.55-.17.52-.12,1.07.08,1.58-.11.27-.1.5-.44.33-.69a.46.46,0,0,0-.23-.15c-.34-.12-.72,0-1.06-.1s-.48-.47-.75-.68a5.91,5.91,0,0,0-.66-.36.71.71,0,0,1-.37-.6,3.54,3.54,0,0,1,.14-.39.65.65,0,0,0-.64-.78,2.35,2.35,0,0,0-.51.17,1.42,1.42,0,0,1-1.07-.05.41.41,0,0,1-.2-.14c-.24-.25-.11-.65,0-.94a.38.38,0,0,1,.17-.2.52.52,0,0,1,.18,0c1,.07,1.89.53,2.87.55a8.85,8.85,0,0,0,1.53-.17,9.57,9.57,0,0,1,1.93,0,3.25,3.25,0,0,0,2.37-.29c.24-.19.42-.55.25-.81a.86.86,0,0,0-.31-.26c-.45-.24-1-.39-1.41-.67s-.61-.5-.93-.75a8.67,8.67,0,0,0-1.9-.89,1.66,1.66,0,0,1-.87-.59c-.07-.11-.11-.24-.18-.33a2.14,2.14,0,0,0-.68-.38.75.75,0,0,1-.29-.83,1.19,1.19,0,0,0-.26-.72.5.5,0,0,0-.7,0c-.06.08-.09.2-.15.29a.56.56,0,0,1-.22.18,4,4,0,0,1-1.63.75,1.4,1.4,0,0,1-1.52-.74,1.67,1.67,0,0,0-.16-.41,1.1,1.1,0,0,0-.42-.32,18,18,0,0,0-5.84-2.11,3.66,3.66,0,0,0,1,3.14c.23.27.5.63.34.95a1,1,0,0,1-.26.29,7.24,7.24,0,0,1-2,1.07.89.89,0,0,0-.36.19c-.24.27,0,.7.23.93s.62.43.72.76a.84.84,0,0,1-.55.95,1.4,1.4,0,0,1-1.14-.24,3.77,3.77,0,0,1-.82-.87c-.43-.56-.86-1.13-1.3-1.69a2,2,0,0,0-.73-.68,3.1,3.1,0,0,0-.61-.09,7.29,7.29,0,0,1-3.25-.8,2.24,2.24,0,0,0-1.2-.42c-.45.06-.85.46-1.28.32a1.72,1.72,0,0,1-.4-.26,4.65,4.65,0,0,0-1.3-.45c-.46-.15-1-.48-1.05-.94a1.39,1.39,0,0,1,1-1.47c.2-.06.45-.08.58-.25a1.33,1.33,0,0,0,.13-.35A1.34,1.34,0,0,1,32.12,28a5.3,5.3,0,0,0,1.37-.22,5.67,5.67,0,0,0,1-.72,1.2,1.2,0,0,1,1.15-.27.79.79,0,0,1,.47.92,1.84,1.84,0,0,0,1.18.1,5.52,5.52,0,0,1,.54-.16c.56-.07,1.14.33,1.65.12-.07-.8-.14-1.59-.22-2.39a1.88,1.88,0,0,1,0-.53,1,1,0,0,1,1.11-.76c.2,0,.38.14.57.19a3.58,3.58,0,0,0,.8.1,3.52,3.52,0,0,1,2.48.77,1.74,1.74,0,0,0,1.29.5,3.91,3.91,0,0,1,1.41.24c0,.29-.35.43-.63.51s-.62.26-.6.54a.54.54,0,0,0,.26.38,1.94,1.94,0,0,0,.81.32c.3.05.64,0,.84.25s.16.32.27.47a1.15,1.15,0,0,0,.84.38,4.94,4.94,0,0,1,1.85.39,3.91,3.91,0,0,0,.57.31.48.48,0,0,0,.56-.17.63.63,0,0,0-.18-.65,1.46,1.46,0,0,1-.37-.9.21.21,0,0,1,.24-.21,1.61,1.61,0,0,1,1,.22c.13.09.22.21.36.29a1.23,1.23,0,0,0,.55.1H54c.34,0,.78-.06.83-.39a.48.48,0,0,0-.36-.47,1.71,1.71,0,0,0-.64-.07A7.58,7.58,0,0,1,52.61,27a2.42,2.42,0,0,1-1.18-.41,6.31,6.31,0,0,1-.75-.94A4,4,0,0,0,48,24.54a5.94,5.94,0,0,1-2.88-.8,8.17,8.17,0,0,0-.68-.52c-.92-.53-2.17,0-3.15-.35s-1.77.26-2.66.25a1.53,1.53,0,0,1-.3,0,8.7,8.7,0,0,0-.88-.22,1.13,1.13,0,0,0-.26,0c-.21,0-.42.06-.63.06a.8.8,0,0,1-.76-.38c-.11-.23,0-.5-.06-.75s-.34-.49-.52-.32a.82.82,0,0,0-.11.17,1,1,0,0,1-.51.22,1.46,1.46,0,0,0-.64.36.26.26,0,0,0-.12.19c0,.16.12.29.21.41.2.35,0,.87.31,1.15a.68.68,0,0,0,.69.13c.24-.06.46-.19.69-.26a1.43,1.43,0,0,1,1.24.29.11.11,0,0,1,.06.1c0,.05-.06.07-.11.09-.42.18-.44.78-.75,1.11a1.06,1.06,0,0,1-.87.33,2.06,2.06,0,0,1-.89-.34,2.1,2.1,0,0,0-.84-.43c-.5-.07-1.08.25-1.46-.09s-.24-.72-.54-.94a2.53,2.53,0,0,0-.45-.19.34.34,0,0,1-.21-.4,2.38,2.38,0,0,0,.66-.44l1.29-1.12c.11-.1.22-.2.22-.34a.31.31,0,0,0-.32-.27.8.8,0,0,0-.45.14c-.83.42-1.66.88-2.46,1.36l-.15.09a.64.64,0,0,0-.23.2.53.53,0,0,0,0,.33,1.13,1.13,0,0,1,.06.32c0,.26-.23.48-.23.75s.51.64.63,1a.59.59,0,0,1-1.12.34l-3.62.1c-.42,0-.95,0-1.13-.4-.06-.11-.07-.21-.13-.3a.65.65,0,0,0-.62-.11c-1-.88-1.54-2.26-2.62-3a1.92,1.92,0,0,0-.78-.36,3,3,0,0,0-1.3.17c-.85.23-1.72.4-2.6.55a3.55,3.55,0,0,0-2.24.93c-.08.1-.16.24-.09.36a3.33,3.33,0,0,0,1.57.08,1.47,1.47,0,0,1,1-.45c.78-.16,1.59-.35,2.36-.58a4.36,4.36,0,0,1,.52-.11,2.22,2.22,0,0,1,.9.2,1,1,0,0,1,.55.34,1.11,1.11,0,0,1-.2,1.13,19.44,19.44,0,0,1-2.42.08c-.8,0-1.6.14-2.41.15-.63,0-1.25-.21-1.91-.18a11.81,11.81,0,0,0-2.3.24c-.58.13-1.51.17-1.93.61a.68.68,0,0,0-.11.88c.34.4,1,.09,1.44-.12,1.71-.8,3.71,0,5.62,0a18.62,18.62,0,0,1,3.58,0,2.27,2.27,0,0,1,1.21.14c.05.44-.51.66-.94.73a12.69,12.69,0,0,1-4.67.18c-.39-.08-.75-.2-1.13-.27a10.17,10.17,0,0,0-1.56-.15A7,7,0,0,0,9.58,27c-.37.18-.72.41-1.11.58-1.33.54-3,.06-4.18.86a6.15,6.15,0,0,0-1,1A11.27,11.27,0,0,1,1,31.22v4.52c.18.11.36.24.53.36,1,.74,2.08,1.59,2.27,2.82A5,5,0,0,0,4,40.21c.19.4.76.67,1.07.35a1.09,1.09,0,0,1,.36-1.09c.44-.25,1,.21,1.07.73A2.18,2.18,0,0,1,6,41.6a4.1,4.1,0,0,0-.51,1.22c-.81,2.62.63,5.34,2,7.7a2,2,0,0,0,.69.83.72.72,0,0,0,1-.17c.87-.13,1.61.67,1.94,1.49A12.87,12.87,0,0,0,12,55.13c.35.54.88.93,1.24,1.46s.6,1.41,1,2.08a1.72,1.72,0,0,0,1.91.93,56.13,56.13,0,0,1-4.18-7,24.75,24.75,0,0,1,4.58,4.27,22.84,22.84,0,0,1,1.86,2.53A11.6,11.6,0,0,1,20,62.1a2.88,2.88,0,0,0,.17.52c.53,1.08,2.18,1,3.11,1.64s1.44,1.65,2.46,1.71,1.77-.6,2.7-.5,1.27,1.29,2.13,1.42a7.35,7.35,0,0,1,1.05,0,2.46,2.46,0,0,1,.55.38,3.2,3.2,0,0,0,1.76.68,4,4,0,0,1,.86.11,2.11,2.11,0,0,1,.75.55c.56.56,1.38,1,1.72,1.68l.4.85a2.74,2.74,0,0,0,1,1.28c.57.33,1.31.22,1.89.52a11.59,11.59,0,0,0,1,.63c.36.15.89,0,.94-.36-.33,0-.41-.58-.1-.68.89,0,1.51.92,1.74,1.79a6,6,0,0,1,.05,3,2.13,2.13,0,0,1-.27.64c-.46.67-1.44.66-2.14,1.09a.93.93,0,0,0-.3.29,1,1,0,0,0-.05.42,10.34,10.34,0,0,0,.06,2.67c.16.52-.83.79-.78,1.33a.76.76,0,0,0,.28.43c.88.77,2.23,1.14,2.6,2.25a4.5,4.5,0,0,1,.14.83,8.39,8.39,0,0,0,.8,2.3,6.77,6.77,0,0,0,1.1,1.87c.47.56,1.3,1.42,1.92,1s1.17.78,1.84.65c.16,0,.34-.12.46,0a.29.29,0,0,1,.07.23A12.93,12.93,0,0,1,49.35,99a4.77,4.77,0,0,1-.61,1.24,2.66,2.66,0,0,0-.5.75,2.12,2.12,0,0,0-.07.67,9,9,0,0,0-.09,2.53,1.41,1.41,0,0,1-.34,1.19c-.27.32-.62.58-.92.89a3.8,3.8,0,0,0-1.08,2.42,5.06,5.06,0,0,1-.1,1.1c-.25.81-1.09,1.24-1.73,1.78a.58.58,0,0,0-.21.23.56.56,0,0,0,.32.65c.25.12.53.14.78.24s.68.46,1.08.47h0c.61,0,1.21-.69,1.73-.36.14,0,.36-.11.37-.26a3.23,3.23,0,0,0,0-.44,1,1,0,0,1,.49-.83c.27-.15.65-.18.83-.43a1.74,1.74,0,0,0,.14-.38,3.1,3.1,0,0,1,.67-1,5.17,5.17,0,0,1,.9-.91c.7-.49,1.63-.66,2.16-1.33.26-.33.4-.77.77-.94a1.62,1.62,0,0,1,.57-.12,2.57,2.57,0,0,0,1.37-.45,1.78,1.78,0,0,1,.68-.24c.24-.08.48-.25.49-.49a1.36,1.36,0,0,0-.11-.38,1.41,1.41,0,0,1,.2-1.38,2,2,0,0,1,1.23-.7,3.93,3.93,0,0,0,1-.15,2,2,0,0,0,.55-.4c.44-.4.89-.8,1.32-1.21s.58-.57.9-.83c.78-.66,1.8-1.27,1.88-2.29,0-.47.13-1,.55-1.23a1.58,1.58,0,0,1,.57-.13c.88-.18,1.52-1,2.35-1.31a4.61,4.61,0,0,0,1.42-.6,3.19,3.19,0,0,0,.59-.9,29.27,29.27,0,0,0,2-3.38,1.84,1.84,0,0,0,.14-.56,3.49,3.49,0,0,0,0-.56,4.39,4.39,0,0,1,.08-1,2.3,2.3,0,0,1,.59-1.21c.35-.33.87-.49,1.07-.92a5.38,5.38,0,0,0,.2-.65,2.81,2.81,0,0,1,1.07-1.26A1.16,1.16,0,0,0,75,82.73ZM42.5,41.89a.66.66,0,0,1,.52-.2,1.82,1.82,0,0,1,.4.11l.4.14a1,1,0,0,1,.35.17.41.41,0,0,1,.18.32c0,.22-.26.35-.47.39-.44.07-1.26.1-1.48-.4A.48.48,0,0,1,42.5,41.89Zm-2.21,2.3c-.1,0-.16,0-.28,0a1.31,1.31,0,0,0-.44,0c-.1,0-.37.09-.45,0a.11.11,0,0,1,0-.06.46.46,0,0,1,.18-.34,1.34,1.34,0,0,1,.38-.14,1.94,1.94,0,0,1,.68-.05.34.34,0,0,1,.3.14.13.13,0,0,1,0,.08C40.69,44,40.46,44.15,40.29,44.19Zm-8.32-5a1.19,1.19,0,0,1,.63-.69c.28-.15.61-.24.9-.37a11.32,11.32,0,0,1,1.33-.7,1.08,1.08,0,0,1,1.32.44c.09.21.09.48.26.62a1.33,1.33,0,0,0,.44.14c.47.17.67.74,1.07,1,.6.44,1.47.13,2.17.4a3.21,3.21,0,0,1,.59.36,1.24,1.24,0,0,1,.56.78.86.86,0,0,1-.68.82,2.32,2.32,0,0,1-1.14,0,1,1,0,0,1-.38-.15c-.14-.15-.14-.37-.22-.55a1.28,1.28,0,0,0-1.17-.62,1.13,1.13,0,0,0-.75.16c-.38.27-.34.84-.17,1.28a1,1,0,0,1,.1.54c0,.13-.13.23-.18.36s0,.62-.22.87a.67.67,0,0,1-1-.12,2,2,0,0,1-.27-1.12,5.81,5.81,0,0,1,.21-2.12c.25-.75-.65-.93-1.27-1s-1.24.58-1.77.44A.62.62,0,0,1,32,39.22Z"/><path d="M27.77,23.36a3.15,3.15,0,0,1-1.14.29c-.67-.07-1-.87-1-1.55a.73.73,0,0,0-.09-.44.67.67,0,0,0-.38-.2,6.62,6.62,0,0,0-1.88-.21c-.28,0-.63,0-.69-.3a20,20,0,0,1,3.69-.5.7.7,0,0,1,.36.06c.19.12.21.39.37.53s.36.12.47.26-.13.54-.16.84a.69.69,0,0,0,.46.65,1.19,1.19,0,0,0,1.58-1.08c-.11-.56-1.15-.45-1.3-1a.55.55,0,0,1,.34-.62,1.13,1.13,0,0,1,.75,0,2.64,2.64,0,0,0,.61.17.48.48,0,0,0,.51-.28c.11-.35-.29-.84,0-1a.49.49,0,0,1,.24,0l3.47,0a1.14,1.14,0,0,0,.71-.16c.17-.14.25-.38.43-.51s.71,0,1,.07c1.52.52,3.18-.1,4.79,0a10.81,10.81,0,0,1,1.38.16l5.14.8a1.81,1.81,0,0,1,1.11.45c-1.52.42-3.13.07-4.71,0a1.47,1.47,0,0,0-1.16.31c-.18.2-.25.49-.47.65a1.06,1.06,0,0,1-.53.16,26.48,26.48,0,0,1-4.27.16,1.44,1.44,0,0,0,1.35.62,2.89,2.89,0,0,1,1.52.26c.16.1.3.29.22.46a.49.49,0,0,1-.26.21c-1,.44-2.11.89-3,.37a.92.92,0,0,1-.53-.89c0-.17.14-.34.08-.5a.53.53,0,0,0-.4-.27l-3.06-.93a.78.78,0,0,0-.56,0c-.26.14-.31.56-.6.61a.4.4,0,0,1-.41-.3,1.18,1.18,0,0,1,0-.56,1.53,1.53,0,0,0-1.5,1,4.75,4.75,0,0,0-.18.85,2.74,2.74,0,0,1-.86,1.61C28.81,23.75,28.28,23.22,27.77,23.36Z"/><path d="M55.17,20.73a6.26,6.26,0,0,0-4.61-.1,3.87,3.87,0,0,1-.81.16c-.28,0-.55,0-.82-.05a2.43,2.43,0,0,0-1.09.2c-.14.06-.3.15-.32.31s.25.4.48.48l2.13.66a7.68,7.68,0,0,0,1.49.35c.4.05.81,0,1.21,0a8,8,0,0,1,3.65,1,5.06,5.06,0,0,0,.94.45,4.26,4.26,0,0,1,1.07.31A2.28,2.28,0,0,1,59,25a14.3,14.3,0,0,0,2.41,2,.88.88,0,0,1,.45.59,2.12,2.12,0,0,0-1,.1c-.24,0-.51.36-.47.6a.94.94,0,0,0,.42.58,5,5,0,0,1,.61.41,1.78,1.78,0,0,0,.35.32c.3.17.69.06,1,.21s.48.61.63,1a3.07,3.07,0,0,0,2.73,1.82,2.6,2.6,0,0,1,1.08.09c.25.12.5.36.75.26s.23-.73.52-1,.61-.14.76-.38.06-.24.11-.35c.15-.37.69-.32,1.08-.2A4.33,4.33,0,0,0,69,28.52a9.44,9.44,0,0,0-1.6-1.36c-.47-.3-1-.51-1.48-.77-1.5-.82-2.64-2.15-4-3.11a17.93,17.93,0,0,0-2.65-1.45,7.53,7.53,0,0,0-.88-.38,7,7,0,0,0-.79-.2A9.27,9.27,0,0,1,55.17,20.73Z"/><path d="M62.61,41.18a.41.41,0,0,0,.15.07c.16,0,.26-.18.25-.34a1.1,1.1,0,0,0-.38-.75,2.88,2.88,0,0,0-.72-.47l-1.48-.8a1.47,1.47,0,0,0-.34-.15.91.91,0,0,0-.92.32c-.34.41,0,1.11.51,1.28a4,4,0,0,0,1.2.07A3.1,3.1,0,0,1,62.61,41.18Z"/><path d="M49.82,62.26a3,3,0,0,1,1,.22.44.44,0,0,1,.15.08c.05.06.05.15.1.2s.18.07.28.07l.69-.06a.33.33,0,0,1,0,.46,1,1,0,0,1-.47.21,1,1,0,0,0-.47.2c-.08.07-.13.16-.21.23a.73.73,0,0,1-.63.11,2.55,2.55,0,0,0-.66-.12c-.3,0-.58.18-.88.16a.19.19,0,0,1-.14,0,.24.24,0,0,1-.06-.22c0-.3-.15-.9,0-1.15S49.54,62.26,49.82,62.26Z"/><path d="M45.31,61.19c.37.06.84-.07,1.06.23a.56.56,0,0,1-.21.74,1.47,1.47,0,0,1-.83.18,3.23,3.23,0,0,1-1-.08c-.76-.23-1.31-.94-2.08-1.1a3.19,3.19,0,0,1-.88-.17,6.65,6.65,0,0,0-.56-.36,1.73,1.73,0,0,0-1.08.18c-.36.11-.86.06-1-.3A.55.55,0,0,1,39,60a1.5,1.5,0,0,1,.61-.22,10.37,10.37,0,0,1,1.12-.13,1.42,1.42,0,0,1,.58,0c.39.13.71.44,1.11.57a5.43,5.43,0,0,0,1,.15C44.15,60.45,44.61,61.09,45.31,61.19Z"/><path d="M79.34,59.11c-.16.48.14,1.09-.2,1.47-.16.18-.42.23-.6.39A1.07,1.07,0,0,0,78.33,62a4.72,4.72,0,0,1,.26,1.11c0,.4-.18.8-.13,1.2s.55,1,.32,1.52-.8.56-.82,1,.77.8.63,1.28c0,.14-.18.26-.18.42s.27.34.41.52A1.31,1.31,0,0,1,79,70c0,.31,0,.69.34.81a1.29,1.29,0,0,0,.48,0,1.3,1.3,0,0,1,1.21.87c.45-.19.57-.75.62-1.22a29,29,0,0,0-1-10.92c-.07-.25-.21-1.2-.49-1.28S79.41,58.88,79.34,59.11Z"/><path d="M159.32,93.76c-.21,0-.32.25-.42.44a8.44,8.44,0,0,1-2.75,3.18c-1,.68-2.41,1-2.38,2.43a4,4,0,0,1-.3,2.34,8.79,8.79,0,0,0-.51.83,2.78,2.78,0,0,0,.71,2.51,1.36,1.36,0,0,0,.69.61,1.11,1.11,0,0,0,1.15-.62c.24-.41.35-.88.62-1.26s.53-.54.75-.85.18-.61.3-1a7.15,7.15,0,0,1,1.5-2A6.33,6.33,0,0,0,160,97C160.07,96.47,160.22,93.63,159.32,93.76Z"/><path d="M120.36,41.57a1.81,1.81,0,0,0-.34-.4,1.83,1.83,0,0,1-.32-1c-.37-.07-.69.26-.87.58a1.91,1.91,0,0,0-.25.74,1.63,1.63,0,0,0,0,.54c0,.3-.1,1.42.13,1.61s.87-.52,1-.71a2,2,0,0,0,.62-1.07A.93.93,0,0,0,120.36,41.57ZM125,44.05a1.4,1.4,0,0,0-.79-.23c-.47,0-2.27.54-1.71,1.27a.67.67,0,0,0,.2.17.87.87,0,0,0,.27.14c.32,0,.53-.32.84-.41s.7.22,1,.19a1.31,1.31,0,0,0,.47-.24.2.2,0,0,0,.1-.08.15.15,0,0,0,0-.13A1,1,0,0,0,125,44.05Zm0,0a1.4,1.4,0,0,0-.79-.23c-.47,0-2.27.54-1.71,1.27a.67.67,0,0,0,.2.17.87.87,0,0,0,.27.14c.32,0,.53-.32.84-.41s.7.22,1,.19a1.31,1.31,0,0,0,.47-.24.2.2,0,0,0,.1-.08.15.15,0,0,0,0-.13A1,1,0,0,0,125,44.05Zm-4.66-2.48a1.81,1.81,0,0,0-.34-.4,1.83,1.83,0,0,1-.32-1c-.37-.07-.69.26-.87.58a1.91,1.91,0,0,0-.25.74,1.63,1.63,0,0,0,0,.54c0,.3-.1,1.42.13,1.61s.87-.52,1-.71a2,2,0,0,0,.62-1.07A.93.93,0,0,0,120.36,41.57ZM125,44.05a1.4,1.4,0,0,0-.79-.23c-.47,0-2.27.54-1.71,1.27a.67.67,0,0,0,.2.17.87.87,0,0,0,.27.14c.32,0,.53-.32.84-.41s.7.22,1,.19a1.31,1.31,0,0,0,.47-.24.2.2,0,0,0,.1-.08.15.15,0,0,0,0-.13A1,1,0,0,0,125,44.05Zm-4.66-2.48a1.81,1.81,0,0,0-.34-.4,1.83,1.83,0,0,1-.32-1c-.37-.07-.69.26-.87.58a1.91,1.91,0,0,0-.25.74,1.63,1.63,0,0,0,0,.54c0,.3-.1,1.42.13,1.61s.87-.52,1-.71a2,2,0,0,0,.62-1.07A.93.93,0,0,0,120.36,41.57Zm0,0a1.81,1.81,0,0,0-.34-.4,1.83,1.83,0,0,1-.32-1c-.37-.07-.69.26-.87.58a1.91,1.91,0,0,0-.25.74,1.63,1.63,0,0,0,0,.54c0,.3-.1,1.42.13,1.61s.87-.52,1-.71a2,2,0,0,0,.62-1.07A.93.93,0,0,0,120.36,41.57ZM125,44.05a1.4,1.4,0,0,0-.79-.23c-.47,0-2.27.54-1.71,1.27a.67.67,0,0,0,.2.17.87.87,0,0,0,.27.14c.32,0,.53-.32.84-.41s.7.22,1,.19a1.31,1.31,0,0,0,.47-.24.2.2,0,0,0,.1-.08.15.15,0,0,0,0-.13A1,1,0,0,0,125,44.05Zm0,0a1.4,1.4,0,0,0-.79-.23c-.47,0-2.27.54-1.71,1.27a.67.67,0,0,0,.2.17.87.87,0,0,0,.27.14c.32,0,.53-.32.84-.41s.7.22,1,.19a1.31,1.31,0,0,0,.47-.24.2.2,0,0,0,.1-.08.15.15,0,0,0,0-.13A1,1,0,0,0,125,44.05Zm-4.66-2.48a1.81,1.81,0,0,0-.34-.4,1.83,1.83,0,0,1-.32-1c-.37-.07-.69.26-.87.58a1.91,1.91,0,0,0-.25.74,1.63,1.63,0,0,0,0,.54c0,.3-.1,1.42.13,1.61s.87-.52,1-.71a2,2,0,0,0,.62-1.07A.93.93,0,0,0,120.36,41.57Z"/><path d="M193.56,53.6c.24,0,.38.32.47.55.17.42.33.82.51,1.24a.93.93,0,0,0,.32.48h0V18.17H188.3c-.17.55,0,1.37-.58,1.57,0-.31-.5-.26-.78-.13s-.74.17-.79-.13c.17-.28.35-.54.53-.81a1.39,1.39,0,0,1-1-.5H162.9a12.09,12.09,0,0,1-3.94,2.7l-.53.15-1,.28a1.23,1.23,0,0,1-.7.07,3.2,3.2,0,0,1-.54-.32.84.84,0,0,0-1.06.42.38.38,0,0,1-.15.24.27.27,0,0,1-.2,0,1.65,1.65,0,0,1-.75-.33,5,5,0,0,1-.67-.71,1.34,1.34,0,0,0-.84-.41c-.32,0-.66.3-.59.6,0,.13.1.3,0,.38s-.1.05-.15.07c-.49.07-1,.15-1.46.24a9.49,9.49,0,0,0-1.54.35,6.57,6.57,0,0,0-.67.22,3.64,3.64,0,0,1-.91.21,1.56,1.56,0,0,0-.89.26,1.63,1.63,0,0,1-.83.21.76.76,0,0,1-.72-.43,1.48,1.48,0,0,0-.19-.4.64.64,0,0,0-.45-.19.46.46,0,0,1-.39-.28.37.37,0,0,1,.19-.34.84.84,0,0,1,.37-.1,8,8,0,0,1,2-.12,3,3,0,0,0,.84.05.85.85,0,0,0,.5-.2.54.54,0,0,0,.2-.22.18.18,0,0,0,0-.11c0-.1-.14-.17-.26-.2a4.43,4.43,0,0,0-.65-.09c-.59,0-1.24.07-1.78,0a1.68,1.68,0,0,1-1-.35c-.25-.24-.35-.62-.67-.76a1.22,1.22,0,0,0-.54-.07c-.65.06-1.17-.05-1.82.06a1.88,1.88,0,0,1-1.34-.34,1.88,1.88,0,0,0-.39-.29,1.57,1.57,0,0,0-.52-.08,27,27,0,0,1-3.12-.07,8,8,0,0,0-1.11-.13h-.11a5,5,0,0,0-1.06.23,5.92,5.92,0,0,1-1.62.22,14.73,14.73,0,0,0-3.94.37c-.41.14-.88.32-1,.74,0,.12,0,.25-.1.37a.77.77,0,0,1-.57.53c-.2.05-.43,0-.58.17a1.56,1.56,0,0,0-.14.19,1.19,1.19,0,0,1-.69.31,4.93,4.93,0,0,0-1.57,1.11,2.89,2.89,0,0,1-1.81.94,3.47,3.47,0,0,0-.91,0,1.12,1.12,0,0,0-.7.54c-.07.12-.09.27-.17.4a1.12,1.12,0,0,1-.72.35,4.16,4.16,0,0,0-.89.24c-.37.2-.75.45-.74.89a1.22,1.22,0,0,0,.54,1,2.12,2.12,0,0,0,1.27.32.79.79,0,0,0,.34-.1.65.65,0,0,0,.18-.19,2.57,2.57,0,0,1,2.07-1,1,1,0,0,1,.7-.1.51.51,0,0,1,.17,0s.08.09.13.14.17.33.27.5a.92.92,0,0,1,.39.65c.06.25.06.52.13.77a1.37,1.37,0,0,0,.27.57c.2.31.64.52.92.29s.3-.69.65-.77a1.78,1.78,0,0,1,.46,0,1.32,1.32,0,0,0,.63-.13c.15-.05.34,0,.47-.05.51-.36-.4-1.43.24-1.76a1.93,1.93,0,0,1,.43-.09c.37-.1.51-.53.59-.9.05-.2.08-.44-.08-.56s-.1-.05-.12-.1a.18.18,0,0,1,0-.13,1.09,1.09,0,0,1,.06-.44,1.17,1.17,0,0,1,.29-.3,4.33,4.33,0,0,1,1.61-.79,2.8,2.8,0,0,0,.84-.25,2.84,2.84,0,0,0,.68-.82,1.41,1.41,0,0,1,.46-.45.57.57,0,0,1,.41-.12l.58-.17a.58.58,0,0,0,.26-.11c.1-.05.15-.16.24-.22a1.43,1.43,0,0,1,.67-.37s.1,0,.15,0a1.92,1.92,0,0,1,1.07.75.33.33,0,0,1,.05.12c0,.16-.2.25-.27.4s0,.25,0,.37c-.17.57-.89.74-1.37.92a3.93,3.93,0,0,1-.52.17,5.47,5.47,0,0,1-1,0,.75.75,0,0,0-.25.09,1.28,1.28,0,0,0-.56.45c-.1.12,0,.32.09.44a1.12,1.12,0,0,0,.48.18c.25,0,.54.12.79.19a2.43,2.43,0,0,0,.7.08,6.72,6.72,0,0,0,.89-.32,3.94,3.94,0,0,1,1.08-.08l1.67.11a1,1,0,0,1,.24,0,1.24,1.24,0,0,1,.23.12,4.87,4.87,0,0,0,.56.28,1.21,1.21,0,0,1,.6.24.64.64,0,0,1-.1.9.58.58,0,0,1-.29.05h-1.47l-.29,0c-.55.11-1-.33-1.52-.43a.72.72,0,0,0-.69.17.78.78,0,0,0-.18.5,1,1,0,0,0,.11.64c.09.13.71.26.61.42l-.09.05-.43.2a.46.46,0,0,1-.3.08.78.78,0,0,1-.32-.12,1.63,1.63,0,0,0-1.48.25.9.9,0,0,0-.3.51c0,.1,0,.22,0,.32a.11.11,0,0,1,0,.05c-.1.42-.59.62-1,.7-1,.17-2.08,0-3.08.25-.35.07-.69.2-1,.24a5.88,5.88,0,0,1-1.11,0,15,15,0,0,0-3.48.12.48.48,0,0,1-.56-.35c0-.09,0-.17-.06-.26s-.36-.28-.42-.5,0-.33,0-.49a.36.36,0,0,0-.4-.2.84.84,0,0,0-.44.24,1.44,1.44,0,0,0-.58,1.24,2.17,2.17,0,0,1,.08.43.75.75,0,0,1-.65.57,5.32,5.32,0,0,1-1.13.07,2.11,2.11,0,0,0-1.2.34c-.17.15-.29.33-.46.47s-.57.25-.82.43-.53.81-.9,1.11a4.85,4.85,0,0,1-1.26.52,4.1,4.1,0,0,0-.7.43c-.44.32-.88.62-1.31.94a.93.93,0,0,1-.4.22.38.38,0,0,1-.39-.18c0-.09,0-.17,0-.25s-.18-.17-.3-.24-.22-.22-.17-.35.25-.2.4-.2.34.05.51.05c.5,0,.9-.42,1.39-.61L113,33a1,1,0,0,0,.58-.34.53.53,0,0,0,0-.65c-.14-.14-.34-.17-.47-.3s-.15-.42-.29-.61a.85.85,0,0,0-.42-.28c-.58-.24-1.15-.51-1.72-.74-.17-.29-.07-.64-.09-1,0,0,0-.05,0-.07a.17.17,0,0,0-.12,0,1,1,0,0,1-.38-.09.15.15,0,0,1-.11-.06c-.06-.09,0-.21,0-.31s-.15-.26-.3-.35,0,0-.06,0c-.21-.1-.56-.27-.76-.39a.6.6,0,0,0-.69.17,2.2,2.2,0,0,0-.33.69.29.29,0,0,1-.07.12.3.3,0,0,1-.18.06c-.19,0-.41.12-.42.3a.41.41,0,0,0,.07.22c.11.27.38.5.43.79a1.69,1.69,0,0,0,.32.74,1.82,1.82,0,0,0,.75.62v.3a1.52,1.52,0,0,1-1.27,0,2.6,2.6,0,0,1-.42-.15,2.06,2.06,0,0,1-.49-.25,2.21,2.21,0,0,0-.4-.41c-.37-.25-.85,0-1.2.27-.52.44-.93,1-1.46,1.41-.15.12-.44.19-.56.34s-.06.57-.05.82c0,.05,0,.12,0,.15s.13.07.2.07c.42,0,.84,0,1.25,0a.41.41,0,0,0,.34-.12c.07-.1,0-.23,0-.35,0-.37.47-.55.82-.49s.66.29,1,.34a3.14,3.14,0,0,1,.54,0,.44.44,0,0,1,.37.34.72.72,0,0,1,.54.05,2.05,2.05,0,0,0,.23.2.62.62,0,0,0,.27,0l1.11-.07a1.37,1.37,0,0,0,.25,1.16.77.77,0,0,1-.71.38,3.37,3.37,0,0,0-.84,0c-.26,0-.55.3-.48.57.3.39.9.27,1.36.47s.83.94,1.35,1c.22,0,.32.29.27.49a2,2,0,0,1-.35.52,8.06,8.06,0,0,1-.47.72,2.25,2.25,0,0,1-.94.57,1.63,1.63,0,0,1-.58.13c-.31,0-.59-.21-.89-.16a1.4,1.4,0,0,0-.35.1c-.68.23-1.41-.34-2.1-.19a1.32,1.32,0,0,0-.82.39c-.24.27-.22.69-.45,1s-.49.29-.69.47a2.64,2.64,0,0,0-.4.57s0,0,0,0a11.14,11.14,0,0,0-.71,1c-.16.42-.8.45-.57.8.14.19.29.39.47.59a6,6,0,0,0,1.4,1.29,2,2,0,0,0,.41.22,3.39,3.39,0,0,0,.94.08,4.26,4.26,0,0,1-.13,2.3c-.49,1-1.69,1.51-2.38,2.41-.45.59-.66,1.33-1.07,2a10.78,10.78,0,0,1-.73.8c-.31.32-.63.64-.93,1s-.49.48-.72.72a3.73,3.73,0,0,0-.34.35,5.93,5.93,0,0,0-1.54,2.06,10.73,10.73,0,0,1-.67,2.3c-.2.33-.47.43-.62.8a.82.82,0,0,0-.39.86c0,.33.17.65.19,1s0,.52,0,.79c0,.67.32,1.32.34,2,0,.92-.52,1.76-.59,2.67a1.14,1.14,0,0,0,.08.63,1.63,1.63,0,0,0,.36.46,17.4,17.4,0,0,1,2.06,2.61,2.91,2.91,0,0,1,.27.49,1,1,0,0,1,.11.27c.09.23.14.48.24.72a2.91,2.91,0,0,0,.59.73c.57.56,1.14,1.09,1.72,1.65s1.13.78,1.56,1.25a3.21,3.21,0,0,0,2.23.83c.81,0,1.63-.11,2.43,0a.7.7,0,0,1,.49.18c.25.31.2.37.59.36a1.32,1.32,0,0,0,.78-.36c.24-.21.32-.55.56-.77.48-.43,1.34-.15,1.84-.57.17-.15.27-.35.44-.52.55-.57,1.35-.35,2-.32.54,0,1.18.19,1.19.88,0,.48-.43,1-.2,1.42a2.86,2.86,0,0,0,1.91-.44.71.71,0,0,1,.37-.16c.17,0,.32.15.49.18s.47-.1.68-.2.54-.13.66.08a.84.84,0,0,1,.07.26c.15.4.72.35,1.1.5a1.28,1.28,0,0,1,.74,1.19,3.63,3.63,0,0,1-.32,1.44c-.32.86-.49,2-1.27,2.38-.17.09-.1.35,0,.49s.34.22.4.38a1.7,1.7,0,0,1,.07.46c.08.28.39.41.64.57a4.15,4.15,0,0,1,2,2.53,4.35,4.35,0,0,0,.79,2.19,1.21,1.21,0,0,1,.52,1.33c.11.7.75,1.2,1.07,1.86a2.15,2.15,0,0,1,.1,1.52c-.18.57-.55.83-.72,1.4a3.79,3.79,0,0,0-1.23,4.1,2,2,0,0,0,.21.44c.16.2.4.33.57.55s.2.54.35.81a2,2,0,0,0,.42.5l1.39,1.39a1.26,1.26,0,0,1,.33.47,2,2,0,0,1-.08.92,2.24,2.24,0,0,0,.6,1.73,4.79,4.79,0,0,0,1.56,1.06,1.3,1.3,0,0,1,.59.4c.22.33.1.77.15,1.16.1.6.62,1.07.79,1.65s-.2,1.3.13,1.7a.61.61,0,0,0,.52.22,1.7,1.7,0,0,0,.46-.07,6.74,6.74,0,0,0,1.3-.59,2.44,2.44,0,0,1,.94-.25c.25,0,.52.07.79.07a1.83,1.83,0,0,0,1.21-.45.52.52,0,0,1,.26-.19.57.57,0,0,1,.42.19,2.17,2.17,0,0,0,2,.11,6.41,6.41,0,0,0,1.75-1.22l1.07-1a1.85,1.85,0,0,1,.89-.52,4,4,0,0,0,.48,0c.51-.1.71-.72.64-1.22s-.52-1.11-.22-1.53a.84.84,0,0,1,1-.3,2.07,2.07,0,0,0,.43.2c.35.07.65-.2.91-.45.55-.56,1.09-1.09,1.62-1.65a.28.28,0,0,0,.09-.1.19.19,0,0,0-.05-.13,1.36,1.36,0,0,0-.89-.57.8.8,0,0,0-.19-.82,3.15,3.15,0,0,1-.52-.71c-.16-.57.29-1.1.71-1.52a2.2,2.2,0,0,1,.37-.3A2.72,2.72,0,0,1,146,100a6.38,6.38,0,0,0,2.58-1.55,1.93,1.93,0,0,1,.66-.5c.35-.13.77,0,1-.25a.93.93,0,0,0,.32-.77,4.81,4.81,0,0,0-.17-.84,2.35,2.35,0,0,1,.19-1.63,2.3,2.3,0,0,0,.32-.75.42.42,0,0,0,0-.27c0-.07-.13-.1-.2-.13a1,1,0,0,1-.42-.77,2.68,2.68,0,0,0-.2-.88c-.08-.18-.25-.35-.32-.55a3.63,3.63,0,0,1-.05-.65,2.42,2.42,0,0,0-.26-.84,7.21,7.21,0,0,0-.83-1.9c-.31-.37,0-1,.39-1.22s.91-.44,1.17-.84.24-.74.46-1a3.16,3.16,0,0,1,1-.76c1.09-.72,1.53-2.13,2.55-2.93a15.23,15.23,0,0,0,1.73-1.36c.5-.5,1-1,1.52-1.54a2.49,2.49,0,0,0,.4-.46c.12-.2.21-.41.31-.62a5.31,5.31,0,0,1,1.22-1.29,3,3,0,0,0,1-1.62c.25-.22.15-.62.25-.94.22-.62,1.38-.91,1-1.73-.27-.67-1.81-.45-2.35-.2s-.7.94-1.29.82a3.69,3.69,0,0,1-.42-.17c-.58-.23-1.2.31-1.84.39a2.7,2.7,0,0,1-1.38-.3.71.71,0,0,1-.48-.74,2,2,0,0,0-.25-1.07c-.2-.27-.56-.39-.82-.61a6.5,6.5,0,0,1-.64-.75,10.41,10.41,0,0,0-1-.81,3,3,0,0,1-.94-1.49,2.86,2.86,0,0,0-.25-.8,4.45,4.45,0,0,0-.54-.61c-.69-.7-.64-1.74-1.39-2.38a.64.64,0,0,1-.57-.55c-.07-.27,0-.55-.1-.84a3.42,3.42,0,0,0-.64-1,4.91,4.91,0,0,1-.91-1.93,3.09,3.09,0,0,0-.35-1.19c-.13-.21-.32-.36-.48-.57a3.46,3.46,0,0,1-.39-.58c-.28-.49-.59-1-.87-1.48a.36.36,0,0,1-.07-.18.43.43,0,0,1,0-.24,2.29,2.29,0,0,1,.3-.58.17.17,0,0,1,.1-.12c.12-.07.23,0,.37.1a.5.5,0,0,0,.5,0,.71.71,0,0,1,.2-.12c.19,0,.29.18.39.33.21.36.68.46.94.78a4.72,4.72,0,0,1,.4.88c.27.57.87.91,1.32,1.35a6.22,6.22,0,0,1,.87,1.05,2,2,0,0,1,.51,1.14,5,5,0,0,0-.15,1,1.66,1.66,0,0,0,.16.49,3.28,3.28,0,0,0,.84,1.14c.19.15.4.25.59.4a2.49,2.49,0,0,1,.6.82c.19.32.37.64.54,1a1.09,1.09,0,0,0,.35.44,5.65,5.65,0,0,0,.57.23c.19.09.3.17.22.36a2.77,2.77,0,0,1,.62,1.89,17.19,17.19,0,0,0,0,2,.61.61,0,0,0,.15.38c.2.21.53.12.8.15s.66.21,1,.22c.75,0,1.26-.72,1.93-1a10.66,10.66,0,0,1,2.26-.46,5.51,5.51,0,0,0,2.08-1.27c.59-.47,1.16-1,1.73-1.43a1.22,1.22,0,0,1,.58-.33,2.85,2.85,0,0,0,.66,0,.73.73,0,0,0,.33-.3l.05-.07,1.41-2a2.3,2.3,0,0,1,1-.92c.35-.13.79-.12,1-.39a.85.85,0,0,0,0-1,2.63,2.63,0,0,0-.81-.71c-.25-.16-.48-.33-.74-.48a1.67,1.67,0,0,1-.46-.42c-.14-.19-.19-.44-.31-.64a1.38,1.38,0,0,0-2-.1,2.94,2.94,0,0,1-.81.64A1.65,1.65,0,0,1,162.5,58a16.32,16.32,0,0,1-2.8-2.39,3,3,0,0,1-.74-1,3.28,3.28,0,0,1-.1-1.17c0-.4,0-.8,0-1.19a1.16,1.16,0,0,1,.21-.7.78.78,0,0,1,.85-.17,2.12,2.12,0,0,1,.76.57l2.06,2a3.76,3.76,0,0,0,.92.72,2.6,2.6,0,0,0,.54.17c.67.1,1.39,0,2.06,0a1,1,0,0,1,.62.2,1.86,1.86,0,0,1,.3.37,3,3,0,0,0,.7.67,6,6,0,0,0,1.8,1.12c1.72.59,3.9-.75,5.18.54.43.45.53,1.17,1,1.62s1.23.57,1.51,1.13c.22.4.2,1,.62,1.12s.56-.1.81-.27.6-.28.82-.1a.77.77,0,0,1,.18.56,9.81,9.81,0,0,1-.13,1.87,6.78,6.78,0,0,0-.15,1.8,9.55,9.55,0,0,0,1.12,2.38,18.77,18.77,0,0,1,.61,1.88,10.79,10.79,0,0,1,.82,2.44,1.07,1.07,0,0,0,.12.59c.18.26.56.25.83.41a1.5,1.5,0,0,1,.56.84L184,75a1,1,0,0,0,.26.43.6.6,0,0,0,.68,0,1.24,1.24,0,0,0,.46-.55,2.47,2.47,0,0,0,.19-1.42.49.49,0,0,0-.08-.24c-.14-.18-.42-.14-.62-.24a.81.81,0,0,1-.27-.31,2.05,2.05,0,0,1-.36-1.28c.07-.43.4-.82.5-1.25a4.41,4.41,0,0,0-.32-2.19,2.43,2.43,0,0,1-.14-1.06,2,2,0,0,1,.57-1c.82-.85,2-1.51,2.38-2.63.19-.52.2-1.11.59-1.49a1.9,1.9,0,0,1,.74-.43,1.07,1.07,0,0,0,.22.2.24.24,0,0,0,.09.08,2.9,2.9,0,0,0,.7.3,4.1,4.1,0,0,0,1.73.38,12.46,12.46,0,0,0,1.88-.6.32.32,0,0,1,.25,0,.34.34,0,0,1,.18.25,1.48,1.48,0,0,1-.54,1.44c-.22.17-.51.27-.75.43a1.24,1.24,0,0,0-.27.29.55.55,0,0,0-.09.44c0,.19.18.33.19.52s-.25.61-.37.92a1.48,1.48,0,0,0,0,.19c0,.47.54.71,1,.84l.15,0,1.61.45.23.06.16,0v-9.4a3.59,3.59,0,0,1-.65,0A1.3,1.3,0,0,1,193,57.09a8.9,8.9,0,0,1,.21-1,2.85,2.85,0,0,0-.45-1.3,1,1,0,0,1-.08-.26.85.85,0,0,1,.12-.37C193,53.88,193.24,53.54,193.56,53.6Zm-47.15-6.14a.66.66,0,0,1,0,.27,1.91,1.91,0,0,1-.15.28c-.68.94-1.37,1.9-2.08,2.83a.72.72,0,0,1-.35.34.76.76,0,0,1-.68-.18,3.23,3.23,0,0,0-.56-.49,1.22,1.22,0,0,0-1,0c-.33.13-.63.33-1,.5a3,3,0,0,1-1,.28.83.83,0,0,1-.72-.2,1.09,1.09,0,0,0-.17-.22.36.36,0,0,0-.22,0c-.52,0-1,.32-1.52.19a1.7,1.7,0,0,1-.62-.4l-1.18-1a.75.75,0,0,0-.33-.2,1.17,1.17,0,0,0-.37,0c-.74,0-1.26-.72-2-.57a.51.51,0,0,0-.59-.17h0a1,1,0,0,0-.46.19c-.3.25-.48.62-.78.88s-.52.34-.66.61c-.22.43,0,1.1-.38,1.37a1.07,1.07,0,0,1-.27.09,2.21,2.21,0,0,1-1.8-.49,3.54,3.54,0,0,0-.6-.5c-.49-.27-1.19-.09-1.61-.47-.12-.1-.2-.25-.3-.35a1.2,1.2,0,0,0-1-.26c-.36,0-.69.16-1,.19a1,1,0,0,1-.51,0c-.18-.09-.31-.27-.5-.39a4.38,4.38,0,0,0-.69-.32A3.1,3.1,0,0,1,120.12,48a1.6,1.6,0,0,1-.23-.52c-.07-.64.75-1.18.53-1.76s-.75-.49-1.2-.47c-2,.1-4,.37-5.94.28A3.61,3.61,0,0,0,111,46a1.91,1.91,0,0,1-.52.33,3.91,3.91,0,0,1-.39.07,2.79,2.79,0,0,0-1.27.76,1,1,0,0,1-.71.28l-1.14.07c-.38,0-.9,0-1-.4a.49.49,0,0,1,0-.27c.06-.09.16-.15.21-.25s0-.22,0-.34a.71.71,0,0,1,.77-.64c.52.07.79.46,1.29.29a3.41,3.41,0,0,0,1.19-.76.47.47,0,0,0,.17-.2,1,1,0,0,0,.07-.21c.08-.26.33-.41.55-.56a1.88,1.88,0,0,0,.89-1.71c0-.28-.19-.65.07-.8a.53.53,0,0,1,.28-.07,3,3,0,0,0,1.19-.25,1.32,1.32,0,0,0,.77-.89,1.38,1.38,0,0,1,.17-.52.84.84,0,0,1,.79-.2,1.66,1.66,0,0,1,.85.22c.17.11.34.3.54.27s.22-.14.3-.22l1-1.18a2.36,2.36,0,0,1,.54-.5,2.46,2.46,0,0,1,1.77-.18,2,2,0,0,1,1.36.55q.51.42,1,.87a2.38,2.38,0,0,0,.85.62,3.34,3.34,0,0,0,.4.1c.44.14.74.54,1.13.79s1.29.49,1.56,1.07a4.84,4.84,0,0,0,.21.47.77.77,0,0,0,1.08,0c.3-.28.65-.72.52-1.1-.2-.59-.84-.89-1.43-1.14s-1.15-.47-1.72-.72a1.33,1.33,0,0,1-.62-.41c-.21-.28-.17-.7-.41-1s-1-.26-1.05-.77,1-.94,1.46-.8a2.41,2.41,0,0,1,.8.47c.2.15.4.3.6.47l.26.2a3.49,3.49,0,0,0,.25.32,2,2,0,0,0,1,.47,25.71,25.71,0,0,1,2.87,1.57,1.22,1.22,0,0,1,.69,1.06c0,.2,0,.43.1.59a1.75,1.75,0,0,0,.2.16.54.54,0,0,1,.13.32,5.13,5.13,0,0,1,.17,1.11,1.38,1.38,0,0,0,0,.45,1.06,1.06,0,0,0,.22.42,1.88,1.88,0,0,0,.74.64h0a1.45,1.45,0,0,1,.7-.38l.52-.17c.27-.08.56-.2.64-.47s-.52-.8-.37-1.19a.82.82,0,0,0-.15-.8c-.08-.09-.18-.16-.2-.27a.43.43,0,0,1,.07-.29c.26-.55.62-1.15,1.22-1.24a1.85,1.85,0,0,1,1.32.56,1.28,1.28,0,0,1,.39.38,1.53,1.53,0,0,1,.15.67c0,.34.05.67.07,1a1.35,1.35,0,0,0,.1.47,1.76,1.76,0,0,0,.38.39c.69.53,1.13,1.34,1.87,1.79a1.34,1.34,0,0,0,.68.22.71.71,0,0,0,.59-.37,2.24,2.24,0,0,0,.08-.39,1,1,0,0,1,.59-.57,3,3,0,0,1,.84-.13,1.17,1.17,0,0,1,.64.07c.35.15.5.6.82.83a1.31,1.31,0,0,0,1.19.07,10.74,10.74,0,0,1,1.15-.43,1.11,1.11,0,0,1,1.13.33,1.55,1.55,0,0,1,.16.86C146.42,46.39,146.41,46.92,146.41,47.46Zm5.18-6.69a2.62,2.62,0,0,1-.54.62,1,1,0,0,1-.33.2,1.3,1.3,0,0,1-.52,0,2.46,2.46,0,0,0-.77.08,3.06,3.06,0,0,1-.71.17,1.31,1.31,0,0,1-.5-.12A19.47,19.47,0,0,1,144.68,40a.58.58,0,0,0-.62.09c-.18.12-.33.28-.52.4a2,2,0,0,1-.94.17h-2.33a.88.88,0,0,0-.48.09,1.81,1.81,0,0,0-.32.22.73.73,0,0,1-.77.08,1.08,1.08,0,0,1-.47-.94c0-.35.18-.69.21-1a7.05,7.05,0,0,0-.05-1.12,2.17,2.17,0,0,1,.64-1.54,1.3,1.3,0,0,1,.39-.27c.1,0,.2,0,.3-.09a2.43,2.43,0,0,0,.6-.31,1.75,1.75,0,0,1,1.16-.49,2.27,2.27,0,0,1,.7.27,4,4,0,0,1,1.39,1.2c.21.29.42.63.78.71a.94.94,0,0,0,1-.57,2,2,0,0,1,.28-.54A2.4,2.4,0,0,1,146,36a5.76,5.76,0,0,0,.55-.64.54.54,0,0,1,.74-.1,2.49,2.49,0,0,1,.17.24c.1.1.27.15.37.27a.57.57,0,0,1,.1.37,2.32,2.32,0,0,1-.17.9.74.74,0,0,0-.13.5A.53.53,0,0,0,148,38a1.49,1.49,0,0,0,.55.07c.25,0,.47-.07.69.06a6.15,6.15,0,0,0,.52.37,2.92,2.92,0,0,0,.6.14,1.77,1.77,0,0,1,1.19.77A1.43,1.43,0,0,1,151.59,40.77Zm12,1.76c-.32.28-.94,0-1.19.3-.34.5.41.7.65.92s.43,1.08.52,1.53a1.2,1.2,0,0,1-.44,1.27,1.13,1.13,0,0,1-.87,0l-.2-.07a8.21,8.21,0,0,0-1.42-.59c-.27,0-.54,0-.81-.1a2.59,2.59,0,0,1-1.11-.74,1.84,1.84,0,0,1-.53-.67.81.81,0,0,1,.06-.82c.09-.12.22-.18.32-.3a1.15,1.15,0,0,0-.11-1.49,3.71,3.71,0,0,1-.66-.82c-.17-.44,0-.94-.13-1.39a7.11,7.11,0,0,0-.64-1.06,1.53,1.53,0,0,1,.12-1.61.78.78,0,0,1,.5-.34,1.4,1.4,0,0,1,.4.07,2.57,2.57,0,0,0,.61.09h0a1.59,1.59,0,0,0,.72-.17,4,4,0,0,0,.56-.34,2,2,0,0,1,2,0A2.32,2.32,0,0,1,163,38a.82.82,0,0,1-.07.51.42.42,0,0,1-.42.23,1,1,0,0,1-.33-.18,1.44,1.44,0,0,0-1.34,0,.9.9,0,0,0-.49.28c-.29.35,0,.94.4,1.14a4.22,4.22,0,0,0,1.36.27,3.55,3.55,0,0,1,1.48.52.26.26,0,0,1,.13.12.42.42,0,0,1,0,.31,1.62,1.62,0,0,0,.08.69A.75.75,0,0,1,163.63,42.53Z"/><path d="M99.85,25.29c.25,0,.52.12.71,0s.11-.14.18-.18A.38.38,0,0,1,101,25l.68-.06c.16,0,.36,0,.43.14s0,.28-.12.4a3.85,3.85,0,0,1-2.53,1.35,3.47,3.47,0,0,0-.71.1,4.73,4.73,0,0,0-.6.29,2.66,2.66,0,0,1-1,.24c-.61,0-1.11-.39-.91-1A1.49,1.49,0,0,1,98,25.68c-.2.6.54.4.82.22S99.42,25.3,99.85,25.29Z"/><line class="cls-4" x1="45.51" y1="9.58" x2="74.59" y2="9.58"/><line class="cls-4" x1="76.96" y1="9.58" x2="86.93" y2="9.58"/><line class="cls-4" x1="89.34" y1="9.58" x2="95.59" y2="9.58"/><line class="cls-4" x1="97.69" y1="9.58" x2="103.94" y2="9.58"/><line class="cls-4" x1="105.85" y1="9.58" x2="133.62" y2="9.58"/></g></g></svg>