<svg xmlns="http://www.w3.org/2000/svg" xmlns:xlink="http://www.w3.org/1999/xlink" viewBox="0 0 76.61 48.99"><defs><style>.cls-1{fill:none;stroke:#000;stroke-miterlimit:10;stroke-width:0.15px;}.cls-2{isolation:isolate;}.cls-3{clip-path:url(#clip-path);}.cls-4{clip-path:url(#clip-path-2);}.cls-5{clip-path:url(#clip-path-3);}.cls-6{clip-path:url(#clip-path-4);}.cls-7{clip-path:url(#clip-path-5);}.cls-8{clip-path:url(#clip-path-6);}.cls-9{clip-path:url(#clip-path-7);}.cls-10{clip-path:url(#clip-path-8);}.cls-11{clip-path:url(#clip-path-9);}.cls-12{clip-path:url(#clip-path-10);}.cls-13{clip-path:url(#clip-path-11);}.cls-14{clip-path:url(#clip-path-12);}.cls-15{clip-path:url(#clip-path-13);}.cls-16{clip-path:url(#clip-path-14);}.cls-17{clip-path:url(#clip-path-15);}.cls-18{clip-path:url(#clip-path-16);}.cls-19{clip-path:url(#clip-path-17);}.cls-20{clip-path:url(#clip-path-18);}.cls-21{clip-path:url(#clip-path-19);}.cls-22{clip-path:url(#clip-path-20);}.cls-23{clip-path:url(#clip-path-21);}.cls-24{clip-path:url(#clip-path-22);}.cls-25{clip-path:url(#clip-path-23);}.cls-26{clip-path:url(#clip-path-24);}.cls-27{clip-path:url(#clip-path-25);}</style><clipPath id="clip-path"><path class="cls-1" d="M64.88,5.57A14.83,14.83,0,0,0,55.5,3.83C50.85,1.19,39.4.08,29.92,1.36c-6.76.91-10.7,2.79-10.7,4.75C8.68,6.09.09,14.31.08,24.43a20.46,20.46,0,0,1,1.23-7,21.14,21.14,0,0,1,1.57-3.36,21.93,21.93,0,0,1,2.12-3c.33-.37.75-.88,1.1-1.23.53-.53,1.26-1.21,1.83-1.7A28.25,28.25,0,0,1,11,6,31.11,31.11,0,0,1,15.6,3.66c.77-.32,1.84-.66,2.63-.93.5-.16,1.18-.34,1.69-.49A61.7,61.7,0,0,1,31.23.36a83.79,83.79,0,0,1,13.26,0A64.51,64.51,0,0,1,55.45,2a45.07,45.07,0,0,1,5.39,1.69c.76.29,1.75.74,2.48,1.09C63.8,5,64.42,5.32,64.88,5.57Z"/></clipPath><clipPath id="clip-path-2"><path class="cls-1" d="M27.35.78A85.12,85.12,0,0,1,48.15.66c2.15.27,2.9.39,5.35.86.87.17,2.61.59,3.64.89a34.29,34.29,0,0,1,7.74,3.16c4.67,2.65,7.75,7.89,7.74,14.31-9.29-5.28-32.19-7.49-51.14-4.94C7.94,16.76.08,20.51.08,24.43c0-.5,0-1.17.07-1.68a17.27,17.27,0,0,1,.26-2c.21-.95.55-2.22.85-3.15a15.93,15.93,0,0,1,.66-1.66,15.43,15.43,0,0,1,.83-1.62c.5-.84,1.22-1.92,1.8-2.71A24.36,24.36,0,0,1,7.29,8.68a27.22,27.22,0,0,1,8.31-5A51.79,51.79,0,0,1,27.35.78Z"/></clipPath><clipPath id="clip-path-3"><path class="cls-1" d="M19.22,6.11c0,.78.63,1.58,2,2.34,4.64,2.64,16.1,3.75,25.57,2.47,6.77-.91,10.7-2.79,10.71-4.75,10.54,0,19.09,8.26,19.07,18.39,0,3.92-7.86,7.68-21.4,9.5-19,2.54-41.85.33-51.14-5C1.33,27.6.07,26,.08,24.43.09,14.31,8.68,6.09,19.22,6.11Z"/></clipPath><clipPath id="clip-path-4"><path class="cls-1" d="M64.88,5.57c.9.54,2.08,1.29,2.92,1.91a25.47,25.47,0,0,1,2,1.72,22.6,22.6,0,0,1,3.6,4.41,21.83,21.83,0,0,1,2.13,4.59,18.76,18.76,0,0,1,.77,3.36,25.06,25.06,0,0,1,.21,3c0-1.57-1.25-3.17-3.91-4.68C72.63,13.46,69.55,8.22,64.88,5.57Z"/></clipPath><clipPath id="clip-path-5"><path class="cls-1" d="M76.53,24.56a30.91,30.91,0,0,0-.26-3.33,26,26,0,0,0-.67-2.87,20.29,20.29,0,0,0-2.18-4.75,22.2,22.2,0,0,0-3.26-4.08,21.61,21.61,0,0,0-3-2.49,25.08,25.08,0,0,0-2.31-1.47A14.83,14.83,0,0,0,55.5,3.83c1.33.76,2,1.56,2,2.34C68,6.19,76.55,14.43,76.53,24.56Z"/></clipPath><clipPath id="clip-path-6"><path class="cls-1" d="M.08,24.43C.07,26,1.33,27.6,4,29.11c9.29,5.28,32.19,7.49,51.14,5,13.54-1.82,21.4-5.58,21.4-9.5a20.17,20.17,0,0,1-1.22,7c-.37.9-.9,2.09-1.34,3-.25.5-.68,1.13-1,1.62A22.48,22.48,0,0,1,70.68,39a21.89,21.89,0,0,1-3.09,2.74,27.47,27.47,0,0,1-3,2,32,32,0,0,1-4.54,2,45.72,45.72,0,0,1-5.08,1.49c-1.45.31-3.44.75-5.69,1-1.6.2-4.27.53-7.69.64a83,83,0,0,1-15-.78,55.51,55.51,0,0,1-7.11-1.5A39.83,39.83,0,0,1,14.92,45a26.39,26.39,0,0,1-8.17-5.24A20.79,20.79,0,0,1,4.37,37.1c-.56-.8-1.28-1.89-1.77-2.74a15.23,15.23,0,0,1-.8-1.62,16.71,16.71,0,0,1-.64-1.66c-.28-.94-.6-2.22-.8-3.18a15.35,15.35,0,0,1-.22-1.79C.1,25.61.09,24.94.08,24.43Z"/></clipPath><clipPath id="clip-path-7"><path class="cls-1" d="M11.73,43.43A25.44,25.44,0,0,1,7,40,22.51,22.51,0,0,1,3.57,36a17.8,17.8,0,0,1-1.69-3.06A18.46,18.46,0,0,1,.74,29.66a19.3,19.3,0,0,1-.66-5.23c0,10.13,8.53,18.38,19.07,18.4,0,.78.63,1.58,2,2.34,4.65,2.64,16.1,3.74,25.58,2.47,6.76-.91,10.7-2.79,10.7-4.75,10.54,0,19.13-8.21,19.14-18.33A19.53,19.53,0,0,1,76.24,28a19.81,19.81,0,0,1-.87,3.32A20.92,20.92,0,0,1,72,37.42a22.61,22.61,0,0,1-2.52,2.73,26.63,26.63,0,0,1-3.31,2.54,24.78,24.78,0,0,1-3,1.67c-.54.24-1.25.59-1.81.81-.93.36-2.18.84-3.15,1.13A53.62,53.62,0,0,1,53,47.62c-2.53.5-4.93.77-5.61.84-3.11.32-5.22.39-5.79.41-1.38,0-4.63.12-7.56-.06a71.18,71.18,0,0,1-12.68-1.74A36,36,0,0,1,11.73,43.43Z"/></clipPath><clipPath id="clip-path-8"><path class="cls-1" d="M19.15,42.83C8.61,42.81.06,34.56.08,24.43c0-3.92,7.86-7.67,21.4-9.49,19-2.55,41.85-.34,51.14,4.94,0,10.13-7.72,19.4-17.19,20.67-4.64-2.64-16.1-3.75-25.57-2.47C23.09,39,19.16,40.87,19.15,42.83Z"/></clipPath><clipPath id="clip-path-9"><path class="cls-1" d="M76.53,24.56c0,10.12-8.6,18.35-19.14,18.33,0-.79-.63-1.58-2-2.34C64.9,39.28,72.6,30,72.62,19.88,75.28,21.39,76.54,23,76.53,24.56Z"/></clipPath><clipPath id="clip-path-10"><path class="cls-1" d="M46.05,38.82a7.68,7.68,0,0,0,.87.42,35.24,35.24,0,0,0-8.35-.94c-6.18,0-8.89.9-8.92.9A8.63,8.63,0,0,0,31,38.51a13,13,0,0,0,1.82-1.39,15.58,15.58,0,0,0,1.78-1.87A19.35,19.35,0,0,0,36,33.18a17.54,17.54,0,0,0,2.33-8.68h0a17.07,17.07,0,0,0,.43,3.94,18.19,18.19,0,0,0,1.42,3.94c.21.38.47.91.72,1.28a15.9,15.9,0,0,0,1.59,2.16,16.07,16.07,0,0,0,1.81,1.77,13.71,13.71,0,0,0,1.77,1.23,14.79,14.79,0,0,0,9.38,1.73c1.33.76,2,1.55,2,2.34,0,2-3.94,3.84-10.7,4.75-9.48,1.27-20.93.17-25.58-2.47-1.33-.76-2-1.56-2-2.34,0-2,3.94-3.84,10.71-4.75,9.47-1.28,20.93-.17,25.57,2.47A14.79,14.79,0,0,1,46.05,38.82Z"/></clipPath><clipPath id="clip-path-11"><path class="cls-1" d="M32.43,38.66a19.51,19.51,0,0,0-2.78.54A12.09,12.09,0,0,0,33,36.93,16.22,16.22,0,0,0,36.09,33a18,18,0,0,0,1.62-4,17.08,17.08,0,0,0,.6-4.51h0c0,6.42,3.07,11.66,7.74,14.32a8.48,8.48,0,0,0,.87.42,17.84,17.84,0,0,0-1.79-.4c-.22,0-.68-.12-1.58-.23-1.48-.19-2.89-.24-3.92-.29A47.33,47.33,0,0,0,32.43,38.66Z"/></clipPath><clipPath id="clip-path-12"><path class="cls-1" d="M46.05,38.82c-4.67-2.66-7.76-7.9-7.74-14.32a17.18,17.18,0,0,0,.46,4.08,17.85,17.85,0,0,0,1.46,3.94,17.09,17.09,0,0,0,2.45,3.54,17.76,17.76,0,0,0,1.6,1.53A13.54,13.54,0,0,0,46.05,38.82Z"/></clipPath><clipPath id="clip-path-13"><path class="cls-1" d="M38.31,24.5a17.48,17.48,0,0,0-.47-4.33A18.14,18.14,0,0,0,36,15.72a14.5,14.5,0,0,0-6.26-6,34.88,34.88,0,0,0,8.34.93c6.2,0,8.93-.9,9-.91a12.53,12.53,0,0,0-3.46,2.35,16.92,16.92,0,0,0-2.5,3,23.5,23.5,0,0,0-1.24,2.32,22.67,22.67,0,0,0-.9,2.55,17.64,17.64,0,0,0-.58,4.48Z"/></clipPath><clipPath id="clip-path-14"><path class="cls-1" d="M30.56,10.18a8.32,8.32,0,0,0-.86-.42c.2.05.41.12.62.16.45.11.45.11,1.16.24.34.06,1.26.19,1.58.23a44.75,44.75,0,0,0,5,.3c5.92,0,8.66-.82,9-.91a11.76,11.76,0,0,0-2.93,1.88,21.83,21.83,0,0,0-1.6,1.59,15.94,15.94,0,0,0-1.6,2.18,20.85,20.85,0,0,0-1.21,2.35c-.31.75-.62,1.79-.85,2.57a21.27,21.27,0,0,0-.44,2.75s0,.45,0,1.4C38.32,14.37,46,5.11,55.5,3.83c1.33.76,2,1.56,2,2.34,0,2-3.94,3.84-10.71,4.75-9.47,1.28-20.93.17-25.57-2.47-1.33-.76-2-1.56-2-2.34,0-2,3.94-3.84,10.7-4.75C39.4.08,50.85,1.19,55.5,3.83,46,5.11,38.32,14.37,38.31,24.5h0a17.76,17.76,0,0,0-.46-4.29A14.06,14.06,0,0,0,37.11,18,20.35,20.35,0,0,0,36,15.72a16.45,16.45,0,0,0-2.19-3A13.87,13.87,0,0,0,30.56,10.18Z"/></clipPath><clipPath id="clip-path-15"><path class="cls-1" d="M46.49,38a6,6,0,0,0,.75.37,35,35,0,0,0-8.66-1,50.22,50.22,0,0,0-5.3.25,24.56,24.56,0,0,0-4,.72,11.48,11.48,0,0,0,2.87-1.92,13.22,13.22,0,0,0,1.67-1.77,16.05,16.05,0,0,0,1.34-2,16.33,16.33,0,0,0,2.2-8.24C37.39,34.14,29.2,42,19.15,42c0-2,3.94-3.84,10.71-4.75,9.48-1.27,20.93-.17,25.58,2.47A14.08,14.08,0,0,1,46.49,38Z"/></clipPath><clipPath id="clip-path-16"><path class="cls-1" d="M32.31,37.77a17.2,17.2,0,0,0-3,.6,11.4,11.4,0,0,0,3.08-2.1A16.15,16.15,0,0,0,34,34.53a20.55,20.55,0,0,0,1.31-2,16.76,16.76,0,0,0,1.54-3.78,13.86,13.86,0,0,0,.34-1.58c.11-.8.19-1.88.22-2.7,0-.09.19-.18.51-.22a2.28,2.28,0,0,1,1.2.12C39.1,30.51,42,35.5,46.49,38a5.72,5.72,0,0,0,.75.37,29.6,29.6,0,0,0-6.52-.93A46.47,46.47,0,0,0,32.31,37.77Z"/></clipPath><clipPath id="clip-path-17"><path class="cls-1" d="M19.15,42C29.2,42,37.39,34.14,37.4,24.49c0,0,0,.08.1.11a2.28,2.28,0,0,0,1.2.12c.32,0,.51-.13.51-.22C39.19,34.15,47.34,42,57.39,42c0,2-3.93,3.84-10.7,4.75-9.48,1.28-20.93.17-25.58-2.47C19.78,43.55,19.15,42.75,19.15,42Z"/></clipPath><clipPath id="clip-path-18"><path class="cls-1" d="M46.49,38C42,35.5,39.1,30.51,39.11,24.39c.07,0,.1.07.1.11,0,.73.09,1.71.17,2.44a13.85,13.85,0,0,0,.27,1.43A17.11,17.11,0,0,0,41,32.11a16,16,0,0,0,2.32,3.35A13.06,13.06,0,0,0,46.49,38Z"/></clipPath><clipPath id="clip-path-19"><path class="cls-1" d="M39.21,24.5c0,.41,0,1,0,1.36a23.54,23.54,0,0,0,.36,2.38A17.16,17.16,0,0,0,41,32c.2.37.45.87.68,1.21a15.17,15.17,0,0,0,3.21,3.71A11.43,11.43,0,0,0,46.49,38a14.08,14.08,0,0,0,8.95,1.65c1.32.76,2,1.56,2,2.34C47.34,42,39.19,34.15,39.21,24.5Z"/></clipPath><clipPath id="clip-path-20"><path class="cls-1" d="M37.4,24.49c0-.81-.11-1.89-.21-2.7a11.22,11.22,0,0,0-.29-1.4,17.27,17.27,0,0,0-1.48-3.81,15.68,15.68,0,0,0-2.89-3.79,11.71,11.71,0,0,0-3.16-2.19,34,34,0,0,0,8.66,1,50.06,50.06,0,0,0,5.3-.25,26.69,26.69,0,0,0,3.92-.7,8.11,8.11,0,0,0-1.24.67,12.39,12.39,0,0,0-1.71,1.33,15,15,0,0,0-3,3.77,15.8,15.8,0,0,0-1.56,3.85,16.16,16.16,0,0,0-.55,4.23c0,.09-.19.18-.51.22a2.28,2.28,0,0,1-1.2-.12C37.43,24.57,37.4,24.53,37.4,24.49Z"/></clipPath><clipPath id="clip-path-21"><path class="cls-1" d="M30.12,11a7.28,7.28,0,0,0-.75-.37,21.36,21.36,0,0,0,3.58.69A48.29,48.29,0,0,0,38,11.6a49.53,49.53,0,0,0,5.31-.25,26.15,26.15,0,0,0,3.91-.7,11.38,11.38,0,0,0-3.15,2.18,15.94,15.94,0,0,0-2.88,3.76,16.77,16.77,0,0,0-1.5,3.8,13.56,13.56,0,0,0-.29,1.41c-.1.8-.19,1.89-.22,2.7C39.22,14.86,47.41,7,57.46,7c0,2-3.94,3.84-10.71,4.75-9.48,1.27-20.93.17-25.58-2.48-1.32-.75-2-1.55-2-2.33,10.05,0,18.2,7.87,18.18,17.51a16.35,16.35,0,0,0-2-7.91A14.64,14.64,0,0,0,30.12,11Z"/></clipPath><clipPath id="clip-path-22"><path class="cls-1" d="M19.22,7c0-2,3.93-3.84,10.7-4.75C39.4,1,50.85,2.06,55.5,4.7c-9,1.21-16.37,10.05-16.39,19.69a2.28,2.28,0,0,0-1.2-.12c-.32,0-.51.13-.51.22C37.42,14.85,29.27,7,19.22,7Z"/></clipPath><clipPath id="clip-path-23"><path class="cls-1" d="M39.21,24.5s0-.08-.1-.11c0-9.64,7.37-18.48,16.39-19.69,1.33.75,2,1.55,2,2.34C47.41,7,39.22,14.86,39.21,24.5Z"/></clipPath><clipPath id="clip-path-24"><path class="cls-1" d="M64.44,6.35A14.13,14.13,0,0,0,55.5,4.7C50.85,2.06,39.4,1,29.92,2.23,23.15,3.14,19.22,5,19.22,7c0,.78.63,1.58,2,2.33,4.65,2.65,16.1,3.75,25.58,2.48C53.52,10.88,57.45,9,57.46,7c0-.79-.63-1.59-2-2.34a14.13,14.13,0,0,1,8.94,1.65c.68.41,1.59,1,2.23,1.42a22.7,22.7,0,0,1,2.85,2.4,21.12,21.12,0,0,1,4,5.43,19.71,19.71,0,0,1,2.13,9.1A18.92,18.92,0,0,1,75.32,28a19.67,19.67,0,0,1-2.26,6.25,21.14,21.14,0,0,1-4.16,5.2,24.83,24.83,0,0,1-4.79,3.41c-.9.46-2.09,1.08-3,1.45a39.63,39.63,0,0,1-4.62,1.54C46.31,48.63,35.32,48,32.19,47.79A71.88,71.88,0,0,1,25,46.91c-.56-.09-1.31-.23-1.86-.36-1-.23-2.37-.56-3.38-.83a37.63,37.63,0,0,1-4.45-1.55,29.79,29.79,0,0,1-3.62-1.83,23.07,23.07,0,0,1-6.41-5.59,19.39,19.39,0,0,1-1.93-3c-.41-.84-.91-2-1.25-2.85-.18-.48-.34-1.14-.49-1.64A20.35,20.35,0,0,1,1,26a20,20,0,0,1,0-3.57c.07-.52.13-1.21.25-1.72.21-.92.54-2.12.83-3a20.14,20.14,0,0,1,1.51-3.22A23.81,23.81,0,0,1,5.43,12,21.75,21.75,0,0,1,7.9,9.35,17.31,17.31,0,0,1,9.79,7.82a23.85,23.85,0,0,1,3.09-1.91A43.57,43.57,0,0,1,27.47,1.67c4.2-.56,7.59-.64,7.62-.64.57,0,1.32,0,1.89,0h1.88c1.11,0,2.6.07,3.72.11.55,0,3.34.2,5.49.47a60,60,0,0,1,9.16,1.81,37.73,37.73,0,0,1,4.11,1.46C62.29,5.22,63.52,5.87,64.44,6.35Z"/></clipPath><clipPath id="clip-path-25"><path class="cls-1" d="M27.47,1.67A79,79,0,0,1,37,1,84.7,84.7,0,0,1,48,1.56c2.19.27,3,.4,5.27.85.85.16,2.56.57,3.58.87a33.62,33.62,0,0,1,7.55,3.07c4.45,2.53,7.38,7.53,7.37,13.64,0,9.65-7.36,18.48-16.37,19.69-4.65-2.64-16.1-3.74-25.58-2.47C23.09,38.12,19.16,40,19.15,42c0,.79.63,1.59,2,2.34,4.65,2.64,16.1,3.75,25.58,2.47,6.77-.91,10.7-2.78,10.7-4.75,0-.78-.63-1.58-2-2.34,9-1.21,16.36-10,16.37-19.69,0-6.11-2.92-11.11-7.37-13.64.43.27,1,.6,1.44.89.65.44,1.49,1.06,2.1,1.54A22.33,22.33,0,0,1,70.32,11a20.92,20.92,0,0,1,2.18,2.85,20.57,20.57,0,0,1,1.58,3,19.29,19.29,0,0,1,1.51,6.43,18.59,18.59,0,0,1,0,2.89A19.35,19.35,0,0,1,75,29.41a20.48,20.48,0,0,1-2.64,6,22.55,22.55,0,0,1-4.71,5.13,26.1,26.1,0,0,1-3.36,2.25c-.87.5-2.1,1.06-3,1.47a40.13,40.13,0,0,1-6.71,2.1,81,81,0,0,1-24.21,1.29c-1.05-.11-3.24-.34-5.35-.72a47.88,47.88,0,0,1-5.3-1.2,33.26,33.26,0,0,1-9-3.95,22.38,22.38,0,0,1-5.49-5,21.24,21.24,0,0,1-1.85-2.82C3,33.1,2.47,32,2.12,31.1a13.82,13.82,0,0,1-.51-1.66c-.11-.51-.29-1.17-.36-1.69C1.13,26.81,1,25.53,1,24.58a19.85,19.85,0,0,1,.26-3.32,18.43,18.43,0,0,1,.92-3.52c.34-.87.86-2,1.29-2.83a14,14,0,0,1,.9-1.49A20.57,20.57,0,0,1,7.9,9.35a30.88,30.88,0,0,1,2.56-2,28.36,28.36,0,0,1,3.59-2,30.38,30.38,0,0,1,3.4-1.38c1-.34,2.29-.71,3.28-1A58,58,0,0,1,27.47,1.67Z"/></clipPath></defs><title>Asset 988</title><g id="Layer_2" data-name="Layer 2"><g id="Layer_1-2" data-name="Layer 1"><g class="cls-2"><g class="cls-2"><g class="cls-3"><g class="cls-2"><path class="cls-1" d="M55.5,3.83c9.47-1.27,17.14,5.93,17.12,16-9.29-5.28-32.19-7.49-51.14-4.94,0-10.13,3.8-16.22,8.44-13.58C39.4.08,50.85,1.19,55.5,3.83Z"/><path class="cls-1" d="M64.15,5.18c-7-4-24.22-5.64-38.47-3.72"/><path class="cls-1" d="M70.3,10.94C61.64,6,40.3,4,22.64,6.33"/><path class="cls-1" d="M48.91,1.73c5.83-2.42,10.55,3.83,10.53,14"/><path class="cls-1" d="M39.73.85c.77-2.92,1.38,2.94,1.37,13.06"/><path class="cls-1" d="M29.92,1.36c-4.64-2.64-8.42,3.45-8.44,13.58C2.52,17.48-5.31,23.83,4,29.11,4,19,11.71,9.72,21.18,8.45,16.53,5.81,20.44,2.63,29.92,1.36Z"/><path class="cls-1" d="M25.68,1.46C11.42,3.37,5.53,8.15,12.52,12.12"/><path class="cls-1" d="M22.64,6.33C5,8.7-2.31,14.62,6.35,19.54"/><path class="cls-1" d="M22.41,3.18c-8.78-1.64-15.94,5.26-16,15.39"/><path class="cls-1" d="M19.27,5.72C8.76,5.49.2,13.53.18,23.66"/><path class="cls-1" d="M72.62,19.88c0,10.13-7.72,19.4-17.19,20.67-4.64-2.64-16.1-3.75-25.57-2.47-4.64-2.64-8.4-13-8.38-23.14C40.43,12.39,63.33,14.6,72.62,19.88Z"/><path class="cls-1" d="M59.44,15.69c0,10.12-4.77,20.33-10.6,22.76"/><path class="cls-1" d="M41.1,13.91c0,10.13-.66,20.74-1.43,23.65"/><path class="cls-1" d="M21.48,14.94c0,10.12,3.74,20.5,8.38,23.14-9.48,1.27-13.4,4.45-8.75,7.09C11.64,46.44,4,39.24,4,29.11-5.31,23.83,2.52,17.48,21.48,14.94Z"/><path class="cls-1" d="M6.45,18.57c0,10.12,7.11,19.69,15.89,21.32"/><path class="cls-1" d="M.18,23.66c0,10.12,8.51,18.55,19,18.78"/></g><path class="cls-1" d="M64.88,5.57A14.83,14.83,0,0,0,55.5,3.83C50.85,1.19,39.4.08,29.92,1.36c-6.76.91-10.7,2.79-10.7,4.75C8.68,6.09.09,14.31.08,24.43a20.46,20.46,0,0,1,1.23-7,21.14,21.14,0,0,1,1.57-3.36,21.93,21.93,0,0,1,2.12-3c.33-.37.75-.88,1.1-1.23.53-.53,1.26-1.21,1.83-1.7A28.25,28.25,0,0,1,11,6,31.11,31.11,0,0,1,15.6,3.66c.77-.32,1.84-.66,2.63-.93.5-.16,1.18-.34,1.69-.49A61.7,61.7,0,0,1,31.23.36a83.79,83.79,0,0,1,13.26,0A64.51,64.51,0,0,1,55.45,2a45.07,45.07,0,0,1,5.39,1.69c.76.29,1.75.74,2.48,1.09C63.8,5,64.42,5.32,64.88,5.57Z"/></g><path class="cls-1" d="M64.88,5.57A14.83,14.83,0,0,0,55.5,3.83C50.85,1.19,39.4.08,29.92,1.36c-6.76.91-10.7,2.79-10.7,4.75C8.68,6.09.09,14.31.08,24.43a20.46,20.46,0,0,1,1.23-7,21.14,21.14,0,0,1,1.57-3.36,21.93,21.93,0,0,1,2.12-3c.33-.37.75-.88,1.1-1.23.53-.53,1.26-1.21,1.83-1.7A28.25,28.25,0,0,1,11,6,31.11,31.11,0,0,1,15.6,3.66c.77-.32,1.84-.66,2.63-.93.5-.16,1.18-.34,1.69-.49A61.7,61.7,0,0,1,31.23.36a83.79,83.79,0,0,1,13.26,0A64.51,64.51,0,0,1,55.45,2a45.07,45.07,0,0,1,5.39,1.69c.76.29,1.75.74,2.48,1.09C63.8,5,64.42,5.32,64.88,5.57Z"/></g><g class="cls-2"><g class="cls-4"><g class="cls-2"><path class="cls-1" d="M55.5,3.83c9.47-1.27,17.14,5.93,17.12,16-9.29-5.28-32.19-7.49-51.14-4.94,0-10.13,3.8-16.22,8.44-13.58C39.4.08,50.85,1.19,55.5,3.83Z"/><path class="cls-1" d="M64.15,5.18c-7-4-24.22-5.64-38.47-3.72"/><path class="cls-1" d="M70.3,10.94C61.64,6,40.3,4,22.64,6.33"/><path class="cls-1" d="M48.91,1.73c5.83-2.42,10.55,3.83,10.53,14"/><path class="cls-1" d="M39.73.85c.77-2.92,1.38,2.94,1.37,13.06"/><path class="cls-1" d="M29.92,1.36c-4.64-2.64-8.42,3.45-8.44,13.58C2.52,17.48-5.31,23.83,4,29.11,4,19,11.71,9.72,21.18,8.45,16.53,5.81,20.44,2.63,29.92,1.36Z"/><path class="cls-1" d="M25.68,1.46C11.42,3.37,5.53,8.15,12.52,12.12"/><path class="cls-1" d="M22.64,6.33C5,8.7-2.31,14.62,6.35,19.54"/><path class="cls-1" d="M22.41,3.18c-8.78-1.64-15.94,5.26-16,15.39"/><path class="cls-1" d="M19.27,5.72C8.76,5.49.2,13.53.18,23.66"/><path class="cls-1" d="M72.62,19.88c0,10.13-7.72,19.4-17.19,20.67-4.64-2.64-16.1-3.75-25.57-2.47-4.64-2.64-8.4-13-8.38-23.14C40.43,12.39,63.33,14.6,72.62,19.88Z"/><path class="cls-1" d="M59.44,15.69c0,10.12-4.77,20.33-10.6,22.76"/><path class="cls-1" d="M41.1,13.91c0,10.13-.66,20.74-1.43,23.65"/><path class="cls-1" d="M21.48,14.94c0,10.12,3.74,20.5,8.38,23.14-9.48,1.27-13.4,4.45-8.75,7.09C11.64,46.44,4,39.24,4,29.11-5.31,23.83,2.52,17.48,21.48,14.94Z"/><path class="cls-1" d="M6.45,18.57c0,10.12,7.11,19.69,15.89,21.32"/><path class="cls-1" d="M.18,23.66c0,10.12,8.51,18.55,19,18.78"/></g><path class="cls-1" d="M27.35.78A85.12,85.12,0,0,1,48.15.66c2.15.27,2.9.39,5.35.86.87.17,2.61.59,3.64.89a34.29,34.29,0,0,1,7.74,3.16c4.67,2.65,7.75,7.89,7.74,14.31-9.29-5.28-32.19-7.49-51.14-4.94C7.94,16.76.08,20.51.08,24.43c0-.5,0-1.17.07-1.68a17.27,17.27,0,0,1,.26-2c.21-.95.55-2.22.85-3.15a15.93,15.93,0,0,1,.66-1.66,15.43,15.43,0,0,1,.83-1.62c.5-.84,1.22-1.92,1.8-2.71A24.36,24.36,0,0,1,7.29,8.68a27.22,27.22,0,0,1,8.31-5A51.79,51.79,0,0,1,27.35.78Z"/></g><path class="cls-1" d="M27.35.78A85.12,85.12,0,0,1,48.15.66c2.15.27,2.9.39,5.35.86.87.17,2.61.59,3.64.89a34.29,34.29,0,0,1,7.74,3.16c4.67,2.65,7.75,7.89,7.74,14.31-9.29-5.28-32.19-7.49-51.14-4.94C7.94,16.76.08,20.51.08,24.43c0-.5,0-1.17.07-1.68a17.27,17.27,0,0,1,.26-2c.21-.95.55-2.22.85-3.15a15.93,15.93,0,0,1,.66-1.66,15.43,15.43,0,0,1,.83-1.62c.5-.84,1.22-1.92,1.8-2.71A24.36,24.36,0,0,1,7.29,8.68a27.22,27.22,0,0,1,8.31-5A51.79,51.79,0,0,1,27.35.78Z"/></g><g class="cls-2"><g class="cls-5"><g class="cls-2"><path class="cls-1" d="M29.92,1.36c-4.64-2.64-8.42,3.45-8.44,13.58C2.52,17.48-5.31,23.83,4,29.11,4,19,11.71,9.72,21.18,8.45,16.53,5.81,20.44,2.63,29.92,1.36Z"/><path class="cls-1" d="M25.68,1.46C11.42,3.37,5.53,8.15,12.52,12.12"/><path class="cls-1" d="M22.64,6.33C5,8.7-2.31,14.62,6.35,19.54"/><path class="cls-1" d="M21.18,8.45C11.71,9.72,4,19,4,29.11c9.29,5.28,32.19,7.49,51.14,5,0-10.13-3.74-20.5-8.38-23.14C37.28,12.2,25.82,11.09,21.18,8.45Z"/><path class="cls-1" d="M12.52,12.12c7,4,24.22,5.64,38.47,3.72"/><path class="cls-1" d="M6.35,19.54c8.66,4.92,30,7,47.65,4.6"/><path class="cls-1" d="M27.77,10.55C21.94,13,17.18,23.18,17.17,33.31"/><path class="cls-1" d="M36.94,11.43c-.77,2.92-1.41,13.52-1.43,23.65"/><path class="cls-1" d="M46.75,10.92c4.64,2.64,8.4,13,8.38,23.14,19-2.55,26.79-8.9,17.49-14.18,0-10.12-7.65-17.32-17.12-16C60.15,6.47,56.23,9.65,46.75,10.92Z"/><path class="cls-1" d="M51,15.84C65.25,13.92,71.14,9.15,64.15,5.18"/><path class="cls-1" d="M54,24.14c17.66-2.37,25-8.28,16.3-13.2"/><path class="cls-1" d="M54.27,9.1c8.78,1.64,15.9,11.2,15.89,21.32"/><path class="cls-1" d="M57.41,6.56c10.51.23,19,8.65,19,18.78"/><path class="cls-1" d="M21.48,14.94c0,10.12,3.74,20.5,8.38,23.14-9.48,1.27-13.4,4.45-8.75,7.09C11.64,46.44,4,39.24,4,29.11-5.31,23.83,2.52,17.48,21.48,14.94Z"/><path class="cls-1" d="M4,29.11c0,10.13,7.65,17.33,17.12,16.06,4.65,2.64,16.1,3.74,25.58,2.47,4.64,2.64,8.42-3.46,8.44-13.58C36.18,36.6,13.28,34.39,4,29.11Z"/><path class="cls-1" d="M17.17,33.31c0,10.12,4.7,16.38,10.53,13.95"/><path class="cls-1" d="M35.51,35.08c0,10.13.6,16,1.37,13.07"/><path class="cls-1" d="M55.13,34.06c0,10.12-3.8,16.22-8.44,13.58,9.48-1.28,13.39-4.45,8.74-7.09C64.9,39.28,72.6,30,72.62,19.88,81.92,25.16,74.09,31.51,55.13,34.06Z"/><path class="cls-1" d="M70.16,30.42c0,10.13-7.18,17-16,15.4"/><path class="cls-1" d="M76.43,25.34c0,10.12-8.58,18.17-19.09,17.94"/></g><path class="cls-1" d="M19.22,6.11c0,.78.63,1.58,2,2.34,4.64,2.64,16.1,3.75,25.57,2.47,6.77-.91,10.7-2.79,10.71-4.75,10.54,0,19.09,8.26,19.07,18.39,0,3.92-7.86,7.68-21.4,9.5-19,2.54-41.85.33-51.14-5C1.33,27.6.07,26,.08,24.43.09,14.31,8.68,6.09,19.22,6.11Z"/></g><path class="cls-1" d="M19.22,6.11c0,.78.63,1.58,2,2.34,4.64,2.64,16.1,3.75,25.57,2.47,6.77-.91,10.7-2.79,10.71-4.75,10.54,0,19.09,8.26,19.07,18.39,0,3.92-7.86,7.68-21.4,9.5-19,2.54-41.85.33-51.14-5C1.33,27.6.07,26,.08,24.43.09,14.31,8.68,6.09,19.22,6.11Z"/></g><g class="cls-2"><g class="cls-6"><g class="cls-2"><path class="cls-1" d="M46.75,10.92c4.64,2.64,8.4,13,8.38,23.14,19-2.55,26.79-8.9,17.49-14.18,0-10.12-7.65-17.32-17.12-16C60.15,6.47,56.23,9.65,46.75,10.92Z"/><path class="cls-1" d="M54,24.14c17.66-2.37,25-8.28,16.3-13.2"/><path class="cls-1" d="M55.13,34.06c0,10.12-3.8,16.22-8.44,13.58,9.48-1.28,13.39-4.45,8.74-7.09C64.9,39.28,72.6,30,72.62,19.88,81.92,25.16,74.09,31.51,55.13,34.06Z"/></g><path class="cls-1" d="M64.88,5.57c.9.54,2.08,1.29,2.92,1.91a25.47,25.47,0,0,1,2,1.72,22.6,22.6,0,0,1,3.6,4.41,21.83,21.83,0,0,1,2.13,4.59,18.76,18.76,0,0,1,.77,3.36,25.06,25.06,0,0,1,.21,3c0-1.57-1.25-3.17-3.91-4.68C72.63,13.46,69.55,8.22,64.88,5.57Z"/></g><path class="cls-1" d="M64.88,5.57c.9.54,2.08,1.29,2.92,1.91a25.47,25.47,0,0,1,2,1.72,22.6,22.6,0,0,1,3.6,4.41,21.83,21.83,0,0,1,2.13,4.59,18.76,18.76,0,0,1,.77,3.36,25.06,25.06,0,0,1,.21,3c0-1.57-1.25-3.17-3.91-4.68C72.63,13.46,69.55,8.22,64.88,5.57Z"/></g><g class="cls-2"><g class="cls-7"><g class="cls-2"><path class="cls-1" d="M46.75,10.92c4.64,2.64,8.4,13,8.38,23.14,19-2.55,26.79-8.9,17.49-14.18,0-10.12-7.65-17.32-17.12-16C60.15,6.47,56.23,9.65,46.75,10.92Z"/><path class="cls-1" d="M51,15.84C65.25,13.92,71.14,9.15,64.15,5.18"/><path class="cls-1" d="M54,24.14c17.66-2.37,25-8.28,16.3-13.2"/><path class="cls-1" d="M55.13,34.06c0,10.12-3.8,16.22-8.44,13.58,9.48-1.28,13.39-4.45,8.74-7.09C64.9,39.28,72.6,30,72.62,19.88,81.92,25.16,74.09,31.51,55.13,34.06Z"/></g><path class="cls-1" d="M76.53,24.56a30.91,30.91,0,0,0-.26-3.33,26,26,0,0,0-.67-2.87,20.29,20.29,0,0,0-2.18-4.75,22.2,22.2,0,0,0-3.26-4.08,21.61,21.61,0,0,0-3-2.49,25.08,25.08,0,0,0-2.31-1.47A14.83,14.83,0,0,0,55.5,3.83c1.33.76,2,1.56,2,2.34C68,6.19,76.55,14.43,76.53,24.56Z"/></g><path class="cls-1" d="M76.53,24.56a30.91,30.91,0,0,0-.26-3.33,26,26,0,0,0-.67-2.87,20.29,20.29,0,0,0-2.18-4.75,22.2,22.2,0,0,0-3.26-4.08,21.61,21.61,0,0,0-3-2.49,25.08,25.08,0,0,0-2.31-1.47A14.83,14.83,0,0,0,55.5,3.83c1.33.76,2,1.56,2,2.34C68,6.19,76.55,14.43,76.53,24.56Z"/></g><g class="cls-2"><g class="cls-8"><g class="cls-2"><path class="cls-1" d="M29.92,1.36c-4.64-2.64-8.42,3.45-8.44,13.58C2.52,17.48-5.31,23.83,4,29.11,4,19,11.71,9.72,21.18,8.45,16.53,5.81,20.44,2.63,29.92,1.36Z"/><path class="cls-1" d="M21.18,8.45C11.71,9.72,4,19,4,29.11c9.29,5.28,32.19,7.49,51.14,5,0-10.13-3.74-20.5-8.38-23.14C37.28,12.2,25.82,11.09,21.18,8.45Z"/><path class="cls-1" d="M27.77,10.55C21.94,13,17.18,23.18,17.17,33.31"/><path class="cls-1" d="M36.94,11.43c-.77,2.92-1.41,13.52-1.43,23.65"/><path class="cls-1" d="M46.75,10.92c4.64,2.64,8.4,13,8.38,23.14,19-2.55,26.79-8.9,17.49-14.18,0-10.12-7.65-17.32-17.12-16C60.15,6.47,56.23,9.65,46.75,10.92Z"/><path class="cls-1" d="M54.27,9.1c8.78,1.64,15.9,11.2,15.89,21.32"/><path class="cls-1" d="M57.41,6.56c10.51.23,19,8.65,19,18.78"/><path class="cls-1" d="M21.48,14.94c0,10.12,3.74,20.5,8.38,23.14-9.48,1.27-13.4,4.45-8.75,7.09C11.64,46.44,4,39.24,4,29.11-5.31,23.83,2.52,17.48,21.48,14.94Z"/><path class="cls-1" d="M22.61,24.85C5,27.22-2.34,33.14,6.31,38.06"/><path class="cls-1" d="M25.62,33.16C11.36,35.07,5.47,39.85,12.46,43.82"/><path class="cls-1" d="M4,29.11c0,10.13,7.65,17.33,17.12,16.06,4.65,2.64,16.1,3.74,25.58,2.47,4.64,2.64,8.42-3.46,8.44-13.58C36.18,36.6,13.28,34.39,4,29.11Z"/><path class="cls-1" d="M6.31,38.06C15,43,36.31,45,54,42.66"/><path class="cls-1" d="M12.46,43.82c7,4,24.22,5.64,38.47,3.72"/><path class="cls-1" d="M17.17,33.31c0,10.12,4.7,16.38,10.53,13.95"/><path class="cls-1" d="M35.51,35.08c0,10.13.6,16,1.37,13.07"/><path class="cls-1" d="M55.13,34.06c0,10.12-3.8,16.22-8.44,13.58,9.48-1.28,13.39-4.45,8.74-7.09C64.9,39.28,72.6,30,72.62,19.88,81.92,25.16,74.09,31.51,55.13,34.06Z"/><path class="cls-1" d="M54,42.66c17.65-2.37,25-8.28,16.29-13.2"/><path class="cls-1" d="M50.93,47.54c14.26-1.92,20.15-6.69,13.16-10.66"/><path class="cls-1" d="M70.16,30.42c0,10.13-7.18,17-16,15.4"/><path class="cls-1" d="M76.43,25.34c0,10.12-8.58,18.17-19.09,17.94"/></g><path class="cls-1" d="M.08,24.43C.07,26,1.33,27.6,4,29.11c9.29,5.28,32.19,7.49,51.14,5,13.54-1.82,21.4-5.58,21.4-9.5a20.17,20.17,0,0,1-1.22,7c-.37.9-.9,2.09-1.34,3-.25.5-.68,1.13-1,1.62A22.48,22.48,0,0,1,70.68,39a21.89,21.89,0,0,1-3.09,2.74,27.47,27.47,0,0,1-3,2,32,32,0,0,1-4.54,2,45.72,45.72,0,0,1-5.08,1.49c-1.45.31-3.44.75-5.69,1-1.6.2-4.27.53-7.69.64a83,83,0,0,1-15-.78,55.51,55.51,0,0,1-7.11-1.5A39.83,39.83,0,0,1,14.92,45a26.39,26.39,0,0,1-8.17-5.24A20.79,20.79,0,0,1,4.37,37.1c-.56-.8-1.28-1.89-1.77-2.74a15.23,15.23,0,0,1-.8-1.62,16.71,16.71,0,0,1-.64-1.66c-.28-.94-.6-2.22-.8-3.18a15.35,15.35,0,0,1-.22-1.79C.1,25.61.09,24.94.08,24.43Z"/></g><path class="cls-1" d="M.08,24.43C.07,26,1.33,27.6,4,29.11c9.29,5.28,32.19,7.49,51.14,5,13.54-1.82,21.4-5.58,21.4-9.5a20.17,20.17,0,0,1-1.22,7c-.37.9-.9,2.09-1.34,3-.25.5-.68,1.13-1,1.62A22.48,22.48,0,0,1,70.68,39a21.89,21.89,0,0,1-3.09,2.74,27.47,27.47,0,0,1-3,2,32,32,0,0,1-4.54,2,45.72,45.72,0,0,1-5.08,1.49c-1.45.31-3.44.75-5.69,1-1.6.2-4.27.53-7.69.64a83,83,0,0,1-15-.78,55.51,55.51,0,0,1-7.11-1.5A39.83,39.83,0,0,1,14.92,45a26.39,26.39,0,0,1-8.17-5.24A20.79,20.79,0,0,1,4.37,37.1c-.56-.8-1.28-1.89-1.77-2.74a15.23,15.23,0,0,1-.8-1.62,16.71,16.71,0,0,1-.64-1.66c-.28-.94-.6-2.22-.8-3.18a15.35,15.35,0,0,1-.22-1.79C.1,25.61.09,24.94.08,24.43Z"/></g><g class="cls-2"><g class="cls-9"><g class="cls-2"><path class="cls-1" d="M29.92,1.36c-4.64-2.64-8.42,3.45-8.44,13.58C2.52,17.48-5.31,23.83,4,29.11,4,19,11.71,9.72,21.18,8.45,16.53,5.81,20.44,2.63,29.92,1.36Z"/><path class="cls-1" d="M21.18,8.45C11.71,9.72,4,19,4,29.11c9.29,5.28,32.19,7.49,51.14,5,0-10.13-3.74-20.5-8.38-23.14C37.28,12.2,25.82,11.09,21.18,8.45Z"/><path class="cls-1" d="M27.77,10.55C21.94,13,17.18,23.18,17.17,33.31"/><path class="cls-1" d="M36.94,11.43c-.77,2.92-1.41,13.52-1.43,23.65"/><path class="cls-1" d="M46.75,10.92c4.64,2.64,8.4,13,8.38,23.14,19-2.55,26.79-8.9,17.49-14.18,0-10.12-7.65-17.32-17.12-16C60.15,6.47,56.23,9.65,46.75,10.92Z"/><path class="cls-1" d="M54.27,9.1c8.78,1.64,15.9,11.2,15.89,21.32"/><path class="cls-1" d="M57.41,6.56c10.51.23,19,8.65,19,18.78"/><path class="cls-1" d="M21.48,14.94c0,10.12,3.74,20.5,8.38,23.14-9.48,1.27-13.4,4.45-8.75,7.09C11.64,46.44,4,39.24,4,29.11-5.31,23.83,2.52,17.48,21.48,14.94Z"/><path class="cls-1" d="M22.61,24.85C5,27.22-2.34,33.14,6.31,38.06"/><path class="cls-1" d="M25.62,33.16C11.36,35.07,5.47,39.85,12.46,43.82"/><path class="cls-1" d="M4,29.11c0,10.13,7.65,17.33,17.12,16.06,4.65,2.64,16.1,3.74,25.58,2.47,4.64,2.64,8.42-3.46,8.44-13.58C36.18,36.6,13.28,34.39,4,29.11Z"/><path class="cls-1" d="M6.31,38.06C15,43,36.31,45,54,42.66"/><path class="cls-1" d="M12.46,43.82c7,4,24.22,5.64,38.47,3.72"/><path class="cls-1" d="M17.17,33.31c0,10.12,4.7,16.38,10.53,13.95"/><path class="cls-1" d="M35.51,35.08c0,10.13.6,16,1.37,13.07"/><path class="cls-1" d="M55.13,34.06c0,10.12-3.8,16.22-8.44,13.58,9.48-1.28,13.39-4.45,8.74-7.09C64.9,39.28,72.6,30,72.62,19.88,81.92,25.16,74.09,31.51,55.13,34.06Z"/><path class="cls-1" d="M54,42.66c17.65-2.37,25-8.28,16.29-13.2"/><path class="cls-1" d="M50.93,47.54c14.26-1.92,20.15-6.69,13.16-10.66"/><path class="cls-1" d="M70.16,30.42c0,10.13-7.18,17-16,15.4"/><path class="cls-1" d="M76.43,25.34c0,10.12-8.58,18.17-19.09,17.94"/><path class="cls-1" d="M29.86,38.08c4.64,2.63,8.43-3.46,8.45-13.58h0c0,10.12-7.74,19.39-17.2,20.67C16.46,42.53,20.38,39.35,29.86,38.08Z"/><path class="cls-1" d="M21.11,45.17c9.46-1.28,17.18-10.55,17.2-20.67h0c0,10.12,3.74,20.5,8.38,23.14C37.21,48.91,25.76,47.81,21.11,45.17Z"/><path class="cls-1" d="M27.7,47.26c5.83-2.43,10.59-12.64,10.61-22.76"/><path class="cls-1" d="M36.88,48.15c.76-2.92,1.41-13.53,1.43-23.65"/><path class="cls-1" d="M46.69,47.64c-4.64-2.64-8.4-13-8.38-23.14h0c0,10.12,7.66,17.32,17.12,16C60.08,43.19,56.17,46.36,46.69,47.64Z"/><path class="cls-1" d="M54.2,45.82c-8.78-1.63-15.91-11.2-15.89-21.32"/><path class="cls-1" d="M57.34,43.28c-10.52-.23-19.05-8.66-19-18.78"/></g><path class="cls-1" d="M11.73,43.43A25.44,25.44,0,0,1,7,40,22.51,22.51,0,0,1,3.57,36a17.8,17.8,0,0,1-1.69-3.06A18.46,18.46,0,0,1,.74,29.66a19.3,19.3,0,0,1-.66-5.23c0,10.13,8.53,18.38,19.07,18.4,0,.78.63,1.58,2,2.34,4.65,2.64,16.1,3.74,25.58,2.47,6.76-.91,10.7-2.79,10.7-4.75,10.54,0,19.13-8.21,19.14-18.33A19.53,19.53,0,0,1,76.24,28a19.81,19.81,0,0,1-.87,3.32A20.92,20.92,0,0,1,72,37.42a22.61,22.61,0,0,1-2.52,2.73,26.63,26.63,0,0,1-3.31,2.54,24.78,24.78,0,0,1-3,1.67c-.54.24-1.25.59-1.81.81-.93.36-2.18.84-3.15,1.13A53.62,53.62,0,0,1,53,47.62c-2.53.5-4.93.77-5.61.84-3.11.32-5.22.39-5.79.41-1.38,0-4.63.12-7.56-.06a71.18,71.18,0,0,1-12.68-1.74A36,36,0,0,1,11.73,43.43Z"/></g><path class="cls-1" d="M11.73,43.43A25.44,25.44,0,0,1,7,40,22.51,22.51,0,0,1,3.57,36a17.8,17.8,0,0,1-1.69-3.06A18.46,18.46,0,0,1,.74,29.66a19.3,19.3,0,0,1-.66-5.23c0,10.13,8.53,18.38,19.07,18.4,0,.78.63,1.58,2,2.34,4.65,2.64,16.1,3.74,25.58,2.47,6.76-.91,10.7-2.79,10.7-4.75,10.54,0,19.13-8.21,19.14-18.33A19.53,19.53,0,0,1,76.24,28a19.81,19.81,0,0,1-.87,3.32A20.92,20.92,0,0,1,72,37.42a22.61,22.61,0,0,1-2.52,2.73,26.63,26.63,0,0,1-3.31,2.54,24.78,24.78,0,0,1-3,1.67c-.54.24-1.25.59-1.81.81-.93.36-2.18.84-3.15,1.13A53.62,53.62,0,0,1,53,47.62c-2.53.5-4.93.77-5.61.84-3.11.32-5.22.39-5.79.41-1.38,0-4.63.12-7.56-.06a71.18,71.18,0,0,1-12.68-1.74A36,36,0,0,1,11.73,43.43Z"/></g><g class="cls-2"><g class="cls-10"><g class="cls-2"><path class="cls-1" d="M55.5,3.83c9.47-1.27,17.14,5.93,17.12,16-9.29-5.28-32.19-7.49-51.14-4.94,0-10.13,3.8-16.22,8.44-13.58C39.4.08,50.85,1.19,55.5,3.83Z"/><path class="cls-1" d="M48.91,1.73c5.83-2.42,10.55,3.83,10.53,14"/><path class="cls-1" d="M39.73.85c.77-2.92,1.38,2.94,1.37,13.06"/><path class="cls-1" d="M29.92,1.36c-4.64-2.64-8.42,3.45-8.44,13.58C2.52,17.48-5.31,23.83,4,29.11,4,19,11.71,9.72,21.18,8.45,16.53,5.81,20.44,2.63,29.92,1.36Z"/><path class="cls-1" d="M22.41,3.18c-8.78-1.64-15.94,5.26-16,15.39"/><path class="cls-1" d="M19.27,5.72C8.76,5.49.2,13.53.18,23.66"/><path class="cls-1" d="M72.62,19.88c0,10.13-7.72,19.4-17.19,20.67-4.64-2.64-16.1-3.75-25.57-2.47-4.64-2.64-8.4-13-8.38-23.14C40.43,12.39,63.33,14.6,72.62,19.88Z"/><path class="cls-1" d="M70.26,29.46c-8.66-4.92-30-7-47.65-4.61"/><path class="cls-1" d="M64.09,36.88c-7-4-24.22-5.64-38.47-3.72"/><path class="cls-1" d="M59.44,15.69c0,10.12-4.77,20.33-10.6,22.76"/><path class="cls-1" d="M41.1,13.91c0,10.13-.66,20.74-1.43,23.65"/><path class="cls-1" d="M21.48,14.94c0,10.12,3.74,20.5,8.38,23.14-9.48,1.27-13.4,4.45-8.75,7.09C11.64,46.44,4,39.24,4,29.11-5.31,23.83,2.52,17.48,21.48,14.94Z"/><path class="cls-1" d="M22.61,24.85C5,27.22-2.34,33.14,6.31,38.06"/><path class="cls-1" d="M25.62,33.16C11.36,35.07,5.47,39.85,12.46,43.82"/><path class="cls-1" d="M6.45,18.57c0,10.12,7.11,19.69,15.89,21.32"/><path class="cls-1" d="M.18,23.66c0,10.12,8.51,18.55,19,18.78"/><path class="cls-1" d="M55.43,40.55c-9.46,1.27-17.14-5.93-17.12-16h0c0,10.12-3.81,16.21-8.45,13.58C39.33,36.8,50.79,37.91,55.43,40.55Z"/><path class="cls-1" d="M48.84,38.45c-5.83,2.43-10.55-3.83-10.53-14"/><path class="cls-1" d="M39.67,37.56c-.77,2.92-1.38-2.94-1.36-13.06"/><path class="cls-1" d="M29.86,38.08c4.64,2.63,8.43-3.46,8.45-13.58h0c0,10.12-7.74,19.39-17.2,20.67C16.46,42.53,20.38,39.35,29.86,38.08Z"/><path class="cls-1" d="M22.34,39.89c8.79,1.64,16-5.27,16-15.39"/><path class="cls-1" d="M19.2,42.44c10.52.23,19.09-7.82,19.11-17.94"/></g><path class="cls-1" d="M19.15,42.83C8.61,42.81.06,34.56.08,24.43c0-3.92,7.86-7.67,21.4-9.49,19-2.55,41.85-.34,51.14,4.94,0,10.13-7.72,19.4-17.19,20.67-4.64-2.64-16.1-3.75-25.57-2.47C23.09,39,19.16,40.87,19.15,42.83Z"/></g><path class="cls-1" d="M19.15,42.83C8.61,42.81.06,34.56.08,24.43c0-3.92,7.86-7.67,21.4-9.49,19-2.55,41.85-.34,51.14,4.94,0,10.13-7.72,19.4-17.19,20.67-4.64-2.64-16.1-3.75-25.57-2.47C23.09,39,19.16,40.87,19.15,42.83Z"/></g><g class="cls-2"><g class="cls-11"><g class="cls-2"><path class="cls-1" d="M46.75,10.92c4.64,2.64,8.4,13,8.38,23.14,19-2.55,26.79-8.9,17.49-14.18,0-10.12-7.65-17.32-17.12-16C60.15,6.47,56.23,9.65,46.75,10.92Z"/><path class="cls-1" d="M55.13,34.06c0,10.12-3.8,16.22-8.44,13.58,9.48-1.28,13.39-4.45,8.74-7.09C64.9,39.28,72.6,30,72.62,19.88,81.92,25.16,74.09,31.51,55.13,34.06Z"/><path class="cls-1" d="M54,42.66c17.65-2.37,25-8.28,16.29-13.2"/><path class="cls-1" d="M50.93,47.54c14.26-1.92,20.15-6.69,13.16-10.66"/><path class="cls-1" d="M46.69,47.64c-4.64-2.64-8.4-13-8.38-23.14h0c0,10.12,7.66,17.32,17.12,16C60.08,43.19,56.17,46.36,46.69,47.64Z"/></g><path class="cls-1" d="M76.53,24.56c0,10.12-8.6,18.35-19.14,18.33,0-.79-.63-1.58-2-2.34C64.9,39.28,72.6,30,72.62,19.88,75.28,21.39,76.54,23,76.53,24.56Z"/></g><path class="cls-1" d="M76.53,24.56c0,10.12-8.6,18.35-19.14,18.33,0-.79-.63-1.58-2-2.34C64.9,39.28,72.6,30,72.62,19.88,75.28,21.39,76.54,23,76.53,24.56Z"/></g><g class="cls-2"><g class="cls-12"><g class="cls-2"><path class="cls-1" d="M72.62,19.88c0,10.13-7.72,19.4-17.19,20.67-4.64-2.64-16.1-3.75-25.57-2.47-4.64-2.64-8.4-13-8.38-23.14C40.43,12.39,63.33,14.6,72.62,19.88Z"/><path class="cls-1" d="M59.44,15.69c0,10.12-4.77,20.33-10.6,22.76"/><path class="cls-1" d="M41.1,13.91c0,10.13-.66,20.74-1.43,23.65"/><path class="cls-1" d="M21.48,14.94c0,10.12,3.74,20.5,8.38,23.14-9.48,1.27-13.4,4.45-8.75,7.09C11.64,46.44,4,39.24,4,29.11-5.31,23.83,2.52,17.48,21.48,14.94Z"/><path class="cls-1" d="M6.45,18.57c0,10.12,7.11,19.69,15.89,21.32"/><path class="cls-1" d="M.18,23.66c0,10.12,8.51,18.55,19,18.78"/><path class="cls-1" d="M4,29.11c0,10.13,7.65,17.33,17.12,16.06,4.65,2.64,16.1,3.74,25.58,2.47,4.64,2.64,8.42-3.46,8.44-13.58C36.18,36.6,13.28,34.39,4,29.11Z"/><path class="cls-1" d="M17.17,33.31c0,10.12,4.7,16.38,10.53,13.95"/><path class="cls-1" d="M35.51,35.08c0,10.13.6,16,1.37,13.07"/><path class="cls-1" d="M55.13,34.06c0,10.12-3.8,16.22-8.44,13.58,9.48-1.28,13.39-4.45,8.74-7.09C64.9,39.28,72.6,30,72.62,19.88,81.92,25.16,74.09,31.51,55.13,34.06Z"/><path class="cls-1" d="M70.16,30.42c0,10.13-7.18,17-16,15.4"/><path class="cls-1" d="M76.43,25.34c0,10.12-8.58,18.17-19.09,17.94"/><path class="cls-1" d="M55.43,40.55c-9.46,1.27-17.14-5.93-17.12-16h0c0,10.12-3.81,16.21-8.45,13.58C39.33,36.8,50.79,37.91,55.43,40.55Z"/><path class="cls-1" d="M46.78,39.2c-2.3-1.31-8-1.85-12.68-1.22"/><path class="cls-1" d="M40.63,33.44a6.93,6.93,0,0,0-3.49-.34"/><path class="cls-1" d="M48.84,38.45c-5.83,2.43-10.55-3.83-10.53-14"/><path class="cls-1" d="M39.67,37.56c-.77,2.92-1.38-2.94-1.36-13.06"/><path class="cls-1" d="M29.86,38.08c4.64,2.63,8.43-3.46,8.45-13.58h0c0,10.12-7.74,19.39-17.2,20.67C16.46,42.53,20.38,39.35,29.86,38.08Z"/><path class="cls-1" d="M34.1,38c-4.69.63-6.64,2.2-4.33,3.51"/><path class="cls-1" d="M37.14,33.1c-1.3.18-1.83.61-1.2,1"/><path class="cls-1" d="M22.34,39.89c8.79,1.64,16-5.27,16-15.39"/><path class="cls-1" d="M19.2,42.44c10.52.23,19.09-7.82,19.11-17.94"/><path class="cls-1" d="M21.11,45.17c9.46-1.28,17.18-10.55,17.2-20.67h0c0,10.12,3.74,20.5,8.38,23.14C37.21,48.91,25.76,47.81,21.11,45.17Z"/><path class="cls-1" d="M29.77,41.49c2.3,1.31,8,1.86,12.68,1.23"/><path class="cls-1" d="M35.94,34.07a7,7,0,0,0,3.5.34"/><path class="cls-1" d="M27.7,47.26c5.83-2.43,10.59-12.64,10.61-22.76"/><path class="cls-1" d="M36.88,48.15c.76-2.92,1.41-13.53,1.43-23.65"/><path class="cls-1" d="M46.69,47.64c-4.64-2.64-8.4-13-8.38-23.14h0c0,10.12,7.66,17.32,17.12,16C60.08,43.19,56.17,46.36,46.69,47.64Z"/><path class="cls-1" d="M42.45,42.72c4.7-.63,6.64-2.21,4.33-3.52"/><path class="cls-1" d="M39.44,34.41c1.29-.17,1.83-.61,1.19-1"/><path class="cls-1" d="M54.2,45.82c-8.78-1.63-15.91-11.2-15.89-21.32"/><path class="cls-1" d="M57.34,43.28c-10.52-.23-19.05-8.66-19-18.78"/><path class="cls-1" d="M38.31,24.5C38.32,14.37,46,5.11,55.5,3.83,50.85,1.19,39.4.08,29.92,1.36c4.64,2.64,8.4,13,8.39,23.14Z"/><path class="cls-1" d="M38.31,24.5c0-10.13,4.77-20.34,10.6-22.77"/><path class="cls-1" d="M38.31,24.5c0-10.13.66-20.73,1.42-23.65"/><path class="cls-1" d="M38.31,24.5c0-10.13-3.75-20.5-8.39-23.14-9.48,1.27-13.39,4.45-8.74,7.09,9.46-1.27,17.14,5.92,17.13,16.05Z"/><path class="cls-1" d="M38.31,24.5c0-10.13-7.12-19.69-15.9-21.32"/><path class="cls-1" d="M38.31,24.5c0-10.13-8.52-18.55-19-18.78"/><path class="cls-1" d="M38.31,24.5c0-10.13-7.67-17.32-17.13-16,4.64,2.64,16.1,3.75,25.57,2.47-4.64-2.63-8.43,3.45-8.44,13.58Z"/><path class="cls-1" d="M38.31,24.5c0-10.13-4.71-16.38-10.54-13.95"/><path class="cls-1" d="M38.31,24.5c0-10.13-.6-16-1.37-13.07"/><path class="cls-1" d="M38.31,24.5c0-10.13,3.8-16.21,8.44-13.58,9.48-1.27,13.4-4.45,8.75-7.09C46,5.11,38.32,14.37,38.31,24.5Z"/><path class="cls-1" d="M38.31,24.5c0-10.13,7.17-17,16-15.4"/><path class="cls-1" d="M38.31,24.5c0-10.13,8.58-18.17,19.1-17.94"/></g><path class="cls-1" d="M46.05,38.82a7.68,7.68,0,0,0,.87.42,35.24,35.24,0,0,0-8.35-.94c-6.18,0-8.89.9-8.92.9A8.63,8.63,0,0,0,31,38.51a13,13,0,0,0,1.82-1.39,15.58,15.58,0,0,0,1.78-1.87A19.35,19.35,0,0,0,36,33.18a17.54,17.54,0,0,0,2.33-8.68h0a17.07,17.07,0,0,0,.43,3.94,18.19,18.19,0,0,0,1.42,3.94c.21.38.47.91.72,1.28a15.9,15.9,0,0,0,1.59,2.16,16.07,16.07,0,0,0,1.81,1.77,13.71,13.71,0,0,0,1.77,1.23,14.79,14.79,0,0,0,9.38,1.73c1.33.76,2,1.55,2,2.34,0,2-3.94,3.84-10.7,4.75-9.48,1.27-20.93.17-25.58-2.47-1.33-.76-2-1.56-2-2.34,0-2,3.94-3.84,10.71-4.75,9.47-1.28,20.93-.17,25.57,2.47A14.79,14.79,0,0,1,46.05,38.82Z"/></g><path class="cls-1" d="M46.05,38.82a7.68,7.68,0,0,0,.87.42,35.24,35.24,0,0,0-8.35-.94c-6.18,0-8.89.9-8.92.9A8.63,8.63,0,0,0,31,38.51a13,13,0,0,0,1.82-1.39,15.58,15.58,0,0,0,1.78-1.87A19.35,19.35,0,0,0,36,33.18a17.54,17.54,0,0,0,2.33-8.68h0a17.07,17.07,0,0,0,.43,3.94,18.19,18.19,0,0,0,1.42,3.94c.21.38.47.91.72,1.28a15.9,15.9,0,0,0,1.59,2.16,16.07,16.07,0,0,0,1.81,1.77,13.71,13.71,0,0,0,1.77,1.23,14.79,14.79,0,0,0,9.38,1.73c1.33.76,2,1.55,2,2.34,0,2-3.94,3.84-10.7,4.75-9.48,1.27-20.93.17-25.58-2.47-1.33-.76-2-1.56-2-2.34,0-2,3.94-3.84,10.71-4.75,9.47-1.28,20.93-.17,25.57,2.47A14.79,14.79,0,0,1,46.05,38.82Z"/></g><g class="cls-2"><g class="cls-13"><g class="cls-2"><path class="cls-1" d="M55.43,40.55c-9.46,1.27-17.14-5.93-17.12-16h0c0,10.12-3.81,16.21-8.45,13.58C39.33,36.8,50.79,37.91,55.43,40.55Z"/><path class="cls-1" d="M46.78,39.2c-2.3-1.31-8-1.85-12.68-1.22"/><path class="cls-1" d="M40.63,33.44a6.93,6.93,0,0,0-3.49-.34"/><path class="cls-1" d="M48.84,38.45c-5.83,2.43-10.55-3.83-10.53-14"/><path class="cls-1" d="M39.67,37.56c-.77,2.92-1.38-2.94-1.36-13.06"/><path class="cls-1" d="M29.86,38.08c4.64,2.63,8.43-3.46,8.45-13.58h0c0,10.12-7.74,19.39-17.2,20.67C16.46,42.53,20.38,39.35,29.86,38.08Z"/><path class="cls-1" d="M34.1,38c-4.69.63-6.64,2.2-4.33,3.51"/><path class="cls-1" d="M37.14,33.1c-1.3.18-1.83.61-1.2,1"/><path class="cls-1" d="M22.34,39.89c8.79,1.64,16-5.27,16-15.39"/><path class="cls-1" d="M19.2,42.44c10.52.23,19.09-7.82,19.11-17.94"/><path class="cls-1" d="M38.31,24.5C38.32,14.37,46,5.11,55.5,3.83,50.85,1.19,39.4.08,29.92,1.36c4.64,2.64,8.4,13,8.39,23.14Z"/><path class="cls-1" d="M38.31,24.5c0-10.13,4.77-20.34,10.6-22.77"/><path class="cls-1" d="M38.31,24.5c0-10.13.66-20.73,1.42-23.65"/><path class="cls-1" d="M38.31,24.5c0-10.13-3.75-20.5-8.39-23.14-9.48,1.27-13.39,4.45-8.74,7.09,9.46-1.27,17.14,5.92,17.13,16.05Z"/><path class="cls-1" d="M38.31,24.5c0-10.13-7.12-19.69-15.9-21.32"/><path class="cls-1" d="M38.31,24.5c0-10.13-8.52-18.55-19-18.78"/></g><path class="cls-1" d="M32.43,38.66a19.51,19.51,0,0,0-2.78.54A12.09,12.09,0,0,0,33,36.93,16.22,16.22,0,0,0,36.09,33a18,18,0,0,0,1.62-4,17.08,17.08,0,0,0,.6-4.51h0c0,6.42,3.07,11.66,7.74,14.32a8.48,8.48,0,0,0,.87.42,17.84,17.84,0,0,0-1.79-.4c-.22,0-.68-.12-1.58-.23-1.48-.19-2.89-.24-3.92-.29A47.33,47.33,0,0,0,32.43,38.66Z"/></g><path class="cls-1" d="M32.43,38.66a19.51,19.51,0,0,0-2.78.54A12.09,12.09,0,0,0,33,36.93,16.22,16.22,0,0,0,36.09,33a18,18,0,0,0,1.62-4,17.08,17.08,0,0,0,.6-4.51h0c0,6.42,3.07,11.66,7.74,14.32a8.48,8.48,0,0,0,.87.42,17.84,17.84,0,0,0-1.79-.4c-.22,0-.68-.12-1.58-.23-1.48-.19-2.89-.24-3.92-.29A47.33,47.33,0,0,0,32.43,38.66Z"/></g><g class="cls-2"><g class="cls-14"><g class="cls-2"><path class="cls-1" d="M46.69,47.64c-4.64-2.64-8.4-13-8.38-23.14h0c0,10.12,7.66,17.32,17.12,16C60.08,43.19,56.17,46.36,46.69,47.64Z"/><path class="cls-1" d="M39.44,34.41c1.29-.17,1.83-.61,1.19-1"/><path class="cls-1" d="M38.31,24.5c0-10.13,3.8-16.21,8.44-13.58,9.48-1.27,13.4-4.45,8.75-7.09C46,5.11,38.32,14.37,38.31,24.5Z"/></g><path class="cls-1" d="M46.05,38.82c-4.67-2.66-7.76-7.9-7.74-14.32a17.18,17.18,0,0,0,.46,4.08,17.85,17.85,0,0,0,1.46,3.94,17.09,17.09,0,0,0,2.45,3.54,17.76,17.76,0,0,0,1.6,1.53A13.54,13.54,0,0,0,46.05,38.82Z"/></g><path class="cls-1" d="M46.05,38.82c-4.67-2.66-7.76-7.9-7.74-14.32a17.18,17.18,0,0,0,.46,4.08,17.85,17.85,0,0,0,1.46,3.94,17.09,17.09,0,0,0,2.45,3.54,17.76,17.76,0,0,0,1.6,1.53A13.54,13.54,0,0,0,46.05,38.82Z"/></g><g class="cls-2"><g class="cls-15"><g class="cls-2"><path class="cls-1" d="M55.43,40.55c-9.46,1.27-17.14-5.93-17.12-16h0c0,10.12-3.81,16.21-8.45,13.58C39.33,36.8,50.79,37.91,55.43,40.55Z"/><path class="cls-1" d="M29.86,38.08c4.64,2.63,8.43-3.46,8.45-13.58h0c0,10.12-7.74,19.39-17.2,20.67C16.46,42.53,20.38,39.35,29.86,38.08Z"/><path class="cls-1" d="M22.34,39.89c8.79,1.64,16-5.27,16-15.39"/><path class="cls-1" d="M19.2,42.44c10.52.23,19.09-7.82,19.11-17.94"/><path class="cls-1" d="M21.11,45.17c9.46-1.28,17.18-10.55,17.2-20.67h0c0,10.12,3.74,20.5,8.38,23.14C37.21,48.91,25.76,47.81,21.11,45.17Z"/><path class="cls-1" d="M27.7,47.26c5.83-2.43,10.59-12.64,10.61-22.76"/><path class="cls-1" d="M36.88,48.15c.76-2.92,1.41-13.53,1.43-23.65"/><path class="cls-1" d="M46.69,47.64c-4.64-2.64-8.4-13-8.38-23.14h0c0,10.12,7.66,17.32,17.12,16C60.08,43.19,56.17,46.36,46.69,47.64Z"/><path class="cls-1" d="M54.2,45.82c-8.78-1.63-15.91-11.2-15.89-21.32"/><path class="cls-1" d="M57.34,43.28c-10.52-.23-19.05-8.66-19-18.78"/><path class="cls-1" d="M38.31,24.5C38.32,14.37,46,5.11,55.5,3.83,50.85,1.19,39.4.08,29.92,1.36c4.64,2.64,8.4,13,8.39,23.14Z"/><path class="cls-1" d="M40.67,14.92a7,7,0,0,0-3.5-.34"/><path class="cls-1" d="M46.84,7.51c-2.3-1.31-8-1.86-12.68-1.23"/><path class="cls-1" d="M38.31,24.5c0-10.13-3.75-20.5-8.39-23.14-9.48,1.27-13.39,4.45-8.74,7.09,9.46-1.27,17.14,5.92,17.13,16.05Z"/><path class="cls-1" d="M37.17,14.58c-1.29.18-1.83.61-1.19,1"/><path class="cls-1" d="M34.16,6.28c-4.7.63-6.64,2.2-4.33,3.51"/><path class="cls-1" d="M38.31,24.5c0-10.13-7.12-19.69-15.9-21.32"/><path class="cls-1" d="M38.31,24.5c0-10.13-8.52-18.55-19-18.78"/><path class="cls-1" d="M38.31,24.5c0-10.13-7.67-17.32-17.13-16,4.64,2.64,16.1,3.75,25.57,2.47-4.64-2.63-8.43,3.45-8.44,13.58Z"/><path class="cls-1" d="M36,15.55a6.93,6.93,0,0,0,3.49.34"/><path class="cls-1" d="M29.83,9.79c2.3,1.31,8,1.86,12.68,1.23"/><path class="cls-1" d="M38.31,24.5c0-10.13-4.71-16.38-10.54-13.95"/><path class="cls-1" d="M38.31,24.5c0-10.13-.6-16-1.37-13.07"/><path class="cls-1" d="M38.31,24.5c0-10.13,3.8-16.21,8.44-13.58,9.48-1.27,13.4-4.45,8.75-7.09C46,5.11,38.32,14.37,38.31,24.5Z"/><path class="cls-1" d="M39.47,15.89c1.3-.17,1.83-.61,1.2-1"/><path class="cls-1" d="M42.51,11c4.69-.63,6.64-2.21,4.33-3.51"/><path class="cls-1" d="M38.31,24.5c0-10.13,7.17-17,16-15.4"/><path class="cls-1" d="M38.31,24.5c0-10.13,8.58-18.17,19.1-17.94"/></g><path class="cls-1" d="M38.31,24.5a17.48,17.48,0,0,0-.47-4.33A18.14,18.14,0,0,0,36,15.72a14.5,14.5,0,0,0-6.26-6,34.88,34.88,0,0,0,8.34.93c6.2,0,8.93-.9,9-.91a12.53,12.53,0,0,0-3.46,2.35,16.92,16.92,0,0,0-2.5,3,23.5,23.5,0,0,0-1.24,2.32,22.67,22.67,0,0,0-.9,2.55,17.64,17.64,0,0,0-.58,4.48Z"/></g><path class="cls-1" d="M38.31,24.5a17.48,17.48,0,0,0-.47-4.33A18.14,18.14,0,0,0,36,15.72a14.5,14.5,0,0,0-6.26-6,34.88,34.88,0,0,0,8.34.93c6.2,0,8.93-.9,9-.91a12.53,12.53,0,0,0-3.46,2.35,16.92,16.92,0,0,0-2.5,3,23.5,23.5,0,0,0-1.24,2.32,22.67,22.67,0,0,0-.9,2.55,17.64,17.64,0,0,0-.58,4.48Z"/></g><g class="cls-2"><g class="cls-16"><g class="cls-2"><path class="cls-1" d="M55.43,40.55c-9.46,1.27-17.14-5.93-17.12-16h0c0,10.12-3.81,16.21-8.45,13.58C39.33,36.8,50.79,37.91,55.43,40.55Z"/><path class="cls-1" d="M48.84,38.45c-5.83,2.43-10.55-3.83-10.53-14"/><path class="cls-1" d="M39.67,37.56c-.77,2.92-1.38-2.94-1.36-13.06"/><path class="cls-1" d="M29.86,38.08c4.64,2.63,8.43-3.46,8.45-13.58h0c0,10.12-7.74,19.39-17.2,20.67C16.46,42.53,20.38,39.35,29.86,38.08Z"/><path class="cls-1" d="M22.34,39.89c8.79,1.64,16-5.27,16-15.39"/><path class="cls-1" d="M19.2,42.44c10.52.23,19.09-7.82,19.11-17.94"/><path class="cls-1" d="M21.11,45.17c9.46-1.28,17.18-10.55,17.2-20.67h0c0,10.12,3.74,20.5,8.38,23.14C37.21,48.91,25.76,47.81,21.11,45.17Z"/><path class="cls-1" d="M27.7,47.26c5.83-2.43,10.59-12.64,10.61-22.76"/><path class="cls-1" d="M36.88,48.15c.76-2.92,1.41-13.53,1.43-23.65"/><path class="cls-1" d="M46.69,47.64c-4.64-2.64-8.4-13-8.38-23.14h0c0,10.12,7.66,17.32,17.12,16C60.08,43.19,56.17,46.36,46.69,47.64Z"/><path class="cls-1" d="M54.2,45.82c-8.78-1.63-15.91-11.2-15.89-21.32"/><path class="cls-1" d="M57.34,43.28c-10.52-.23-19.05-8.66-19-18.78"/><path class="cls-1" d="M38.31,24.5C38.32,14.37,46,5.11,55.5,3.83,50.85,1.19,39.4.08,29.92,1.36c4.64,2.64,8.4,13,8.39,23.14Z"/><path class="cls-1" d="M40.67,14.92a7,7,0,0,0-3.5-.34"/><path class="cls-1" d="M46.84,7.51c-2.3-1.31-8-1.86-12.68-1.23"/><path class="cls-1" d="M38.31,24.5c0-10.13,4.77-20.34,10.6-22.77"/><path class="cls-1" d="M38.31,24.5c0-10.13.66-20.73,1.42-23.65"/><path class="cls-1" d="M38.31,24.5c0-10.13-3.75-20.5-8.39-23.14-9.48,1.27-13.39,4.45-8.74,7.09,9.46-1.27,17.14,5.92,17.13,16.05Z"/><path class="cls-1" d="M37.17,14.58c-1.29.18-1.83.61-1.19,1"/><path class="cls-1" d="M34.16,6.28c-4.7.63-6.64,2.2-4.33,3.51"/><path class="cls-1" d="M38.31,24.5c0-10.13-7.12-19.69-15.9-21.32"/><path class="cls-1" d="M38.31,24.5c0-10.13-8.52-18.55-19-18.78"/><path class="cls-1" d="M38.31,24.5c0-10.13-7.67-17.32-17.13-16,4.64,2.64,16.1,3.75,25.57,2.47-4.64-2.63-8.43,3.45-8.44,13.58Z"/><path class="cls-1" d="M36,15.55a6.93,6.93,0,0,0,3.49.34"/><path class="cls-1" d="M29.83,9.79c2.3,1.31,8,1.86,12.68,1.23"/><path class="cls-1" d="M38.31,24.5c0-10.13-4.71-16.38-10.54-13.95"/><path class="cls-1" d="M38.31,24.5c0-10.13-.6-16-1.37-13.07"/><path class="cls-1" d="M38.31,24.5c0-10.13,3.8-16.21,8.44-13.58,9.48-1.27,13.4-4.45,8.75-7.09C46,5.11,38.32,14.37,38.31,24.5Z"/><path class="cls-1" d="M39.47,15.89c1.3-.17,1.83-.61,1.2-1"/><path class="cls-1" d="M42.51,11c4.69-.63,6.64-2.21,4.33-3.51"/><path class="cls-1" d="M38.31,24.5c0-10.13,7.17-17,16-15.4"/><path class="cls-1" d="M38.31,24.5c0-10.13,8.58-18.17,19.1-17.94"/></g><path class="cls-1" d="M30.56,10.18a8.32,8.32,0,0,0-.86-.42c.2.05.41.12.62.16.45.11.45.11,1.16.24.34.06,1.26.19,1.58.23a44.75,44.75,0,0,0,5,.3c5.92,0,8.66-.82,9-.91a11.76,11.76,0,0,0-2.93,1.88,21.83,21.83,0,0,0-1.6,1.59,15.94,15.94,0,0,0-1.6,2.18,20.85,20.85,0,0,0-1.21,2.35c-.31.75-.62,1.79-.85,2.57a21.27,21.27,0,0,0-.44,2.75s0,.45,0,1.4C38.32,14.37,46,5.11,55.5,3.83c1.33.76,2,1.56,2,2.34,0,2-3.94,3.84-10.71,4.75-9.47,1.28-20.93.17-25.57-2.47-1.33-.76-2-1.56-2-2.34,0-2,3.94-3.84,10.7-4.75C39.4.08,50.85,1.19,55.5,3.83,46,5.11,38.32,14.37,38.31,24.5h0a17.76,17.76,0,0,0-.46-4.29A14.06,14.06,0,0,0,37.11,18,20.35,20.35,0,0,0,36,15.72a16.45,16.45,0,0,0-2.19-3A13.87,13.87,0,0,0,30.56,10.18Z"/></g><path class="cls-1" d="M30.56,10.18a8.32,8.32,0,0,0-.86-.42c.2.05.41.12.62.16.45.11.45.11,1.16.24.34.06,1.26.19,1.58.23a44.75,44.75,0,0,0,5,.3c5.92,0,8.66-.82,9-.91a11.76,11.76,0,0,0-2.93,1.88,21.83,21.83,0,0,0-1.6,1.59,15.94,15.94,0,0,0-1.6,2.18,20.85,20.85,0,0,0-1.21,2.35c-.31.75-.62,1.79-.85,2.57a21.27,21.27,0,0,0-.44,2.75s0,.45,0,1.4C38.32,14.37,46,5.11,55.5,3.83c1.33.76,2,1.56,2,2.34,0,2-3.94,3.84-10.71,4.75-9.47,1.28-20.93.17-25.57-2.47-1.33-.76-2-1.56-2-2.34,0-2,3.94-3.84,10.7-4.75C39.4.08,50.85,1.19,55.5,3.83,46,5.11,38.32,14.37,38.31,24.5h0a17.76,17.76,0,0,0-.46-4.29A14.06,14.06,0,0,0,37.11,18,20.35,20.35,0,0,0,36,15.72a16.45,16.45,0,0,0-2.19-3A13.87,13.87,0,0,0,30.56,10.18Z"/></g><g class="cls-2"><g class="cls-17"><g class="cls-2"><path class="cls-1" d="M55.44,39.68C46.42,40.9,39.1,34,39.11,24.39a2.28,2.28,0,0,0-1.2-.12c0,9.65-3.63,15.45-8,12.94C39.34,35.94,50.79,37,55.44,39.68Z"/><path class="cls-1" d="M47.19,38.4c-2.41-1.37-8.36-1.95-13.28-1.28"/><path class="cls-1" d="M41.33,32.91a9,9,0,0,0-4.53-.44"/><path class="cls-1" d="M48.84,37.59c-5.55,2.31-10.05-3.65-10-13.3"/><path class="cls-1" d="M39.67,36.7c-.74,2.78-1.32-2.8-1.3-12.45"/><path class="cls-1" d="M29.86,37.21c4.42,2.51,8-3.29,8-12.94-.45.06-.63.21-.41.33,0,9.65-7.37,18.49-16.39,19.7C16.46,41.66,20.38,38.49,29.86,37.21Z"/><path class="cls-1" d="M33.91,37.12c-4.93.66-7,2.31-4.55,3.68"/><path class="cls-1" d="M36.8,32.47c-1.69.23-2.38.79-1.56,1.26"/><path class="cls-1" d="M22.34,39c8.37,1.56,15.2-5,15.21-14.67"/><path class="cls-1" d="M19.21,41.57c10,.22,18.18-7.44,18.2-17.09"/><path class="cls-1" d="M39.11,24.39c0-9.64,7.37-18.48,16.39-19.69C50.85,2.06,39.4,1,29.92,2.23c4.42,2.51,8,12.4,8,22A2.28,2.28,0,0,1,39.11,24.39Z"/><path class="cls-1" d="M38.8,24.29c0-9.64,4.55-19.37,10.11-21.69"/><path class="cls-1" d="M38.37,24.25c0-9.65.63-19.76,1.36-22.54"/><path class="cls-1" d="M37.91,24.27c0-9.64-3.57-19.53-8-22C20.44,3.5,16.53,6.67,21.17,9.31,30.19,8.1,37.51,15,37.5,24.6,37.28,24.48,37.46,24.33,37.91,24.27Z"/><path class="cls-1" d="M37.55,24.36C37.57,14.71,30.78,5.6,22.41,4"/><path class="cls-1" d="M37.41,24.48c0-9.65-8.12-17.67-18.14-17.89"/></g><path class="cls-1" d="M46.49,38a6,6,0,0,0,.75.37,35,35,0,0,0-8.66-1,50.22,50.22,0,0,0-5.3.25,24.56,24.56,0,0,0-4,.72,11.48,11.48,0,0,0,2.87-1.92,13.22,13.22,0,0,0,1.67-1.77,16.05,16.05,0,0,0,1.34-2,16.33,16.33,0,0,0,2.2-8.24C37.39,34.14,29.2,42,19.15,42c0-2,3.94-3.84,10.71-4.75,9.48-1.27,20.93-.17,25.58,2.47A14.08,14.08,0,0,1,46.49,38Z"/></g><path class="cls-1" d="M46.49,38a6,6,0,0,0,.75.37,35,35,0,0,0-8.66-1,50.22,50.22,0,0,0-5.3.25,24.56,24.56,0,0,0-4,.72,11.48,11.48,0,0,0,2.87-1.92,13.22,13.22,0,0,0,1.67-1.77,16.05,16.05,0,0,0,1.34-2,16.33,16.33,0,0,0,2.2-8.24C37.39,34.14,29.2,42,19.15,42c0-2,3.94-3.84,10.71-4.75,9.48-1.27,20.93-.17,25.58,2.47A14.08,14.08,0,0,1,46.49,38Z"/></g><g class="cls-2"><g class="cls-18"><g class="cls-2"><path class="cls-1" d="M55.44,39.68C46.42,40.9,39.1,34,39.11,24.39a2.28,2.28,0,0,0-1.2-.12c0,9.65-3.63,15.45-8,12.94C39.34,35.94,50.79,37,55.44,39.68Z"/><path class="cls-1" d="M47.19,38.4c-2.41-1.37-8.36-1.95-13.28-1.28"/><path class="cls-1" d="M41.33,32.91a9,9,0,0,0-4.53-.44"/><path class="cls-1" d="M48.84,37.59c-5.55,2.31-10.05-3.65-10-13.3"/><path class="cls-1" d="M39.67,36.7c-.74,2.78-1.32-2.8-1.3-12.45"/><path class="cls-1" d="M29.86,37.21c4.42,2.51,8-3.29,8-12.94-.45.06-.63.21-.41.33,0,9.65-7.37,18.49-16.39,19.7C16.46,41.66,20.38,38.49,29.86,37.21Z"/><path class="cls-1" d="M33.91,37.12c-4.93.66-7,2.31-4.55,3.68"/><path class="cls-1" d="M36.8,32.47c-1.69.23-2.38.79-1.56,1.26"/><path class="cls-1" d="M22.34,39c8.37,1.56,15.2-5,15.21-14.67"/><path class="cls-1" d="M19.21,41.57c10,.22,18.18-7.44,18.2-17.09"/><path class="cls-1" d="M39.11,24.39c0-9.64,7.37-18.48,16.39-19.69C50.85,2.06,39.4,1,29.92,2.23c4.42,2.51,8,12.4,8,22A2.28,2.28,0,0,1,39.11,24.39Z"/><path class="cls-1" d="M38.8,24.29c0-9.64,4.55-19.37,10.11-21.69"/><path class="cls-1" d="M38.37,24.25c0-9.65.63-19.76,1.36-22.54"/><path class="cls-1" d="M37.91,24.27c0-9.64-3.57-19.53-8-22C20.44,3.5,16.53,6.67,21.17,9.31,30.19,8.1,37.51,15,37.5,24.6,37.28,24.48,37.46,24.33,37.91,24.27Z"/><path class="cls-1" d="M37.55,24.36C37.57,14.71,30.78,5.6,22.41,4"/><path class="cls-1" d="M37.41,24.48c0-9.65-8.12-17.67-18.14-17.89"/></g><path class="cls-1" d="M32.31,37.77a17.2,17.2,0,0,0-3,.6,11.4,11.4,0,0,0,3.08-2.1A16.15,16.15,0,0,0,34,34.53a20.55,20.55,0,0,0,1.31-2,16.76,16.76,0,0,0,1.54-3.78,13.86,13.86,0,0,0,.34-1.58c.11-.8.19-1.88.22-2.7,0-.09.19-.18.51-.22a2.28,2.28,0,0,1,1.2.12C39.1,30.51,42,35.5,46.49,38a5.72,5.72,0,0,0,.75.37,29.6,29.6,0,0,0-6.52-.93A46.47,46.47,0,0,0,32.31,37.77Z"/></g><path class="cls-1" d="M32.31,37.77a17.2,17.2,0,0,0-3,.6,11.4,11.4,0,0,0,3.08-2.1A16.15,16.15,0,0,0,34,34.53a20.55,20.55,0,0,0,1.31-2,16.76,16.76,0,0,0,1.54-3.78,13.86,13.86,0,0,0,.34-1.58c.11-.8.19-1.88.22-2.7,0-.09.19-.18.51-.22a2.28,2.28,0,0,1,1.2.12C39.1,30.51,42,35.5,46.49,38a5.72,5.72,0,0,0,.75.37,29.6,29.6,0,0,0-6.52-.93A46.47,46.47,0,0,0,32.31,37.77Z"/></g><g class="cls-2"><g class="cls-19"><g class="cls-2"><path class="cls-1" d="M29.86,37.21c4.42,2.51,8-3.29,8-12.94-.45.06-.63.21-.41.33,0,9.65-7.37,18.49-16.39,19.7C16.46,41.66,20.38,38.49,29.86,37.21Z"/><path class="cls-1" d="M33.91,37.12c-4.93.66-7,2.31-4.55,3.68"/><path class="cls-1" d="M36.8,32.47c-1.69.23-2.38.79-1.56,1.26"/><path class="cls-1" d="M21.11,44.3c9-1.21,16.37-10,16.39-19.7a2.28,2.28,0,0,0,1.2.12c0,9.65,3.57,19.54,8,22.05C37.21,48.05,25.76,46.94,21.11,44.3Z"/><path class="cls-1" d="M29.36,40.8c2.42,1.37,8.36,2,13.29,1.28"/><path class="cls-1" d="M35.24,33.73a9,9,0,0,0,4.54.44"/><path class="cls-1" d="M27.7,46.4c5.56-2.32,10.09-12,10.11-21.7"/><path class="cls-1" d="M36.88,47.29c.73-2.79,1.34-12.9,1.36-22.54"/><path class="cls-1" d="M46.69,46.77c-4.42-2.51-8-12.4-8-22.05.45-.06.63-.21.41-.33,0,9.65,7.31,16.51,16.33,15.29C60.08,42.33,56.17,45.5,46.69,46.77Z"/><path class="cls-1" d="M42.65,42.08c4.92-.66,7-2.31,4.54-3.68"/><path class="cls-1" d="M39.78,34.17c1.68-.23,2.38-.79,1.55-1.26"/><path class="cls-1" d="M54.2,45C45.83,43.4,39,34.28,39.06,24.64"/><path class="cls-1" d="M57.34,42.41c-10-.22-18.15-8.25-18.14-17.89"/><path class="cls-1" d="M37.91,24.27c0-9.64-3.57-19.53-8-22C20.44,3.5,16.53,6.67,21.17,9.31,30.19,8.1,37.51,15,37.5,24.6,37.28,24.48,37.46,24.33,37.91,24.27Z"/><path class="cls-1" d="M37.5,24.6c0-9.64-7.31-16.5-16.33-15.29,4.65,2.65,16.1,3.75,25.58,2.48-4.42-2.51-8,3.29-8,12.93A2.28,2.28,0,0,1,37.5,24.6Z"/><path class="cls-1" d="M37.81,24.7c0-9.64-4.49-15.6-10-13.29"/><path class="cls-1" d="M38.24,24.75c0-9.65-.56-15.23-1.3-12.45"/><path class="cls-1" d="M38.7,24.72c0-9.64,3.63-15.44,8-12.93,9.48-1.28,13.4-4.45,8.75-7.09-9,1.21-16.37,10.05-16.39,19.69C39.33,24.51,39.15,24.66,38.7,24.72Z"/><path class="cls-1" d="M39.06,24.64C39.07,15,45.9,8.41,54.27,10"/><path class="cls-1" d="M39.2,24.52c0-9.65,8.18-17.31,18.2-17.09"/></g><path class="cls-1" d="M19.15,42C29.2,42,37.39,34.14,37.4,24.49c0,0,0,.08.1.11a2.28,2.28,0,0,0,1.2.12c.32,0,.51-.13.51-.22C39.19,34.15,47.34,42,57.39,42c0,2-3.93,3.84-10.7,4.75-9.48,1.28-20.93.17-25.58-2.47C19.78,43.55,19.15,42.75,19.15,42Z"/></g><path class="cls-1" d="M19.15,42C29.2,42,37.39,34.14,37.4,24.49c0,0,0,.08.1.11a2.28,2.28,0,0,0,1.2.12c.32,0,.51-.13.51-.22C39.19,34.15,47.34,42,57.39,42c0,2-3.93,3.84-10.7,4.75-9.48,1.28-20.93.17-25.58-2.47C19.78,43.55,19.15,42.75,19.15,42Z"/></g><g class="cls-2"><g class="cls-20"><g class="cls-2"><path class="cls-1" d="M46.69,46.77c-4.42-2.51-8-12.4-8-22.05.45-.06.63-.21.41-.33,0,9.65,7.31,16.51,16.33,15.29C60.08,42.33,56.17,45.5,46.69,46.77Z"/><path class="cls-1" d="M39.78,34.17c1.68-.23,2.38-.79,1.55-1.26"/><path class="cls-1" d="M38.7,24.72c0-9.64,3.63-15.44,8-12.93,9.48-1.28,13.4-4.45,8.75-7.09-9,1.21-16.37,10.05-16.39,19.69C39.33,24.51,39.15,24.66,38.7,24.72Z"/></g><path class="cls-1" d="M46.49,38C42,35.5,39.1,30.51,39.11,24.39c.07,0,.1.07.1.11,0,.73.09,1.71.17,2.44a13.85,13.85,0,0,0,.27,1.43A17.11,17.11,0,0,0,41,32.11a16,16,0,0,0,2.32,3.35A13.06,13.06,0,0,0,46.49,38Z"/></g><path class="cls-1" d="M46.49,38C42,35.5,39.1,30.51,39.11,24.39c.07,0,.1.07.1.11,0,.73.09,1.71.17,2.44a13.85,13.85,0,0,0,.27,1.43A17.11,17.11,0,0,0,41,32.11a16,16,0,0,0,2.32,3.35A13.06,13.06,0,0,0,46.49,38Z"/></g><g class="cls-2"><g class="cls-21"><g class="cls-2"><path class="cls-1" d="M46.69,46.77c-4.42-2.51-8-12.4-8-22.05.45-.06.63-.21.41-.33,0,9.65,7.31,16.51,16.33,15.29C60.08,42.33,56.17,45.5,46.69,46.77Z"/><path class="cls-1" d="M42.65,42.08c4.92-.66,7-2.31,4.54-3.68"/><path class="cls-1" d="M39.78,34.17c1.68-.23,2.38-.79,1.55-1.26"/><path class="cls-1" d="M38.7,24.72c0-9.64,3.63-15.44,8-12.93,9.48-1.28,13.4-4.45,8.75-7.09-9,1.21-16.37,10.05-16.39,19.69C39.33,24.51,39.15,24.66,38.7,24.72Z"/></g><path class="cls-1" d="M39.21,24.5c0,.41,0,1,0,1.36a23.54,23.54,0,0,0,.36,2.38A17.16,17.16,0,0,0,41,32c.2.37.45.87.68,1.21a15.17,15.17,0,0,0,3.21,3.71A11.43,11.43,0,0,0,46.49,38a14.08,14.08,0,0,0,8.95,1.65c1.32.76,2,1.56,2,2.34C47.34,42,39.19,34.15,39.21,24.5Z"/></g><path class="cls-1" d="M39.21,24.5c0,.41,0,1,0,1.36a23.54,23.54,0,0,0,.36,2.38A17.16,17.16,0,0,0,41,32c.2.37.45.87.68,1.21a15.17,15.17,0,0,0,3.21,3.71A11.43,11.43,0,0,0,46.49,38a14.08,14.08,0,0,0,8.95,1.65c1.32.76,2,1.56,2,2.34C47.34,42,39.19,34.15,39.21,24.5Z"/></g><g class="cls-2"><g class="cls-22"><g class="cls-2"><path class="cls-1" d="M29.86,37.21c4.42,2.51,8-3.29,8-12.94-.45.06-.63.21-.41.33,0,9.65-7.37,18.49-16.39,19.7C16.46,41.66,20.38,38.49,29.86,37.21Z"/><path class="cls-1" d="M21.11,44.3c9-1.21,16.37-10,16.39-19.7a2.28,2.28,0,0,0,1.2.12c0,9.65,3.57,19.54,8,22.05C37.21,48.05,25.76,46.94,21.11,44.3Z"/><path class="cls-1" d="M27.7,46.4c5.56-2.32,10.09-12,10.11-21.7"/><path class="cls-1" d="M36.88,47.29c.73-2.79,1.34-12.9,1.36-22.54"/><path class="cls-1" d="M46.69,46.77c-4.42-2.51-8-12.4-8-22.05.45-.06.63-.21.41-.33,0,9.65,7.31,16.51,16.33,15.29C60.08,42.33,56.17,45.5,46.69,46.77Z"/><path class="cls-1" d="M54.2,45C45.83,43.4,39,34.28,39.06,24.64"/><path class="cls-1" d="M57.34,42.41c-10-.22-18.15-8.25-18.14-17.89"/><path class="cls-1" d="M37.91,24.27c0-9.64-3.57-19.53-8-22C20.44,3.5,16.53,6.67,21.17,9.31,30.19,8.1,37.51,15,37.5,24.6,37.28,24.48,37.46,24.33,37.91,24.27Z"/><path class="cls-1" d="M36.83,14.83c-1.68.22-2.38.79-1.55,1.26"/><path class="cls-1" d="M34,6.91c-4.92.67-7,2.32-4.54,3.69"/><path class="cls-1" d="M37.5,24.6c0-9.64-7.31-16.5-16.33-15.29,4.65,2.65,16.1,3.75,25.58,2.48-4.42-2.51-8,3.29-8,12.93A2.28,2.28,0,0,1,37.5,24.6Z"/><path class="cls-1" d="M35.28,16.09a9,9,0,0,0,4.53.43"/><path class="cls-1" d="M29.42,10.6c2.41,1.37,8.36,1.94,13.28,1.28"/><path class="cls-1" d="M37.81,24.7c0-9.64-4.49-15.6-10-13.29"/><path class="cls-1" d="M38.24,24.75c0-9.65-.56-15.23-1.3-12.45"/><path class="cls-1" d="M38.7,24.72c0-9.64,3.63-15.44,8-12.93,9.48-1.28,13.4-4.45,8.75-7.09-9,1.21-16.37,10.05-16.39,19.69C39.33,24.51,39.15,24.66,38.7,24.72Z"/><path class="cls-1" d="M39.81,16.52c1.69-.22,2.38-.78,1.56-1.25"/><path class="cls-1" d="M42.7,11.88c4.93-.66,7-2.31,4.55-3.68"/><path class="cls-1" d="M39.06,24.64C39.07,15,45.9,8.41,54.27,10"/><path class="cls-1" d="M39.2,24.52c0-9.65,8.18-17.31,18.2-17.09"/></g><path class="cls-1" d="M37.4,24.49c0-.81-.11-1.89-.21-2.7a11.22,11.22,0,0,0-.29-1.4,17.27,17.27,0,0,0-1.48-3.81,15.68,15.68,0,0,0-2.89-3.79,11.71,11.71,0,0,0-3.16-2.19,34,34,0,0,0,8.66,1,50.06,50.06,0,0,0,5.3-.25,26.69,26.69,0,0,0,3.92-.7,8.11,8.11,0,0,0-1.24.67,12.39,12.39,0,0,0-1.71,1.33,15,15,0,0,0-3,3.77,15.8,15.8,0,0,0-1.56,3.85,16.16,16.16,0,0,0-.55,4.23c0,.09-.19.18-.51.22a2.28,2.28,0,0,1-1.2-.12C37.43,24.57,37.4,24.53,37.4,24.49Z"/></g><path class="cls-1" d="M37.4,24.49c0-.81-.11-1.89-.21-2.7a11.22,11.22,0,0,0-.29-1.4,17.27,17.27,0,0,0-1.48-3.81,15.68,15.68,0,0,0-2.89-3.79,11.71,11.71,0,0,0-3.16-2.19,34,34,0,0,0,8.66,1,50.06,50.06,0,0,0,5.3-.25,26.69,26.69,0,0,0,3.92-.7,8.11,8.11,0,0,0-1.24.67,12.39,12.39,0,0,0-1.71,1.33,15,15,0,0,0-3,3.77,15.8,15.8,0,0,0-1.56,3.85,16.16,16.16,0,0,0-.55,4.23c0,.09-.19.18-.51.22a2.28,2.28,0,0,1-1.2-.12C37.43,24.57,37.4,24.53,37.4,24.49Z"/></g><g class="cls-2"><g class="cls-23"><g class="cls-2"><path class="cls-1" d="M29.86,37.21c4.42,2.51,8-3.29,8-12.94-.45.06-.63.21-.41.33,0,9.65-7.37,18.49-16.39,19.7C16.46,41.66,20.38,38.49,29.86,37.21Z"/><path class="cls-1" d="M21.11,44.3c9-1.21,16.37-10,16.39-19.7a2.28,2.28,0,0,0,1.2.12c0,9.65,3.57,19.54,8,22.05C37.21,48.05,25.76,46.94,21.11,44.3Z"/><path class="cls-1" d="M27.7,46.4c5.56-2.32,10.09-12,10.11-21.7"/><path class="cls-1" d="M36.88,47.29c.73-2.79,1.34-12.9,1.36-22.54"/><path class="cls-1" d="M46.69,46.77c-4.42-2.51-8-12.4-8-22.05.45-.06.63-.21.41-.33,0,9.65,7.31,16.51,16.33,15.29C60.08,42.33,56.17,45.5,46.69,46.77Z"/><path class="cls-1" d="M54.2,45C45.83,43.4,39,34.28,39.06,24.64"/><path class="cls-1" d="M57.34,42.41c-10-.22-18.15-8.25-18.14-17.89"/><path class="cls-1" d="M37.91,24.27c0-9.64-3.57-19.53-8-22C20.44,3.5,16.53,6.67,21.17,9.31,30.19,8.1,37.51,15,37.5,24.6,37.28,24.48,37.46,24.33,37.91,24.27Z"/><path class="cls-1" d="M36.83,14.83c-1.68.22-2.38.79-1.55,1.26"/><path class="cls-1" d="M34,6.91c-4.92.67-7,2.32-4.54,3.69"/><path class="cls-1" d="M37.5,24.6c0-9.64-7.31-16.5-16.33-15.29,4.65,2.65,16.1,3.75,25.58,2.48-4.42-2.51-8,3.29-8,12.93A2.28,2.28,0,0,1,37.5,24.6Z"/><path class="cls-1" d="M35.28,16.09a9,9,0,0,0,4.53.43"/><path class="cls-1" d="M29.42,10.6c2.41,1.37,8.36,1.94,13.28,1.28"/><path class="cls-1" d="M37.81,24.7c0-9.64-4.49-15.6-10-13.29"/><path class="cls-1" d="M38.24,24.75c0-9.65-.56-15.23-1.3-12.45"/><path class="cls-1" d="M38.7,24.72c0-9.64,3.63-15.44,8-12.93,9.48-1.28,13.4-4.45,8.75-7.09-9,1.21-16.37,10.05-16.39,19.69C39.33,24.51,39.15,24.66,38.7,24.72Z"/><path class="cls-1" d="M39.81,16.52c1.69-.22,2.38-.78,1.56-1.25"/><path class="cls-1" d="M42.7,11.88c4.93-.66,7-2.31,4.55-3.68"/><path class="cls-1" d="M39.06,24.64C39.07,15,45.9,8.41,54.27,10"/><path class="cls-1" d="M39.2,24.52c0-9.65,8.18-17.31,18.2-17.09"/><path class="cls-1" d="M29.92,2.23c-4.42-2.52-8,3.29-8,12.93C3.37,17.65-4.28,23.85,4.8,29c0-9.64,7.36-18.47,16.37-19.69C16.53,6.67,20.44,3.5,29.92,2.23Z"/><path class="cls-1" d="M21.17,9.31c-9,1.22-16.36,10-16.37,19.69,9.07,5.16,31.43,7.32,49.94,4.83,0-9.64-3.57-19.53-8-22C37.27,13.06,25.82,12,21.17,9.31Z"/><path class="cls-1" d="M27.77,11.41C22.21,13.73,17.68,23.46,17.66,33.1"/><path class="cls-1" d="M36.94,12.3c-.73,2.78-1.34,12.89-1.36,22.53"/><path class="cls-1" d="M46.75,11.79c4.42,2.51,8,12.4,8,22C73.24,31.34,80.89,25.15,71.81,20c0-9.64-7.3-16.5-16.31-15.29C60.15,7.34,56.23,10.51,46.75,11.79Z"/><path class="cls-1" d="M54.27,10c8.36,1.56,15.15,10.67,15.13,20.31"/><path class="cls-1" d="M57.4,7.43c10,.22,18.15,8.24,18.13,17.89"/></g><path class="cls-1" d="M30.12,11a7.28,7.28,0,0,0-.75-.37,21.36,21.36,0,0,0,3.58.69A48.29,48.29,0,0,0,38,11.6a49.53,49.53,0,0,0,5.31-.25,26.15,26.15,0,0,0,3.91-.7,11.38,11.38,0,0,0-3.15,2.18,15.94,15.94,0,0,0-2.88,3.76,16.77,16.77,0,0,0-1.5,3.8,13.56,13.56,0,0,0-.29,1.41c-.1.8-.19,1.89-.22,2.7C39.22,14.86,47.41,7,57.46,7c0,2-3.94,3.84-10.71,4.75-9.48,1.27-20.93.17-25.58-2.48-1.32-.75-2-1.55-2-2.33,10.05,0,18.2,7.87,18.18,17.51a16.35,16.35,0,0,0-2-7.91A14.64,14.64,0,0,0,30.12,11Z"/></g><path class="cls-1" d="M30.12,11a7.28,7.28,0,0,0-.75-.37,21.36,21.36,0,0,0,3.58.69A48.29,48.29,0,0,0,38,11.6a49.53,49.53,0,0,0,5.31-.25,26.15,26.15,0,0,0,3.91-.7,11.38,11.38,0,0,0-3.15,2.18,15.94,15.94,0,0,0-2.88,3.76,16.77,16.77,0,0,0-1.5,3.8,13.56,13.56,0,0,0-.29,1.41c-.1.8-.19,1.89-.22,2.7C39.22,14.86,47.41,7,57.46,7c0,2-3.94,3.84-10.71,4.75-9.48,1.27-20.93.17-25.58-2.48-1.32-.75-2-1.55-2-2.33,10.05,0,18.2,7.87,18.18,17.51a16.35,16.35,0,0,0-2-7.91A14.64,14.64,0,0,0,30.12,11Z"/></g><g class="cls-2"><g class="cls-24"><g class="cls-2"><path class="cls-1" d="M55.44,39.68C46.42,40.9,39.1,34,39.11,24.39a2.28,2.28,0,0,0-1.2-.12c0,9.65-3.63,15.45-8,12.94C39.34,35.94,50.79,37,55.44,39.68Z"/><path class="cls-1" d="M48.84,37.59c-5.55,2.31-10.05-3.65-10-13.3"/><path class="cls-1" d="M39.67,36.7c-.74,2.78-1.32-2.8-1.3-12.45"/><path class="cls-1" d="M29.86,37.21c4.42,2.51,8-3.29,8-12.94-.45.06-.63.21-.41.33,0,9.65-7.37,18.49-16.39,19.7C16.46,41.66,20.38,38.49,29.86,37.21Z"/><path class="cls-1" d="M22.34,39c8.37,1.56,15.2-5,15.21-14.67"/><path class="cls-1" d="M19.21,41.57c10,.22,18.18-7.44,18.2-17.09"/><path class="cls-1" d="M39.11,24.39c0-9.64,7.37-18.48,16.39-19.69C50.85,2.06,39.4,1,29.92,2.23c4.42,2.51,8,12.4,8,22A2.28,2.28,0,0,1,39.11,24.39Z"/><path class="cls-1" d="M41.37,15.27a8.91,8.91,0,0,0-4.54-.44"/><path class="cls-1" d="M47.25,8.2C44.83,6.83,38.89,6.25,34,6.91"/><path class="cls-1" d="M38.8,24.29c0-9.64,4.55-19.37,10.11-21.69"/><path class="cls-1" d="M38.37,24.25c0-9.65.63-19.76,1.36-22.54"/><path class="cls-1" d="M37.91,24.27c0-9.64-3.57-19.53-8-22C20.44,3.5,16.53,6.67,21.17,9.31,30.19,8.1,37.51,15,37.5,24.6,37.28,24.48,37.46,24.33,37.91,24.27Z"/><path class="cls-1" d="M36.83,14.83c-1.68.22-2.38.79-1.55,1.26"/><path class="cls-1" d="M34,6.91c-4.92.67-7,2.32-4.54,3.69"/><path class="cls-1" d="M37.55,24.36C37.57,14.71,30.78,5.6,22.41,4"/><path class="cls-1" d="M37.41,24.48c0-9.65-8.12-17.67-18.14-17.89"/><path class="cls-1" d="M55.5,4.7c9-1.21,16.33,5.65,16.31,15.29-9.07-5.16-31.43-7.32-49.94-4.83,0-9.64,3.63-15.45,8.05-12.93C39.4,1,50.85,2.06,55.5,4.7Z"/><path class="cls-1" d="M48.91,2.6C54.46.29,59,6.25,59,15.89"/><path class="cls-1" d="M39.73,1.71c.74-2.78,1.32,2.81,1.3,12.45"/><path class="cls-1" d="M29.92,2.23c-4.42-2.52-8,3.29-8,12.93C3.37,17.65-4.28,23.85,4.8,29c0-9.64,7.36-18.47,16.37-19.69C16.53,6.67,20.44,3.5,29.92,2.23Z"/><path class="cls-1" d="M22.41,4c-8.36-1.55-15.19,5-15.2,14.67"/><path class="cls-1" d="M19.27,6.59C9.26,6.37,1.1,14,1.08,23.67"/></g><path class="cls-1" d="M19.22,7c0-2,3.93-3.84,10.7-4.75C39.4,1,50.85,2.06,55.5,4.7c-9,1.21-16.37,10.05-16.39,19.69a2.28,2.28,0,0,0-1.2-.12c-.32,0-.51.13-.51.22C37.42,14.85,29.27,7,19.22,7Z"/></g><path class="cls-1" d="M19.22,7c0-2,3.93-3.84,10.7-4.75C39.4,1,50.85,2.06,55.5,4.7c-9,1.21-16.37,10.05-16.39,19.69a2.28,2.28,0,0,0-1.2-.12c-.32,0-.51.13-.51.22C37.42,14.85,29.27,7,19.22,7Z"/></g><g class="cls-2"><g class="cls-25"><g class="cls-2"><path class="cls-1" d="M46.69,46.77c-4.42-2.51-8-12.4-8-22.05.45-.06.63-.21.41-.33,0,9.65,7.31,16.51,16.33,15.29C60.08,42.33,56.17,45.5,46.69,46.77Z"/><path class="cls-1" d="M38.7,24.72c0-9.64,3.63-15.44,8-12.93,9.48-1.28,13.4-4.45,8.75-7.09-9,1.21-16.37,10.05-16.39,19.69C39.33,24.51,39.15,24.66,38.7,24.72Z"/><path class="cls-1" d="M39.81,16.52c1.69-.22,2.38-.78,1.56-1.25"/><path class="cls-1" d="M42.7,11.88c4.93-.66,7-2.31,4.55-3.68"/><path class="cls-1" d="M46.75,11.79c4.42,2.51,8,12.4,8,22C73.24,31.34,80.89,25.15,71.81,20c0-9.64-7.3-16.5-16.31-15.29C60.15,7.34,56.23,10.51,46.75,11.79Z"/></g><path class="cls-1" d="M39.21,24.5s0-.08-.1-.11c0-9.64,7.37-18.48,16.39-19.69,1.33.75,2,1.55,2,2.34C47.41,7,39.22,14.86,39.21,24.5Z"/></g><path class="cls-1" d="M39.21,24.5s0-.08-.1-.11c0-9.64,7.37-18.48,16.39-19.69,1.33.75,2,1.55,2,2.34C47.41,7,39.22,14.86,39.21,24.5Z"/></g><g class="cls-2"><g class="cls-26"><g class="cls-2"><path class="cls-1" d="M39.11,24.39c0-9.64,7.37-18.48,16.39-19.69C50.85,2.06,39.4,1,29.92,2.23c4.42,2.51,8,12.4,8,22A2.28,2.28,0,0,1,39.11,24.39Z"/><path class="cls-1" d="M38.8,24.29c0-9.64,4.55-19.37,10.11-21.69"/><path class="cls-1" d="M38.37,24.25c0-9.65.63-19.76,1.36-22.54"/><path class="cls-1" d="M37.91,24.27c0-9.64-3.57-19.53-8-22C20.44,3.5,16.53,6.67,21.17,9.31,30.19,8.1,37.51,15,37.5,24.6,37.28,24.48,37.46,24.33,37.91,24.27Z"/><path class="cls-1" d="M37.55,24.36C37.57,14.71,30.78,5.6,22.41,4"/><path class="cls-1" d="M37.41,24.48c0-9.65-8.12-17.67-18.14-17.89"/><path class="cls-1" d="M37.5,24.6c0-9.64-7.31-16.5-16.33-15.29,4.65,2.65,16.1,3.75,25.58,2.48-4.42-2.51-8,3.29-8,12.93A2.28,2.28,0,0,1,37.5,24.6Z"/><path class="cls-1" d="M37.81,24.7c0-9.64-4.49-15.6-10-13.29"/><path class="cls-1" d="M38.24,24.75c0-9.65-.56-15.23-1.3-12.45"/><path class="cls-1" d="M38.7,24.72c0-9.64,3.63-15.44,8-12.93,9.48-1.28,13.4-4.45,8.75-7.09-9,1.21-16.37,10.05-16.39,19.69C39.33,24.51,39.15,24.66,38.7,24.72Z"/><path class="cls-1" d="M39.06,24.64C39.07,15,45.9,8.41,54.27,10"/><path class="cls-1" d="M39.2,24.52c0-9.65,8.18-17.31,18.2-17.09"/><path class="cls-1" d="M55.5,4.7c9-1.21,16.33,5.65,16.31,15.29-9.07-5.16-31.43-7.32-49.94-4.83,0-9.64,3.63-15.45,8.05-12.93C39.4,1,50.85,2.06,55.5,4.7Z"/><path class="cls-1" d="M63.74,6C56.86,2.07,39.91.43,25.88,2.32"/><path class="cls-1" d="M69.59,11.47C61.13,6.66,40.26,4.64,23,7"/><path class="cls-1" d="M48.91,2.6C54.46.29,59,6.25,59,15.89"/><path class="cls-1" d="M39.73,1.71c.74-2.78,1.32,2.81,1.3,12.45"/><path class="cls-1" d="M29.92,2.23c-4.42-2.52-8,3.29-8,12.93C3.37,17.65-4.28,23.85,4.8,29c0-9.64,7.36-18.47,16.37-19.69C16.53,6.67,20.44,3.5,29.92,2.23Z"/><path class="cls-1" d="M25.88,2.32c-14,1.89-19.83,6.59-12.95,10.49"/><path class="cls-1" d="M23,7C5.72,9.29-1.42,15.07,7.05,19.88"/><path class="cls-1" d="M22.41,4c-8.36-1.55-15.19,5-15.2,14.67"/><path class="cls-1" d="M19.27,6.59C9.26,6.37,1.1,14,1.08,23.67"/><path class="cls-1" d="M21.17,9.31c-9,1.22-16.36,10-16.37,19.69,9.07,5.16,31.43,7.32,49.94,4.83,0-9.64-3.57-19.53-8-22C37.27,13.06,25.82,12,21.17,9.31Z"/><path class="cls-1" d="M12.93,12.81c6.88,3.91,23.83,5.55,37.86,3.67"/><path class="cls-1" d="M7.05,19.88c8.47,4.81,29.33,6.83,46.61,4.51"/><path class="cls-1" d="M27.77,11.41C22.21,13.73,17.68,23.46,17.66,33.1"/><path class="cls-1" d="M36.94,12.3c-.73,2.78-1.34,12.89-1.36,22.53"/><path class="cls-1" d="M46.75,11.79c4.42,2.51,8,12.4,8,22C73.24,31.34,80.89,25.15,71.81,20c0-9.64-7.3-16.5-16.31-15.29C60.15,7.34,56.23,10.51,46.75,11.79Z"/><path class="cls-1" d="M50.79,16.48c14-1.89,19.83-6.59,13-10.5"/><path class="cls-1" d="M53.66,24.39c17.27-2.32,24.4-8.11,15.93-12.92"/><path class="cls-1" d="M54.27,10c8.36,1.56,15.15,10.67,15.13,20.31"/><path class="cls-1" d="M57.4,7.43c10,.22,18.15,8.24,18.13,17.89"/><path class="cls-1" d="M71.81,20c0,9.65-7.36,18.48-16.37,19.69-4.65-2.64-16.1-3.74-25.58-2.47-4.42-2.51-8-12.4-8-22C40.38,12.67,62.74,14.83,71.81,20Z"/><path class="cls-1" d="M69.56,29.11C61.09,24.3,40.23,22.29,23,24.61"/><path class="cls-1" d="M63.68,36.18c-6.88-3.9-23.83-5.54-37.86-3.66"/><path class="cls-1" d="M59,15.89c0,9.65-4.55,19.38-10.11,21.7"/><path class="cls-1" d="M41,14.16c0,9.65-.63,19.76-1.36,22.54"/><path class="cls-1" d="M21.87,15.16c0,9.65,3.57,19.54,8,22.05-9.48,1.28-13.4,4.45-8.75,7.09C12.1,45.51,4.78,38.65,4.8,29-4.28,23.85,3.37,17.65,21.87,15.16Z"/><path class="cls-1" d="M23,24.61C5.68,26.93-1.45,32.71,7,37.53"/><path class="cls-1" d="M25.82,32.52C11.79,34.41,6,39.11,12.87,43"/><path class="cls-1" d="M7.21,18.71C7.19,28.36,14,37.47,22.34,39"/><path class="cls-1" d="M1.08,23.67c0,9.65,8.11,17.68,18.13,17.9"/><path class="cls-1" d="M4.8,29c0,9.65,7.3,16.51,16.31,15.3,4.65,2.64,16.1,3.75,25.58,2.47,4.42,2.51,8-3.29,8.05-12.94C36.23,36.32,13.87,34.16,4.8,29Z"/><path class="cls-1" d="M7,37.53c8.46,4.81,29.33,6.83,46.6,4.5"/><path class="cls-1" d="M12.87,43c6.88,3.91,23.83,5.54,37.86,3.66"/><path class="cls-1" d="M17.66,33.1c0,9.65,4.49,15.61,10,13.3"/><path class="cls-1" d="M35.58,34.83c0,9.65.56,15.23,1.3,12.46"/><path class="cls-1" d="M54.74,33.83c0,9.65-3.63,15.45-8.05,12.94,9.48-1.27,13.39-4.44,8.75-7.09,9-1.21,16.36-10,16.37-19.69C80.89,25.15,73.24,31.34,54.74,33.83Z"/><path class="cls-1" d="M53.62,42C70.89,39.71,78,33.93,69.56,29.11"/><path class="cls-1" d="M50.73,46.68c14-1.89,19.83-6.59,13-10.5"/><path class="cls-1" d="M69.4,30.28c0,9.65-6.84,16.23-15.2,14.68"/><path class="cls-1" d="M75.53,25.32c0,9.65-8.18,17.31-18.19,17.09"/></g><path class="cls-1" d="M64.44,6.35A14.13,14.13,0,0,0,55.5,4.7C50.85,2.06,39.4,1,29.92,2.23,23.15,3.14,19.22,5,19.22,7c0,.78.63,1.58,2,2.33,4.65,2.65,16.1,3.75,25.58,2.48C53.52,10.88,57.45,9,57.46,7c0-.79-.63-1.59-2-2.34a14.13,14.13,0,0,1,8.94,1.65c.68.41,1.59,1,2.23,1.42a22.7,22.7,0,0,1,2.85,2.4,21.12,21.12,0,0,1,4,5.43,19.71,19.71,0,0,1,2.13,9.1A18.92,18.92,0,0,1,75.32,28a19.67,19.67,0,0,1-2.26,6.25,21.14,21.14,0,0,1-4.16,5.2,24.83,24.83,0,0,1-4.79,3.41c-.9.46-2.09,1.08-3,1.45a39.63,39.63,0,0,1-4.62,1.54C46.31,48.63,35.32,48,32.19,47.79A71.88,71.88,0,0,1,25,46.91c-.56-.09-1.31-.23-1.86-.36-1-.23-2.37-.56-3.38-.83a37.63,37.63,0,0,1-4.45-1.55,29.79,29.79,0,0,1-3.62-1.83,23.07,23.07,0,0,1-6.41-5.59,19.39,19.39,0,0,1-1.93-3c-.41-.84-.91-2-1.25-2.85-.18-.48-.34-1.14-.49-1.64A20.35,20.35,0,0,1,1,26a20,20,0,0,1,0-3.57c.07-.52.13-1.21.25-1.72.21-.92.54-2.12.83-3a20.14,20.14,0,0,1,1.51-3.22A23.81,23.81,0,0,1,5.43,12,21.75,21.75,0,0,1,7.9,9.35,17.31,17.31,0,0,1,9.79,7.82a23.85,23.85,0,0,1,3.09-1.91A43.57,43.57,0,0,1,27.47,1.67c4.2-.56,7.59-.64,7.62-.64.57,0,1.32,0,1.89,0h1.88c1.11,0,2.6.07,3.72.11.55,0,3.34.2,5.49.47a60,60,0,0,1,9.16,1.81,37.73,37.73,0,0,1,4.11,1.46C62.29,5.22,63.52,5.87,64.44,6.35Z"/></g><path class="cls-1" d="M64.44,6.35A14.13,14.13,0,0,0,55.5,4.7C50.85,2.06,39.4,1,29.92,2.23,23.15,3.14,19.22,5,19.22,7c0,.78.63,1.58,2,2.33,4.65,2.65,16.1,3.75,25.58,2.48C53.52,10.88,57.45,9,57.46,7c0-.79-.63-1.59-2-2.34a14.13,14.13,0,0,1,8.94,1.65c.68.41,1.59,1,2.23,1.42a22.7,22.7,0,0,1,2.85,2.4,21.12,21.12,0,0,1,4,5.43,19.71,19.71,0,0,1,2.13,9.1A18.92,18.92,0,0,1,75.32,28a19.67,19.67,0,0,1-2.26,6.25,21.14,21.14,0,0,1-4.16,5.2,24.83,24.83,0,0,1-4.79,3.41c-.9.46-2.09,1.08-3,1.45a39.63,39.63,0,0,1-4.62,1.54C46.31,48.63,35.32,48,32.19,47.79A71.88,71.88,0,0,1,25,46.91c-.56-.09-1.31-.23-1.86-.36-1-.23-2.37-.56-3.38-.83a37.63,37.63,0,0,1-4.45-1.55,29.79,29.79,0,0,1-3.62-1.83,23.07,23.07,0,0,1-6.41-5.59,19.39,19.39,0,0,1-1.93-3c-.41-.84-.91-2-1.25-2.85-.18-.48-.34-1.14-.49-1.64A20.35,20.35,0,0,1,1,26a20,20,0,0,1,0-3.57c.07-.52.13-1.21.25-1.72.21-.92.54-2.12.83-3a20.14,20.14,0,0,1,1.51-3.22A23.81,23.81,0,0,1,5.43,12,21.75,21.75,0,0,1,7.9,9.35,17.31,17.31,0,0,1,9.79,7.82a23.85,23.85,0,0,1,3.09-1.91A43.57,43.57,0,0,1,27.47,1.67c4.2-.56,7.59-.64,7.62-.64.57,0,1.32,0,1.89,0h1.88c1.11,0,2.6.07,3.72.11.55,0,3.34.2,5.49.47a60,60,0,0,1,9.16,1.81,37.73,37.73,0,0,1,4.11,1.46C62.29,5.22,63.52,5.87,64.44,6.35Z"/></g><g class="cls-2"><g class="cls-27"><g class="cls-2"><path class="cls-1" d="M55.5,4.7c9-1.21,16.33,5.65,16.31,15.29-9.07-5.16-31.43-7.32-49.94-4.83,0-9.64,3.63-15.45,8.05-12.93C39.4,1,50.85,2.06,55.5,4.7Z"/><path class="cls-1" d="M63.74,6C56.86,2.07,39.91.43,25.88,2.32"/><path class="cls-1" d="M69.59,11.47C61.13,6.66,40.26,4.64,23,7"/><path class="cls-1" d="M48.91,2.6C54.46.29,59,6.25,59,15.89"/><path class="cls-1" d="M39.73,1.71c.74-2.78,1.32,2.81,1.3,12.45"/><path class="cls-1" d="M29.92,2.23c-4.42-2.52-8,3.29-8,12.93C3.37,17.65-4.28,23.85,4.8,29c0-9.64,7.36-18.47,16.37-19.69C16.53,6.67,20.44,3.5,29.92,2.23Z"/><path class="cls-1" d="M25.88,2.32c-14,1.89-19.83,6.59-12.95,10.49"/><path class="cls-1" d="M23,7C5.72,9.29-1.42,15.07,7.05,19.88"/><path class="cls-1" d="M22.41,4c-8.36-1.55-15.19,5-15.2,14.67"/><path class="cls-1" d="M19.27,6.59C9.26,6.37,1.1,14,1.08,23.67"/><path class="cls-1" d="M21.17,9.31c-9,1.22-16.36,10-16.37,19.69,9.07,5.16,31.43,7.32,49.94,4.83,0-9.64-3.57-19.53-8-22C37.27,13.06,25.82,12,21.17,9.31Z"/><path class="cls-1" d="M12.93,12.81c6.88,3.91,23.83,5.55,37.86,3.67"/><path class="cls-1" d="M7.05,19.88c8.47,4.81,29.33,6.83,46.61,4.51"/><path class="cls-1" d="M27.77,11.41C22.21,13.73,17.68,23.46,17.66,33.1"/><path class="cls-1" d="M36.94,12.3c-.73,2.78-1.34,12.89-1.36,22.53"/><path class="cls-1" d="M46.75,11.79c4.42,2.51,8,12.4,8,22C73.24,31.34,80.89,25.15,71.81,20c0-9.64-7.3-16.5-16.31-15.29C60.15,7.34,56.23,10.51,46.75,11.79Z"/><path class="cls-1" d="M50.79,16.48c14-1.89,19.83-6.59,13-10.5"/><path class="cls-1" d="M53.66,24.39c17.27-2.32,24.4-8.11,15.93-12.92"/><path class="cls-1" d="M54.27,10c8.36,1.56,15.15,10.67,15.13,20.31"/><path class="cls-1" d="M57.4,7.43c10,.22,18.15,8.24,18.13,17.89"/><path class="cls-1" d="M71.81,20c0,9.65-7.36,18.48-16.37,19.69-4.65-2.64-16.1-3.74-25.58-2.47-4.42-2.51-8-12.4-8-22C40.38,12.67,62.74,14.83,71.81,20Z"/><path class="cls-1" d="M69.56,29.11C61.09,24.3,40.23,22.29,23,24.61"/><path class="cls-1" d="M63.68,36.18c-6.88-3.9-23.83-5.54-37.86-3.66"/><path class="cls-1" d="M59,15.89c0,9.65-4.55,19.38-10.11,21.7"/><path class="cls-1" d="M41,14.16c0,9.65-.63,19.76-1.36,22.54"/><path class="cls-1" d="M21.87,15.16c0,9.65,3.57,19.54,8,22.05-9.48,1.28-13.4,4.45-8.75,7.09C12.1,45.51,4.78,38.65,4.8,29-4.28,23.85,3.37,17.65,21.87,15.16Z"/><path class="cls-1" d="M23,24.61C5.68,26.93-1.45,32.71,7,37.53"/><path class="cls-1" d="M25.82,32.52C11.79,34.41,6,39.11,12.87,43"/><path class="cls-1" d="M7.21,18.71C7.19,28.36,14,37.47,22.34,39"/><path class="cls-1" d="M1.08,23.67c0,9.65,8.11,17.68,18.13,17.9"/><path class="cls-1" d="M4.8,29c0,9.65,7.3,16.51,16.31,15.3,4.65,2.64,16.1,3.75,25.58,2.47,4.42,2.51,8-3.29,8.05-12.94C36.23,36.32,13.87,34.16,4.8,29Z"/><path class="cls-1" d="M7,37.53c8.46,4.81,29.33,6.83,46.6,4.5"/><path class="cls-1" d="M12.87,43c6.88,3.91,23.83,5.54,37.86,3.66"/><path class="cls-1" d="M17.66,33.1c0,9.65,4.49,15.61,10,13.3"/><path class="cls-1" d="M35.58,34.83c0,9.65.56,15.23,1.3,12.46"/><path class="cls-1" d="M54.74,33.83c0,9.65-3.63,15.45-8.05,12.94,9.48-1.27,13.39-4.44,8.75-7.09,9-1.21,16.36-10,16.37-19.69C80.89,25.15,73.24,31.34,54.74,33.83Z"/><path class="cls-1" d="M53.62,42C70.89,39.71,78,33.93,69.56,29.11"/><path class="cls-1" d="M50.73,46.68c14-1.89,19.83-6.59,13-10.5"/><path class="cls-1" d="M69.4,30.28c0,9.65-6.84,16.23-15.2,14.68"/><path class="cls-1" d="M75.53,25.32c0,9.65-8.18,17.31-18.19,17.09"/></g><path class="cls-1" d="M27.47,1.67A79,79,0,0,1,37,1,84.7,84.7,0,0,1,48,1.56c2.19.27,3,.4,5.27.85.85.16,2.56.57,3.58.87a33.62,33.62,0,0,1,7.55,3.07c4.45,2.53,7.38,7.53,7.37,13.64,0,9.65-7.36,18.48-16.37,19.69-4.65-2.64-16.1-3.74-25.58-2.47C23.09,38.12,19.16,40,19.15,42c0,.79.63,1.59,2,2.34,4.65,2.64,16.1,3.75,25.58,2.47,6.77-.91,10.7-2.78,10.7-4.75,0-.78-.63-1.58-2-2.34,9-1.21,16.36-10,16.37-19.69,0-6.11-2.92-11.11-7.37-13.64.43.27,1,.6,1.44.89.65.44,1.49,1.06,2.1,1.54A22.33,22.33,0,0,1,70.32,11a20.92,20.92,0,0,1,2.18,2.85,20.57,20.57,0,0,1,1.58,3,19.29,19.29,0,0,1,1.51,6.43,18.59,18.59,0,0,1,0,2.89A19.35,19.35,0,0,1,75,29.41a20.48,20.48,0,0,1-2.64,6,22.55,22.55,0,0,1-4.71,5.13,26.1,26.1,0,0,1-3.36,2.25c-.87.5-2.1,1.06-3,1.47a40.13,40.13,0,0,1-6.71,2.1,81,81,0,0,1-24.21,1.29c-1.05-.11-3.24-.34-5.35-.72a47.88,47.88,0,0,1-5.3-1.2,33.26,33.26,0,0,1-9-3.95,22.38,22.38,0,0,1-5.49-5,21.24,21.24,0,0,1-1.85-2.82C3,33.1,2.47,32,2.12,31.1a13.82,13.82,0,0,1-.51-1.66c-.11-.51-.29-1.17-.36-1.69C1.13,26.81,1,25.53,1,24.58a19.85,19.85,0,0,1,.26-3.32,18.43,18.43,0,0,1,.92-3.52c.34-.87.86-2,1.29-2.83a14,14,0,0,1,.9-1.49A20.57,20.57,0,0,1,7.9,9.35a30.88,30.88,0,0,1,2.56-2,28.36,28.36,0,0,1,3.59-2,30.38,30.38,0,0,1,3.4-1.38c1-.34,2.29-.71,3.28-1A58,58,0,0,1,27.47,1.67Z"/></g><path class="cls-1" d="M27.47,1.67A79,79,0,0,1,37,1,84.7,84.7,0,0,1,48,1.56c2.19.27,3,.4,5.27.85.85.16,2.56.57,3.58.87a33.62,33.62,0,0,1,7.55,3.07c4.45,2.53,7.38,7.53,7.37,13.64,0,9.65-7.36,18.48-16.37,19.69-4.65-2.64-16.1-3.74-25.58-2.47C23.09,38.12,19.16,40,19.15,42c0,.79.63,1.59,2,2.34,4.65,2.64,16.1,3.75,25.58,2.47,6.77-.91,10.7-2.78,10.7-4.75,0-.78-.63-1.58-2-2.34,9-1.21,16.36-10,16.37-19.69,0-6.11-2.92-11.11-7.37-13.64.43.27,1,.6,1.44.89.65.44,1.49,1.06,2.1,1.54A22.33,22.33,0,0,1,70.32,11a20.92,20.92,0,0,1,2.18,2.85,20.57,20.57,0,0,1,1.58,3,19.29,19.29,0,0,1,1.51,6.43,18.59,18.59,0,0,1,0,2.89A19.35,19.35,0,0,1,75,29.41a20.48,20.48,0,0,1-2.64,6,22.55,22.55,0,0,1-4.71,5.13,26.1,26.1,0,0,1-3.36,2.25c-.87.5-2.1,1.06-3,1.47a40.13,40.13,0,0,1-6.71,2.1,81,81,0,0,1-24.21,1.29c-1.05-.11-3.24-.34-5.35-.72a47.88,47.88,0,0,1-5.3-1.2,33.26,33.26,0,0,1-9-3.95,22.38,22.38,0,0,1-5.49-5,21.24,21.24,0,0,1-1.85-2.82C3,33.1,2.47,32,2.12,31.1a13.82,13.82,0,0,1-.51-1.66c-.11-.51-.29-1.17-.36-1.69C1.13,26.81,1,25.53,1,24.58a19.85,19.85,0,0,1,.26-3.32,18.43,18.43,0,0,1,.92-3.52c.34-.87.86-2,1.29-2.83a14,14,0,0,1,.9-1.49A20.57,20.57,0,0,1,7.9,9.35a30.88,30.88,0,0,1,2.56-2,28.36,28.36,0,0,1,3.59-2,30.38,30.38,0,0,1,3.4-1.38c1-.34,2.29-.71,3.28-1A58,58,0,0,1,27.47,1.67Z"/></g></g></g></g></svg>