<svg xmlns="http://www.w3.org/2000/svg" viewBox="0 0 17.9 17.9"><defs><style>.cls-1{fill:none;stroke:#000;stroke-miterlimit:10;}</style></defs><title>Asset 1023</title><g id="Layer_2" data-name="Layer 2"><g id="Layer_1-2" data-name="Layer 1"><path class="cls-1" d="M15,12.18a2,2,0,0,1-2.8,2.8L9,11.75,5.72,15a2,2,0,0,1-2.8-2.8L6.15,9,2.92,5.72a2,2,0,0,1,0-2.8,2,2,0,0,1,2.8,0L9,6.15l3.23-3.23a2,2,0,0,1,2.8,0,2,2,0,0,1,0,2.8L11.75,9Z"/><path class="cls-1" d="M13.58,17.4a3.8,3.8,0,0,1-2.7-1.12L9,14.35,7,16.28a3.82,3.82,0,1,1-5.4-5.4L3.55,9,1.62,7A3.82,3.82,0,1,1,7,1.62L9,3.55l1.93-1.93A3.82,3.82,0,1,1,16.28,7L14.35,9l1.93,1.93a3.82,3.82,0,0,1-2.7,6.52Z"/></g></g></svg>